<?xml version="1.0" standalone="no"?>
<!DOCTYPE svg PUBLIC "-//W3C//DTD SVG 1.1//EN" "http://www.w3.org/Graphics/SVG/1.1/DTD/svg11.dtd" >
<svg>
<metadata>
Created by FontForge 20090622 at Thu Mar 16 04:49:01 2017
 By deploy user
Copyright (c) 2010 - 2012, Matt McInerney (matt@pixelspread.com), Pablo Impallari(impallari@gmail.com), Rodrigo Fuenzalida (hello@rfuenzalida.com) with Reserved Font Name "Raleway"
</metadata>
<defs>
<font id="Raleway-Thin" horiz-adv-x="767" >
  <font-face 
    font-family="Raleway"
    font-weight="100"
    font-stretch="normal"
    units-per-em="1000"
    panose-1="2 11 0 3 3 1 1 6 0 3"
    ascent="800"
    descent="-200"
    x-height="519"
    cap-height="709"
    bbox="-227 -223 1160 940"
    underline-thickness="50"
    underline-position="-50"
    unicode-range="U+000D-U+FB06"
  />
<missing-glyph horiz-adv-x="0" 
 />
    <glyph glyph-name="f_f" unicode="ff" horiz-adv-x="559" 
d="M476 720q-39 0 -66 -16.5t-44 -42.5t-24.5 -58t-7.5 -63v-82h185v-20h-185v-438h-20v438h-187v-438h-20v438h-75v20h75v52q0 33 8 67t25 61.5t44 44.5t65 17q40 0 65.5 -9t36.5 -17q19 29 49.5 47.5t75.5 18.5q27 0 44.5 -5t27.5 -11t14 -11.5t4 -6.5l-16 -12
q-8 9 -22 17.5t-52 8.5zM314 540q0 28 6.5 58.5t20.5 57.5q-18 15 -44.5 19.5t-47.5 4.5q-36 0 -59.5 -17.5t-37.5 -43t-19.5 -55.5t-5.5 -54v-52h187v82z" />
    <glyph glyph-name="f_f_i" unicode="ffi" horiz-adv-x="662" 
d="M107 438h-75v20h75v52q0 33 8 67t25 61.5t44 44.5t65 17q40 0 65.5 -9t36.5 -17q19 29 49.5 47.5t75.5 18.5q27 0 49 -5t38 -11t24.5 -11.5t8.5 -6.5l-16 -12q-9 9 -37.5 17.5t-66.5 8.5q-39 0 -66 -16.5t-44 -42.5t-24.5 -58t-7.5 -63v-82h245v-458h-20v438h-225v-438
h-20v438h-187v-438h-20v438zM314 458v82q0 28 6.5 58.5t20.5 57.5q-18 15 -44.5 19.5t-47.5 4.5q-36 0 -59.5 -17.5t-37.5 -43t-19.5 -55.5t-5.5 -54v-52h187z" />
    <glyph glyph-name="f_f_l" unicode="ffl" horiz-adv-x="734" 
d="M674 -5q-38 0 -58.5 24.5t-20.5 57.5v536q0 20 -7 39t-22 34t-38.5 24.5t-56.5 9.5q-36 0 -61 -16t-40.5 -42t-23 -58t-7.5 -64v-82h125v-20h-125v-438h-20v438h-192v-438h-20v438h-75v20h75v62q0 37 9.5 70t28.5 57.5t47.5 38.5t66.5 14q39 0 59.5 -8.5t31.5 -16.5
q18 30 47.5 47.5t73.5 17.5q34 0 61 -10t45.5 -27t28 -40t9.5 -49v-537q0 -22 15.5 -42.5t44.5 -20.5q10 0 20.5 1.5t19.5 3t15 3l6 1.5l9 -19l-6.5 -1.5t-16.5 -3t-22.5 -3t-25.5 -1.5zM319 458v82q0 32 5 62t16 55q-17 14 -38.5 18.5t-42.5 4.5q-36 0 -61 -14.5
t-40.5 -37.5t-23 -51.5t-7.5 -56.5v-62h192z" />
    <glyph glyph-name="f_i" unicode="fi" horiz-adv-x="455" 
d="M107 438h-75v20h75v82q0 31 8 66.5t27 65t50 49t77 19.5q27 0 49 -5t38 -11t24.5 -11.5t8.5 -6.5l-16 -12q-9 9 -37.5 17.5t-66.5 8.5q-39 0 -66 -16.5t-44 -42.5t-24.5 -58t-7.5 -63v-82h245v-458h-20v438h-225v-438h-20v438z" />
    <glyph glyph-name="f_l" unicode="fl" horiz-adv-x="522" 
d="M533 4l-6.5 -1.5t-16.5 -3t-22.5 -3t-25.5 -1.5q-38 0 -58.5 24.5t-20.5 57.5v536q0 20 -7 39t-22 34t-38.5 24.5t-56.5 9.5q-36 0 -61 -16t-40.5 -42t-23 -58t-7.5 -64v-82h125v-20h-125v-438h-20v438h-75v20h75v82q0 41 8 77.5t26 63.5t47 43t71 16q34 0 61 -10
t45.5 -27t28 -40t9.5 -49v-537q0 -22 15.5 -42.5t44.5 -20.5q10 0 20.5 1.5t19.5 3t15 3l6 1.5z" />
    <glyph glyph-name=".notdef" horiz-adv-x="0" 
 />
    <glyph glyph-name="A" unicode="A" horiz-adv-x="683" 
d="M23 0l310 710h18l309 -710h-22l-111 254h-371l-111 -254h-22zM342 681l-178 -407h354z" />
    <glyph glyph-name="A.sc" horiz-adv-x="580" 
d="M28 0l253 540h18l252 -540h-22l-89 190h-300l-90 -190h-22zM290 512l-143 -303h285z" />
    <glyph glyph-name="AE" unicode="&#xc6;" horiz-adv-x="999" 
d="M476 710h462v-20h-437v-317h383v-20h-383v-333h446v-20h-466v254h-281l-167 -254h-25zM481 274v404l-269 -404h269z" />
    <glyph glyph-name="AEacute" unicode="&#x1fc;" horiz-adv-x="999" 
d="M476 710h462v-20h-437v-317h383v-20h-383v-333h446v-20h-466v254h-281l-167 -254h-25zM481 274v404l-269 -404h269zM487 833l-16 12l64 73h34z" />
    <glyph glyph-name="acute" unicode="&#xb4;" horiz-adv-x="198" 
d="M66 645l-16 12l64 73h34z" />
    <glyph glyph-name="Aacute" unicode="&#xc1;" horiz-adv-x="683" 
d="M23 0l310 710h18l309 -710h-22l-111 254h-371l-111 -254h-22zM342 681l-178 -407h354zM328 833l-16 12l64 73h34z" />
    <glyph glyph-name="Abreve" unicode="&#x102;" horiz-adv-x="683" 
d="M23 0l310 710h18l309 -710h-22l-111 254h-371l-111 -254h-22zM342 681l-178 -407h354zM342 858q20 0 36.5 17.5t19.5 42.5h18q0 -15 -6 -29t-16.5 -24.5t-23.5 -17t-28 -6.5t-28 6.5t-23.5 17t-16.5 24.5t-6 29h19q0 -23 17 -41.5t38 -18.5z" />
    <glyph glyph-name="breve" unicode="&#x2d8;" horiz-adv-x="248" 
d="M124 670q20 0 36.5 17.5t19.5 42.5h18q0 -15 -6 -29t-16.5 -24.5t-23.5 -17t-28 -6.5t-28 6.5t-23.5 17t-16.5 24.5t-6 29h19q0 -23 17 -41.5t38 -18.5z" />
    <glyph glyph-name="Acircumflex" unicode="&#xc2;" horiz-adv-x="683" 
d="M23 0l310 710h18l309 -710h-22l-111 254h-371l-111 -254h-22zM342 681l-178 -407h354zM241 844l93 74h16l93 -74l-16 -12l-85 63l-85 -63z" />
    <glyph glyph-name="circumflex" unicode="&#x2c6;" horiz-adv-x="302" 
d="M50 656l93 74h16l93 -74l-16 -12l-85 63l-85 -63z" />
    <glyph glyph-name="Adieresis" unicode="&#xc4;" horiz-adv-x="683" 
d="M23 0l310 710h18l309 -710h-22l-111 254h-371l-111 -254h-22zM342 681l-178 -407h354zM274 841v77h20v-77h-20zM390 841v77h20v-77h-20z" />
    <glyph glyph-name="dieresis" unicode="&#xa8;" horiz-adv-x="236" 
d="M50 653v77h20v-77h-20zM166 653v77h20v-77h-20z" />
    <glyph glyph-name="Agrave" unicode="&#xc0;" horiz-adv-x="683" 
d="M23 0l310 710h18l309 -710h-22l-111 254h-371l-111 -254h-22zM342 681l-178 -407h354zM274 918h33l65 -73l-16 -12z" />
    <glyph glyph-name="grave" unicode="`" horiz-adv-x="198" 
d="M50 730h33l65 -73l-16 -12z" />
    <glyph glyph-name="Amacron" unicode="&#x100;" horiz-adv-x="683" 
d="M23 0l310 710h18l309 -710h-22l-111 254h-371l-111 -254h-22zM342 681l-178 -407h354zM202 874v20h280v-20h-280z" />
    <glyph glyph-name="macron" unicode="&#xaf;" horiz-adv-x="380" 
d="M50 686v20h280v-20h-280z" />
    <glyph glyph-name="Aogonek" unicode="&#x104;" horiz-adv-x="683" 
d="M611 -156q-25 6 -38.5 22t-13.5 39q0 25 17.5 48.5t58.5 53.5l-108 247h-371l-111 -254h-22l310 710h18l306 -704l3 -3q-1 0 -1 -1l1 -2h-5q-42 -29 -59 -49.5t-17 -42.5q0 -38 44 -47zM342 681l-178 -407h354z" />
    <glyph glyph-name="ogonek" unicode="&#x2db;" horiz-adv-x="203" 
d="M100 -159q-25 6 -38.5 22t-13.5 39q0 26 20.5 51.5t68.5 60.5l12 -14q-45 -31 -63 -51.5t-18 -43.5q0 -38 44 -47l-12 -17v0z" />
    <glyph glyph-name="Aring" unicode="&#xc5;" horiz-adv-x="683" 
d="M23 0l310 710h18l309 -710h-22l-111 254h-371l-111 -254h-22zM342 681l-178 -407h354zM285 861q0 24 16.5 40.5t40.5 16.5t40.5 -16.5t16.5 -40.5t-16.5 -40.5t-40.5 -16.5t-40.5 16.5t-16.5 40.5zM342 902q-17 0 -29 -11t-12 -30q0 -17 12 -29t29 -12q15 0 28 11.5
t13 29.5q0 19 -12 30t-29 11z" />
    <glyph glyph-name="ring" unicode="&#x2da;" horiz-adv-x="238" 
d="M62 673q0 24 16.5 40.5t40.5 16.5t40.5 -16.5t16.5 -40.5t-16.5 -40.5t-40.5 -16.5t-40.5 16.5t-16.5 40.5zM119 714q-17 0 -29 -11t-12 -30q0 -17 12 -29t29 -12q15 0 28 11.5t13 29.5q0 19 -12 30t-29 11z" />
    <glyph glyph-name="Aringacute" unicode="&#x1fa;" horiz-adv-x="683" 
d="M285 751q0 24 16.5 40.5t40.5 16.5t40.5 -16.5t16.5 -40.5q0 -20 -12 -35.5t-31 -20.5l304 -695h-22l-111 254h-371l-111 -254h-22l304 695q-19 5 -30.5 20.5t-11.5 35.5zM342 681l-178 -407h354zM342 792q-17 0 -29 -11t-12 -30q0 -17 12 -29t29 -12q15 0 28 11.5
t13 29.5q0 19 -12 30t-29 11zM328 833l-16 12l64 73h34z" />
    <glyph glyph-name="Atilde" unicode="&#xc3;" horiz-adv-x="683" 
d="M23 0l310 710h18l309 -710h-22l-111 254h-371l-111 -254h-22zM342 681l-178 -407h354zM403 851q-22 0 -38.5 6t-30.5 13t-27.5 13t-28.5 6q-16 0 -26 -6.5t-15.5 -15t-7.5 -16.5t-2 -10h-20q0 2 2 13t9.5 23t22 21.5t39.5 9.5q19 0 34 -6t29 -13t28.5 -13t33.5 -6
q21 0 32.5 7t17.5 15.5t7.5 16t1.5 9.5h20q0 -3 -2.5 -14t-10.5 -23t-24.5 -21t-43.5 -9z" />
    <glyph glyph-name="tilde" unicode="&#x2dc;" horiz-adv-x="383" 
d="M249 663q-22 0 -38.5 6t-30.5 13t-27.5 13t-28.5 6q-16 0 -26 -6.5t-15.5 -15t-7.5 -16.5t-2 -10h-20q0 2 2 13t9.5 23t22 21.5t39.5 9.5q19 0 34 -6t29 -13t28.5 -13t33.5 -6q21 0 32.5 7t17.5 15.5t7.5 16t1.5 9.5h20q0 -3 -2.5 -14t-10.5 -23t-24.5 -21t-43.5 -9z" />
    <glyph glyph-name="B" unicode="B" horiz-adv-x="660" 
d="M607 184q0 -37 -14 -70t-38 -58.5t-56.5 -40.5t-68.5 -15h-329v710h314q37 0 67 -16t51 -41.5t32.5 -58t11.5 -65.5q0 -54 -27.5 -99t-74.5 -66q30 -9 54.5 -27t42 -42t26.5 -52.5t9 -58.5zM587 184q0 32 -11.5 61.5t-31.5 52.5t-47.5 36.5t-59.5 13.5h-316v-328h309
q33 0 61.5 14t50 37t33.5 52.5t12 60.5zM121 690v-322h288q33 0 60 14t46.5 37t30.5 51.5t11 58.5q0 32 -10.5 61t-29 51.5t-45 35.5t-57.5 13h-294z" />
    <glyph glyph-name="B.sc" horiz-adv-x="565" 
d="M509 140q0 -29 -11.5 -54t-31.5 -44.5t-47 -30.5t-57 -11h-270v540h260q31 0 55.5 -12t41.5 -31.5t26 -44.5t9 -50q0 -42 -22.5 -75.5t-60.5 -49.5q50 -14 79 -52t29 -85zM489 141q0 24 -9 46t-25.5 39t-38.5 27t-48 10h-256v-244h250q27 0 50 10.5t40 27.5t27 39t10 45z
M112 520v-238h233q26 0 48 10.5t37.5 27t24.5 38t9 43.5q0 24 -8.5 45.5t-23.5 38t-36 26t-46 9.5h-238z" />
    <glyph glyph-name="C" unicode="C" horiz-adv-x="702" 
d="M52 360q0 64 22.5 127t65 113.5t105 82t142.5 31.5q95 0 161 -43.5t98 -111.5l-19 -6q-21 39 -48.5 66t-60 43.5t-67 24t-68.5 7.5q-74 0 -132 -29.5t-98 -77.5t-60.5 -108.5t-20.5 -121.5q0 -68 24.5 -130t67 -109.5t99.5 -75.5t123 -28q35 0 72 9t71.5 27t64 46.5
t50.5 67.5l19 -5q-18 -40 -49 -71t-69 -52t-80.5 -31.5t-82.5 -10.5q-72 0 -133 32t-104.5 83.5t-68 117t-24.5 133.5z" />
    <glyph glyph-name="C.sc" horiz-adv-x="599" 
d="M53 274q0 48 18.5 96.5t53.5 86.5t86 62t117 24q78 0 132 -33.5t81 -84.5l-19 -8q-17 30 -39.5 50t-48.5 32.5t-54 18t-55 5.5q-60 0 -107 -22t-79.5 -58t-49 -81t-16.5 -91q0 -51 19.5 -97t54 -81.5t81 -56.5t99.5 -21q28 0 58 6.5t58 20t52 35t41 50.5l18 -6
q-15 -30 -40.5 -53.5t-56.5 -39.5t-65.5 -24.5t-67.5 -8.5q-60 0 -109.5 24.5t-85.5 64t-56 89.5t-20 101z" />
    <glyph glyph-name="nonmarkingreturn" unicode="&#xd;" horiz-adv-x="0" 
 />
    <glyph glyph-name="Cacute" unicode="&#x106;" horiz-adv-x="702" 
d="M52 360q0 64 22.5 127t65 113.5t105 82t142.5 31.5q95 0 161 -43.5t98 -111.5l-19 -6q-21 39 -48.5 66t-60 43.5t-67 24t-68.5 7.5q-74 0 -132 -29.5t-98 -77.5t-60.5 -108.5t-20.5 -121.5q0 -68 24.5 -130t67 -109.5t99.5 -75.5t123 -28q35 0 72 9t71.5 27t64 46.5
t50.5 67.5l19 -5q-18 -40 -49 -71t-69 -52t-80.5 -31.5t-82.5 -10.5q-72 0 -133 32t-104.5 83.5t-68 117t-24.5 133.5zM371 833l-16 12l64 73h34z" />
    <glyph glyph-name="Ccaron" unicode="&#x10c;" horiz-adv-x="702" 
d="M52 360q0 64 22.5 127t65 113.5t105 82t142.5 31.5q95 0 161 -43.5t98 -111.5l-19 -6q-21 39 -48.5 66t-60 43.5t-67 24t-68.5 7.5q-74 0 -132 -29.5t-98 -77.5t-60.5 -108.5t-20.5 -121.5q0 -68 24.5 -130t67 -109.5t99.5 -75.5t123 -28q35 0 72 9t71.5 27t64 46.5
t50.5 67.5l19 -5q-18 -40 -49 -71t-69 -52t-80.5 -31.5t-82.5 -10.5q-72 0 -133 32t-104.5 83.5t-68 117t-24.5 133.5zM300 918l85 -63l85 63l16 -12l-93 -74h-16l-93 74z" />
    <glyph glyph-name="caron" unicode="&#x2c7;" horiz-adv-x="302" 
d="M66 730l85 -63l85 63l16 -12l-93 -74h-16l-93 74z" />
    <glyph glyph-name="Ccedilla" unicode="&#xc7;" horiz-adv-x="703" 
d="M309 -125q15 -7 38 -12.5t49 -5.5q58 0 58 38q0 21 -13.5 29.5t-34.5 8.5t-44 -5.5t-37 -10.5l44 78q-70 3 -128 35.5t-100 84t-65 115.5t-23 130q0 64 22.5 127t65 113.5t105 82t142.5 31.5q95 0 161 -43.5t98 -111.5l-19 -6q-21 39 -48.5 66t-60 43.5t-67 24t-68.5 7.5
q-74 0 -132 -29.5t-98 -77.5t-60.5 -108.5t-20.5 -121.5q0 -68 24.5 -130t67 -109.5t99.5 -75.5t123 -28q35 0 72 9t71.5 27t64 46.5t50.5 67.5l19 -5q-18 -39 -47.5 -69t-66 -51t-77 -32.5t-80.5 -12.5l-29 -51q10 4 22 5t20 1q68 0 68 -54q0 -30 -21.5 -43.5t-59.5 -13.5
q-26 0 -50.5 5.5t-43.5 13.5z" />
    <glyph glyph-name="cedilla" unicode="&#xb8;" horiz-adv-x="252" 
d="M33 -125q15 -7 38 -12.5t49 -5.5q58 0 58 38q0 21 -13.5 29.5t-34.5 8.5t-44 -5.5t-37 -10.5l54 94l18 -11l-33 -57q10 4 22 5t20 1q68 0 68 -54q0 -30 -21.5 -43.5t-59.5 -13.5q-26 0 -50.5 5.5t-43.5 13.5z" />
    <glyph glyph-name="Ccircumflex" unicode="&#x108;" horiz-adv-x="702" 
d="M52 360q0 64 22.5 127t65 113.5t105 82t142.5 31.5q95 0 161 -43.5t98 -111.5l-19 -6q-21 39 -48.5 66t-60 43.5t-67 24t-68.5 7.5q-74 0 -132 -29.5t-98 -77.5t-60.5 -108.5t-20.5 -121.5q0 -68 24.5 -130t67 -109.5t99.5 -75.5t123 -28q35 0 72 9t71.5 27t64 46.5
t50.5 67.5l19 -5q-18 -40 -49 -71t-69 -52t-80.5 -31.5t-82.5 -10.5q-72 0 -133 32t-104.5 83.5t-68 117t-24.5 133.5zM284 844l93 74h16l93 -74l-16 -12l-85 63l-85 -63z" />
    <glyph glyph-name="Cdotaccent" unicode="&#x10a;" horiz-adv-x="702" 
d="M52 360q0 64 22.5 127t65 113.5t105 82t142.5 31.5q95 0 161 -43.5t98 -111.5l-19 -6q-21 39 -48.5 66t-60 43.5t-67 24t-68.5 7.5q-74 0 -132 -29.5t-98 -77.5t-60.5 -108.5t-20.5 -121.5q0 -68 24.5 -130t67 -109.5t99.5 -75.5t123 -28q35 0 72 9t71.5 27t64 46.5
t50.5 67.5l19 -5q-18 -40 -49 -71t-69 -52t-80.5 -31.5t-82.5 -10.5q-72 0 -133 32t-104.5 83.5t-68 117t-24.5 133.5zM375 841v77h20v-77h-20z" />
    <glyph glyph-name="dotaccent" unicode="&#x2d9;" horiz-adv-x="120" 
d="M50 653v77h20v-77h-20z" />
    <glyph glyph-name="D" unicode="D" horiz-adv-x="718" 
d="M101 0v710h228q84 0 146.5 -28t104 -76t62 -112.5t20.5 -137.5q0 -81 -23.5 -146.5t-66.5 -112t-105 -72t-138 -25.5h-228zM642 356q0 73 -20.5 134t-60.5 105.5t-98.5 69.5t-133.5 25h-208v-670h208q77 0 135.5 25.5t98 70.5t59.5 106.5t20 133.5z" />
    <glyph glyph-name="D.sc" horiz-adv-x="609" 
d="M92 0v540h188q69 0 120 -21t85.5 -57.5t51.5 -85.5t17 -105q0 -62 -19.5 -112t-55 -85t-86 -54.5t-113.5 -19.5h-188zM533 271q0 54 -16.5 100t-49 79t-79.5 51.5t-108 18.5h-168v-501h168q63 0 110 19.5t79 53t48 79.5t16 100z" />
    <glyph glyph-name="Dcaron" unicode="&#x10e;" horiz-adv-x="718" 
d="M101 0v710h228q84 0 146.5 -28t104 -76t62 -112.5t20.5 -137.5q0 -81 -23.5 -146.5t-66.5 -112t-105 -72t-138 -25.5h-228zM642 356q0 73 -20.5 134t-60.5 105.5t-98.5 69.5t-133.5 25h-208v-670h208q77 0 135.5 25.5t98 70.5t59.5 106.5t20 133.5zM270 918l85 -63l85 63
l16 -12l-93 -74h-16l-93 74z" />
    <glyph glyph-name="Dcroat" unicode="&#x110;" horiz-adv-x="724" 
d="M107 0v347h-71v20h71v343h228q84 0 146.5 -28t104 -76t62 -112.5t20.5 -137.5q0 -81 -23.5 -146.5t-66.5 -112t-105 -72t-138 -25.5h-228zM648 356q0 73 -20.5 134t-60.5 105.5t-98.5 69.5t-133.5 25h-208v-323h192v-20h-192v-327h208q77 0 135.5 25.5t98 70.5
t59.5 106.5t20 133.5z" />
    <glyph glyph-name="E" unicode="E" horiz-adv-x="619" 
d="M567 20v-20h-466v710h457v-20h-437v-317h383v-20h-383v-333h446z" />
    <glyph glyph-name="E.sc" horiz-adv-x="529" 
d="M475 19v-19h-383v540h376v-20h-356v-235h312v-19h-312v-247h363z" />
    <glyph glyph-name="Eacute" unicode="&#xc9;" horiz-adv-x="619" 
d="M567 20v-20h-466v710h457v-20h-437v-317h383v-20h-383v-333h446zM332 833l-16 12l64 73h34z" />
    <glyph glyph-name="Ebreve" unicode="&#x114;" horiz-adv-x="619" 
d="M567 20v-20h-466v710h457v-20h-437v-317h383v-20h-383v-333h446zM346 858q20 0 36.5 17.5t19.5 42.5h18q0 -15 -6 -29t-16.5 -24.5t-23.5 -17t-28 -6.5t-28 6.5t-23.5 17t-16.5 24.5t-6 29h19q0 -23 17 -41.5t38 -18.5z" />
    <glyph glyph-name="Ecaron" unicode="&#x11a;" horiz-adv-x="619" 
d="M567 20v-20h-466v710h457v-20h-437v-317h383v-20h-383v-333h446zM261 918l85 -63l85 63l16 -12l-93 -74h-16l-93 74z" />
    <glyph glyph-name="Ecircumflex" unicode="&#xca;" horiz-adv-x="619" 
d="M567 20v-20h-466v710h457v-20h-437v-317h383v-20h-383v-333h446zM245 844l93 74h16l93 -74l-16 -12l-85 63l-85 -63z" />
    <glyph glyph-name="Edieresis" unicode="&#xcb;" horiz-adv-x="619" 
d="M567 20v-20h-466v710h457v-20h-437v-317h383v-20h-383v-333h446zM278 841v77h20v-77h-20zM394 841v77h20v-77h-20z" />
    <glyph glyph-name="Edotaccent" unicode="&#x116;" horiz-adv-x="619" 
d="M567 20v-20h-466v710h457v-20h-437v-317h383v-20h-383v-333h446zM336 841v77h20v-77h-20z" />
    <glyph glyph-name="Egrave" unicode="&#xc8;" horiz-adv-x="619" 
d="M567 20v-20h-466v710h457v-20h-437v-317h383v-20h-383v-333h446zM278 918h33l65 -73l-16 -12z" />
    <glyph glyph-name="Emacron" unicode="&#x112;" horiz-adv-x="619" 
d="M567 20v-20h-466v710h457v-20h-437v-317h383v-20h-383v-333h446zM206 874v20h280v-20h-280z" />
    <glyph glyph-name="Eng" unicode="&#x14a;" horiz-adv-x="780" 
d="M121 671v-671h-20v710h15l543 -681v680h20v-745q0 -29 -12 -53.5t-31 -42.5t-43 -28t-47 -10q-29 0 -54.5 7t-45.5 27l16 12q18 -16 40 -21t43 -5t41 9t36.5 24t26.5 36t10 45v32z" />
    <glyph glyph-name="Eogonek" unicode="&#x118;" horiz-adv-x="619" 
d="M309 -159q-25 6 -38.5 22t-13.5 39q0 24 16 46.5t54 51.5h-226v710h457v-20h-437v-317h383v-20h-383v-333h446v-20h-209q-45 -31 -63 -51.5t-18 -43.5q0 -38 44 -47l-12 -17v0z" />
    <glyph glyph-name="Eth" unicode="&#xd0;" horiz-adv-x="724" 
d="M107 0v347h-71v20h71v343h228q84 0 146.5 -28t104 -76t62 -112.5t20.5 -137.5q0 -81 -23.5 -146.5t-66.5 -112t-105 -72t-138 -25.5h-228zM648 356q0 73 -20.5 134t-60.5 105.5t-98.5 69.5t-133.5 25h-208v-323h192v-20h-192v-327h208q77 0 135.5 25.5t98 70.5
t59.5 106.5t20 133.5z" />
    <glyph glyph-name="Etilde" unicode="&#x1ebc;" horiz-adv-x="619" 
d="M567 20v-20h-466v710h457v-20h-437v-317h383v-20h-383v-333h446zM407 851q-22 0 -38.5 6t-30.5 13t-27.5 13t-28.5 6q-16 0 -26 -6.5t-15.5 -15t-7.5 -16.5t-2 -10h-20q0 2 2 13t9.5 23t22 21.5t39.5 9.5q19 0 34 -6t29 -13t28.5 -13t33.5 -6q21 0 32.5 7t17.5 15.5
t7.5 16t1.5 9.5h20q0 -3 -2.5 -14t-10.5 -23t-24.5 -21t-43.5 -9z" />
    <glyph glyph-name="Euro" unicode="&#x20ac;" horiz-adv-x="819" 
d="M152 401q7 59 32 115t67.5 100t101 71t132.5 27q95 0 161 -43.5t98 -111.5l-19 -6q-21 39 -48.5 66t-60 43.5t-67 24t-68.5 7.5q-68 0 -122 -25t-93 -66t-62.5 -93.5t-30.5 -108.5h394l-10 -20h-386q-1 -6 -1 -12v-12q0 -24 3 -46h354l-10 -20h-341q11 -57 39 -107.5
t68.5 -88t91.5 -59.5t109 -22q35 0 72 9t71.5 27t64 46.5t50.5 67.5l19 -5q-18 -40 -49 -71t-69 -52t-80.5 -31.5t-82.5 -10.5q-63 0 -117.5 24.5t-96.5 65.5t-70 94.5t-39 112.5h-123l10 20h109q-2 12 -2.5 26.5t-0.5 43.5h-76l10 20h68z" />
    <glyph glyph-name="F" unicode="F" horiz-adv-x="596" 
d="M101 0v710h457v-20h-437v-316h373v-20h-373v-354h-20z" />
    <glyph glyph-name="F.sc" horiz-adv-x="508" 
d="M92 0v540h375v-20h-355v-234h303v-20h-303v-266h-20z" />
    <glyph glyph-name="G" unicode="G" horiz-adv-x="730" 
d="M644 121q-111 -126 -256 -126q-74 0 -135.5 31.5t-106 82.5t-69 115.5t-24.5 130.5q0 69 24 134t66.5 115.5t102 80.5t130.5 30q55 0 98 -11.5t76 -32t56.5 -49t40.5 -62.5l-19 -6q-41 75 -105 108t-147 33q-70 0 -126 -29.5t-95.5 -77.5t-60.5 -109t-21 -124
q0 -67 24.5 -128.5t67.5 -108.5t100 -75t123 -28q70 0 133 32t123 102v169h-167v20h187v-338h-20v121z" />
    <glyph glyph-name="G.alt" horiz-adv-x="745" 
d="M382 -5q-72 0 -132 30.5t-104 81t-68.5 115.5t-24.5 134q0 70 25.5 135t70 115t105 79.5t130.5 29.5q44 0 83.5 -11.5t74 -32.5t63 -50t49.5 -63l-14 -14q-42 67 -108 109t-149 42q-69 0 -126 -29.5t-98 -77.5t-63.5 -109.5t-22.5 -125.5q0 -65 23.5 -126t64.5 -108
t98 -75.5t125 -28.5q63 0 116 24.5t93 65.5t65 94t33 110h-246v20h268q0 -5 -0.5 -9.5t-1.5 -11.5q-8 -62 -36 -118.5t-71 -99.5t-99.5 -69t-122.5 -26z" />
    <glyph glyph-name="G.sc" horiz-adv-x="619" 
d="M535 90q-90 -94 -208 -94q-60 0 -110.5 24t-87 63t-56.5 88t-20 99q0 53 19.5 102t55 87t84 61t106.5 23q90 0 142.5 -33t80.5 -84l-19 -8q-32 57 -84.5 81.5t-119.5 24.5q-57 0 -102 -22t-77 -58t-49 -81.5t-17 -92.5q0 -50 20 -96t54.5 -81t81 -56t99.5 -21
q57 0 108 24t99 76v123h-136v19h156v-258h-20v90z" />
    <glyph glyph-name="Gbreve" unicode="&#x11e;" horiz-adv-x="730" 
d="M644 121q-111 -126 -256 -126q-74 0 -135.5 31.5t-106 82.5t-69 115.5t-24.5 130.5q0 69 24 134t66.5 115.5t102 80.5t130.5 30q55 0 98 -11.5t76 -32t56.5 -49t40.5 -62.5l-19 -6q-41 75 -105 108t-147 33q-70 0 -126 -29.5t-95.5 -77.5t-60.5 -109t-21 -124
q0 -67 24.5 -128.5t67.5 -108.5t100 -75t123 -28q70 0 133 32t123 102v169h-167v20h187v-338h-20v121zM375 858q20 0 36.5 17.5t19.5 42.5h18q0 -15 -6 -29t-16.5 -24.5t-23.5 -17t-28 -6.5t-28 6.5t-23.5 17t-16.5 24.5t-6 29h19q0 -23 17 -41.5t38 -18.5z" />
    <glyph glyph-name="Gcircumflex" unicode="&#x11c;" horiz-adv-x="730" 
d="M644 121q-111 -126 -256 -126q-74 0 -135.5 31.5t-106 82.5t-69 115.5t-24.5 130.5q0 69 24 134t66.5 115.5t102 80.5t130.5 30q55 0 98 -11.5t76 -32t56.5 -49t40.5 -62.5l-19 -6q-41 75 -105 108t-147 33q-70 0 -126 -29.5t-95.5 -77.5t-60.5 -109t-21 -124
q0 -67 24.5 -128.5t67.5 -108.5t100 -75t123 -28q70 0 133 32t123 102v169h-167v20h187v-338h-20v121zM274 844l93 74h16l93 -74l-16 -12l-85 63l-85 -63z" />
    <glyph glyph-name="Gcommaaccent" unicode="&#x122;" horiz-adv-x="730" 
d="M644 121q-111 -126 -256 -126q-74 0 -135.5 31.5t-106 82.5t-69 115.5t-24.5 130.5q0 69 24 134t66.5 115.5t102 80.5t130.5 30q55 0 98 -11.5t76 -32t56.5 -49t40.5 -62.5l-19 -6q-41 75 -105 108t-147 33q-70 0 -126 -29.5t-95.5 -77.5t-60.5 -109t-21 -124
q0 -67 24.5 -128.5t67.5 -108.5t100 -75t123 -28q70 0 133 32t123 102v169h-167v20h187v-338h-20v121zM364 -127q13 0 13 13v64h20v-62q0 -35 -33 -35v20z" />
    <glyph glyph-name="commaaccent" unicode="&#xf6c3;" horiz-adv-x="120" 
d="M47 -127q13 0 13 13v64h20v-62q0 -35 -33 -35v20z" />
    <glyph glyph-name="Gdotaccent" unicode="&#x120;" horiz-adv-x="730" 
d="M644 121q-111 -126 -256 -126q-74 0 -135.5 31.5t-106 82.5t-69 115.5t-24.5 130.5q0 69 24 134t66.5 115.5t102 80.5t130.5 30q55 0 98 -11.5t76 -32t56.5 -49t40.5 -62.5l-19 -6q-41 75 -105 108t-147 33q-70 0 -126 -29.5t-95.5 -77.5t-60.5 -109t-21 -124
q0 -67 24.5 -128.5t67.5 -108.5t100 -75t123 -28q70 0 133 32t123 102v169h-167v20h187v-338h-20v121zM365 841v77h20v-77h-20z" />
    <glyph glyph-name="H" unicode="H" horiz-adv-x="735" 
d="M634 710v-710h-20v353h-493v-353h-20v710h20v-337h493v337h20z" />
    <glyph glyph-name="H.sc" horiz-adv-x="623" 
d="M531 540v-540h-20v266h-399v-266h-20v540h20v-254h399v254h20z" />
    <glyph glyph-name="Hbar" unicode="&#x126;" horiz-adv-x="743" 
d="M638 710v-136h50v-20h-50v-554h-20v353h-493v-353h-20v554h-50v20h50v136h20v-136h493v136h20zM618 373v181h-493v-181h493z" />
    <glyph glyph-name="Hcircumflex" unicode="&#x124;" horiz-adv-x="735" 
d="M634 710v-710h-20v353h-493v-353h-20v710h20v-337h493v337h20zM268 844l93 74h16l93 -74l-16 -12l-85 63l-85 -63z" />
    <glyph glyph-name="I" unicode="I" horiz-adv-x="222" 
d="M101 0v709h20v-709h-20z" />
    <glyph glyph-name="I.sc" horiz-adv-x="204" 
d="M92 0v539h20v-539h-20z" />
    <glyph glyph-name="IJ" unicode="&#x132;" horiz-adv-x="702" 
d="M101 0v709h20v-709h-20zM256 49q58 -40 143 -40q64 0 101.5 23.5t57 67t25.5 106.5t6 143v360h20v-360q0 -81 -6.5 -147.5t-28.5 -113.5t-63.5 -73t-111.5 -26q-90 0 -154 44z" />
    <glyph glyph-name="J" unicode="J" horiz-adv-x="480" 
d="M34 49q58 -40 143 -40q64 0 101.5 23.5t57 67t25.5 106.5t6 143v360h20v-360q0 -81 -6.5 -147.5t-28.5 -113.5t-63.5 -73t-111.5 -26q-90 0 -154 44z" />
    <glyph glyph-name="Iacute" unicode="&#xcd;" horiz-adv-x="222" 
d="M101 0v709h20v-709h-20zM97 833l-16 12l64 73h34z" />
    <glyph glyph-name="Ibreve" unicode="&#x12c;" horiz-adv-x="222" 
d="M101 0v709h20v-709h-20zM111 858q20 0 36.5 17.5t19.5 42.5h18q0 -15 -6 -29t-16.5 -24.5t-23.5 -17t-28 -6.5t-28 6.5t-23.5 17t-16.5 24.5t-6 29h19q0 -23 17 -41.5t38 -18.5z" />
    <glyph glyph-name="Icircumflex" unicode="&#xce;" horiz-adv-x="222" 
d="M101 0v709h20v-709h-20zM10 844l93 74h16l93 -74l-16 -12l-85 63l-85 -63z" />
    <glyph glyph-name="Idieresis" unicode="&#xcf;" horiz-adv-x="222" 
d="M101 0v709h20v-709h-20zM43 841v77h20v-77h-20zM159 841v77h20v-77h-20z" />
    <glyph glyph-name="Idotaccent" unicode="&#x130;" horiz-adv-x="222" 
d="M101 0v709h20v-709h-20zM101 841v77h20v-77h-20z" />
    <glyph glyph-name="Igrave" unicode="&#xcc;" horiz-adv-x="222" 
d="M101 0v709h20v-709h-20zM43 918h33l65 -73l-16 -12z" />
    <glyph glyph-name="Imacron" unicode="&#x12a;" horiz-adv-x="222" 
d="M101 0v709h20v-709h-20zM-29 874v20h280v-20h-280z" />
    <glyph glyph-name="Iogonek" unicode="&#x12e;" horiz-adv-x="222" 
d="M72 -159q-25 6 -38.5 22t-13.5 39q0 26 18.5 50t62.5 56v701h20v-709q-45 -31 -63 -51.5t-18 -43.5q0 -38 44 -47l-12 -17v0z" />
    <glyph glyph-name="Itilde" unicode="&#x128;" horiz-adv-x="222" 
d="M101 0v709h20v-709h-20zM172 851q-22 0 -38.5 6t-30.5 13t-27.5 13t-28.5 6q-16 0 -26 -6.5t-15.5 -15t-7.5 -16.5t-2 -10h-20q0 2 2 13t9.5 23t22 21.5t39.5 9.5q19 0 34 -6t29 -13t28.5 -13t33.5 -6q21 0 32.5 7t17.5 15.5t7.5 16t1.5 9.5h20q0 -3 -2.5 -14t-10.5 -23
t-24.5 -21t-43.5 -9z" />
    <glyph glyph-name="J.sc" horiz-adv-x="415" 
d="M40 41q47 -30 116 -30q52 0 82.5 17.5t46.5 50t20.5 79.5t4.5 107v274h20v-274q0 -62 -5.5 -112t-23.5 -86t-52.5 -55.5t-92.5 -19.5q-75 0 -126 33z" />
    <glyph glyph-name="Jcircumflex" unicode="&#x134;" horiz-adv-x="480" 
d="M34 49q58 -40 143 -40q64 0 101.5 23.5t57 67t25.5 106.5t6 143v360h20v-360q0 -81 -6.5 -147.5t-28.5 -113.5t-63.5 -73t-111.5 -26q-90 0 -154 44zM276 844l93 74h16l93 -74l-16 -12l-85 63l-85 -63z" />
    <glyph glyph-name="K" unicode="K" horiz-adv-x="623" 
d="M101 0v709h20v-460l452 461h29l-303 -310l317 -400h-26l-306 386l-163 -165v-221h-20z" />
    <glyph glyph-name="K.sc" horiz-adv-x="536" 
d="M92 0v539h20v-345l366 346h28l-248 -236l259 -304h-25l-248 290l-132 -122v-168h-20z" />
    <glyph glyph-name="Kcommaaccent" unicode="&#x136;" horiz-adv-x="623" 
d="M101 0v709h20v-460l452 461h29l-303 -310l317 -400h-26l-306 386l-163 -165v-221h-20zM293 -127q13 0 13 13v64h20v-62q0 -35 -33 -35v20z" />
    <glyph glyph-name="L" unicode="L" horiz-adv-x="591" 
d="M101 0v710h20v-690h446v-20h-466z" />
    <glyph glyph-name="L.sc" horiz-adv-x="507" 
d="M92 0v540h20v-521h363v-19h-383z" />
    <glyph glyph-name="Lacute" unicode="&#x139;" horiz-adv-x="591" 
d="M101 0v710h20v-690h446v-20h-466zM319 833l-16 12l64 73h34z" />
    <glyph glyph-name="Lcaron" unicode="&#x13d;" horiz-adv-x="591" 
d="M101 0v710h20v-690h446v-20h-466zM358 645l-16 12l64 73h34z" />
    <glyph glyph-name="Lcommaaccent" unicode="&#x13b;" horiz-adv-x="591" 
d="M101 0v710h20v-690h446v-20h-466zM310 -127q13 0 13 13v64h20v-62q0 -35 -33 -35v20z" />
    <glyph glyph-name="Ldot" unicode="&#x13f;" horiz-adv-x="591" 
d="M101 0v710h20v-690h446v-20h-466zM368 360v83h20v-83h-20z" />
    <glyph glyph-name="periodcentered" unicode="&#xb7;" horiz-adv-x="164" 
d="M72 250v83h20v-83h-20z" />
    <glyph glyph-name="Lslash" unicode="&#x141;" horiz-adv-x="597" 
d="M107 0v284l-63 -63l-14 15l77 77v397h20v-377l188 188l14 -15l-202 -202v-284h446v-20h-466z" />
    <glyph glyph-name="M" unicode="M" horiz-adv-x="888" 
d="M767 0v666l-315 -526h-16l-315 526v-666h-20v710h16l327 -546l327 546h16v-710h-20z" />
    <glyph glyph-name="M.sc" horiz-adv-x="747" 
d="M635 0v498l-254 -392h-15l-254 392v-498h-20v540h17l265 -409l264 409h17v-540h-20z" />
    <glyph glyph-name="N" unicode="N" horiz-adv-x="780" 
d="M121 671v-671h-20v710h15l543 -681v680h20v-709h-23z" />
    <glyph glyph-name="N.sc" horiz-adv-x="659" 
d="M112 501v-501h-20v540h15l440 -509v508h20v-539h-22z" />
    <glyph glyph-name="NULL" horiz-adv-x="0" 
 />
    <glyph glyph-name="NULL" horiz-adv-x="0" 
 />
    <glyph glyph-name="Nacute" unicode="&#x143;" horiz-adv-x="780" 
d="M121 671v-671h-20v710h15l543 -681v680h20v-709h-23zM381 833l-16 12l64 73h34z" />
    <glyph glyph-name="Ncaron" unicode="&#x147;" horiz-adv-x="780" 
d="M121 671v-671h-20v710h15l543 -681v680h20v-709h-23zM310 918l85 -63l85 63l16 -12l-93 -74h-16l-93 74z" />
    <glyph glyph-name="Ncommaaccent" unicode="&#x145;" horiz-adv-x="780" 
d="M121 671v-671h-20v710h15l543 -681v680h20v-709h-23zM373 -127q13 0 13 13v64h20v-62q0 -35 -33 -35v20z" />
    <glyph glyph-name="Ndotaccent" unicode="&#x1e44;" horiz-adv-x="780" 
d="M121 671v-671h-20v710h15l543 -681v680h20v-709h-23zM385 841v77h20v-77h-20z" />
    <glyph glyph-name="Ntilde" unicode="&#xd1;" horiz-adv-x="780" 
d="M121 671v-671h-20v710h15l543 -681v680h20v-709h-23zM456 851q-22 0 -38.5 6t-30.5 13t-27.5 13t-28.5 6q-16 0 -26 -6.5t-15.5 -15t-7.5 -16.5t-2 -10h-20q0 2 2 13t9.5 23t22 21.5t39.5 9.5q19 0 34 -6t29 -13t28.5 -13t33.5 -6q21 0 32.5 7t17.5 15.5t7.5 16t1.5 9.5
h20q0 -3 -2.5 -14t-10.5 -23t-24.5 -21t-43.5 -9z" />
    <glyph glyph-name="O" unicode="O" 
d="M384 -5q-74 0 -134.5 31t-104.5 81t-68 115t-24 133q0 71 25.5 136t70 115t105 79.5t130.5 29.5q73 0 134 -31.5t104.5 -82.5t67.5 -115.5t24 -130.5q0 -72 -25.5 -137t-70 -114.5t-104.5 -79t-130 -29.5zM73 355q0 -66 23.5 -127.5t64.5 -109t98 -75.5t125 -28
q69 0 126.5 29.5t98 77.5t63 109t22.5 124q0 66 -23.5 127.5t-65.5 109t-98.5 75.5t-122.5 28q-69 0 -126.5 -29.5t-98.5 -77.5t-63.5 -109t-22.5 -124z" />
    <glyph glyph-name="O.sc" horiz-adv-x="648" 
d="M325 -4q-60 0 -110 23.5t-86 61.5t-56 87.5t-20 101.5q0 54 21 103t57.5 87t86 60.5t107.5 22.5q60 0 110 -24t85.5 -62.5t55 -87.5t19.5 -99q0 -54 -20.5 -104t-57 -87.5t-86 -60t-106.5 -22.5zM73 270q0 -50 19 -95.5t52.5 -81t79.5 -56.5t101 -21q56 0 102 22t79 58
t51 81.5t18 92.5q0 49 -19 95t-52.5 81.5t-79.5 56.5t-99 21q-56 0 -102.5 -22t-79.5 -58t-51.5 -81.5t-18.5 -92.5z" />
    <glyph glyph-name="OE" unicode="&#x152;" horiz-adv-x="1212" 
d="M1160 20v-20h-466v234q-17 -50 -47 -94t-70 -76t-88.5 -50.5t-102.5 -18.5q-74 0 -135 30.5t-105 81t-68.5 115.5t-24.5 133q0 71 25.5 136t70 115t105 79.5t130.5 29.5q57 0 106 -19t89 -52t69 -76.5t46 -92.5v235h457v-20h-437v-317h383v-20h-383v-333h446zM384 15
q69 0 126.5 29.5t98 77.5t63 109.5t22.5 124.5q0 66 -23.5 127t-65.5 108.5t-98.5 75.5t-122.5 28q-69 0 -126.5 -29.5t-98.5 -77.5t-63.5 -109t-22.5 -124q0 -66 23.5 -127.5t64.5 -109t98 -75.5t125 -28z" />
    <glyph glyph-name="Oacute" unicode="&#xd3;" 
d="M384 -5q-74 0 -134.5 31t-104.5 81t-68 115t-24 133q0 71 25.5 136t70 115t105 79.5t130.5 29.5q73 0 134 -31.5t104.5 -82.5t67.5 -115.5t24 -130.5q0 -72 -25.5 -137t-70 -114.5t-104.5 -79t-130 -29.5zM73 355q0 -66 23.5 -127.5t64.5 -109t98 -75.5t125 -28
q69 0 126.5 29.5t98 77.5t63 109t22.5 124q0 66 -23.5 127.5t-65.5 109t-98.5 75.5t-122.5 28q-69 0 -126.5 -29.5t-98.5 -77.5t-63.5 -109t-22.5 -124zM370 833l-16 12l64 73h34z" />
    <glyph glyph-name="Obreve" unicode="&#x14e;" 
d="M384 -5q-74 0 -134.5 31t-104.5 81t-68 115t-24 133q0 71 25.5 136t70 115t105 79.5t130.5 29.5q73 0 134 -31.5t104.5 -82.5t67.5 -115.5t24 -130.5q0 -72 -25.5 -137t-70 -114.5t-104.5 -79t-130 -29.5zM73 355q0 -66 23.5 -127.5t64.5 -109t98 -75.5t125 -28
q69 0 126.5 29.5t98 77.5t63 109t22.5 124q0 66 -23.5 127.5t-65.5 109t-98.5 75.5t-122.5 28q-69 0 -126.5 -29.5t-98.5 -77.5t-63.5 -109t-22.5 -124zM384 858q20 0 36.5 17.5t19.5 42.5h18q0 -15 -6 -29t-16.5 -24.5t-23.5 -17t-28 -6.5t-28 6.5t-23.5 17t-16.5 24.5
t-6 29h19q0 -23 17 -41.5t38 -18.5z" />
    <glyph glyph-name="Ocircumflex" unicode="&#xd4;" 
d="M384 -5q-74 0 -134.5 31t-104.5 81t-68 115t-24 133q0 71 25.5 136t70 115t105 79.5t130.5 29.5q73 0 134 -31.5t104.5 -82.5t67.5 -115.5t24 -130.5q0 -72 -25.5 -137t-70 -114.5t-104.5 -79t-130 -29.5zM73 355q0 -66 23.5 -127.5t64.5 -109t98 -75.5t125 -28
q69 0 126.5 29.5t98 77.5t63 109t22.5 124q0 66 -23.5 127.5t-65.5 109t-98.5 75.5t-122.5 28q-69 0 -126.5 -29.5t-98.5 -77.5t-63.5 -109t-22.5 -124zM283 844l93 74h16l93 -74l-16 -12l-85 63l-85 -63z" />
    <glyph glyph-name="Odieresis" unicode="&#xd6;" 
d="M384 -5q-74 0 -134.5 31t-104.5 81t-68 115t-24 133q0 71 25.5 136t70 115t105 79.5t130.5 29.5q73 0 134 -31.5t104.5 -82.5t67.5 -115.5t24 -130.5q0 -72 -25.5 -137t-70 -114.5t-104.5 -79t-130 -29.5zM73 355q0 -66 23.5 -127.5t64.5 -109t98 -75.5t125 -28
q69 0 126.5 29.5t98 77.5t63 109t22.5 124q0 66 -23.5 127.5t-65.5 109t-98.5 75.5t-122.5 28q-69 0 -126.5 -29.5t-98.5 -77.5t-63.5 -109t-22.5 -124zM316 841v77h20v-77h-20zM432 841v77h20v-77h-20z" />
    <glyph glyph-name="Ograve" unicode="&#xd2;" 
d="M384 -5q-74 0 -134.5 31t-104.5 81t-68 115t-24 133q0 71 25.5 136t70 115t105 79.5t130.5 29.5q73 0 134 -31.5t104.5 -82.5t67.5 -115.5t24 -130.5q0 -72 -25.5 -137t-70 -114.5t-104.5 -79t-130 -29.5zM73 355q0 -66 23.5 -127.5t64.5 -109t98 -75.5t125 -28
q69 0 126.5 29.5t98 77.5t63 109t22.5 124q0 66 -23.5 127.5t-65.5 109t-98.5 75.5t-122.5 28q-69 0 -126.5 -29.5t-98.5 -77.5t-63.5 -109t-22.5 -124zM316 918h33l65 -73l-16 -12z" />
    <glyph glyph-name="Ohungarumlaut" unicode="&#x150;" 
d="M384 -5q-74 0 -134.5 31t-104.5 81t-68 115t-24 133q0 71 25.5 136t70 115t105 79.5t130.5 29.5q73 0 134 -31.5t104.5 -82.5t67.5 -115.5t24 -130.5q0 -72 -25.5 -137t-70 -114.5t-104.5 -79t-130 -29.5zM73 355q0 -66 23.5 -127.5t64.5 -109t98 -75.5t125 -28
q69 0 126.5 29.5t98 77.5t63 109t22.5 124q0 66 -23.5 127.5t-65.5 109t-98.5 75.5t-122.5 28q-69 0 -126.5 -29.5t-98.5 -77.5t-63.5 -109t-22.5 -124zM320 833l-16 12l64 73h34zM420 833l-16 12l64 73h34z" />
    <glyph glyph-name="hungarumlaut" unicode="&#x2dd;" horiz-adv-x="298" 
d="M66 645l-16 12l64 73h34zM166 645l-16 12l64 73h34z" />
    <glyph glyph-name="Omacron" unicode="&#x14c;" 
d="M384 -5q-74 0 -134.5 31t-104.5 81t-68 115t-24 133q0 71 25.5 136t70 115t105 79.5t130.5 29.5q73 0 134 -31.5t104.5 -82.5t67.5 -115.5t24 -130.5q0 -72 -25.5 -137t-70 -114.5t-104.5 -79t-130 -29.5zM73 355q0 -66 23.5 -127.5t64.5 -109t98 -75.5t125 -28
q69 0 126.5 29.5t98 77.5t63 109t22.5 124q0 66 -23.5 127.5t-65.5 109t-98.5 75.5t-122.5 28q-69 0 -126.5 -29.5t-98.5 -77.5t-63.5 -109t-22.5 -124zM244 874v20h280v-20h-280z" />
    <glyph glyph-name="Oogonek" unicode="&#x1ea;" 
d="M349 -163q-25 6 -38.5 22t-13.5 39t16 46t54 52q-70 4 -128 35.5t-99 81.5t-64 113t-23 129q0 71 25.5 136t70 115t105 79.5t130.5 29.5q73 0 134 -31.5t104.5 -82.5t67.5 -115.5t24 -130.5q0 -70 -24.5 -134t-67 -113t-100.5 -79t-125 -33q-45 -31 -62.5 -51.5
t-17.5 -43.5q0 -38 44 -47zM73 355q0 -66 23.5 -127.5t64.5 -109t98 -75.5t125 -28q69 0 126.5 29.5t98 77.5t63 109t22.5 124q0 66 -23.5 127.5t-65.5 109t-98.5 75.5t-122.5 28q-69 0 -126.5 -29.5t-98.5 -77.5t-63.5 -109t-22.5 -124z" />
    <glyph glyph-name="Oslash" unicode="&#xd8;" 
d="M624 710l-43 -68q31 -26 55.5 -59t42 -70t26.5 -77.5t9 -80.5q0 -72 -25.5 -137t-70 -114.5t-104.5 -79t-130 -29.5q-52 0 -98 16t-83 43l-35 -54h-25l43 67q-63 51 -98 127.5t-35 160.5q0 71 25.5 136t70 115t105 79.5t130.5 29.5q51 0 96 -15.5t83 -43.5l35 54h26z
M694 355q0 79 -33.5 150.5t-90.5 119.5l-357 -554q36 -26 79 -41t92 -15q69 0 126.5 29.5t98 77.5t63 109t22.5 124zM73 355q0 -80 33 -151.5t90 -119.5l356 555q-36 26 -78 41t-90 15q-69 0 -126.5 -29.5t-98.5 -77.5t-63.5 -109t-22.5 -124z" />
    <glyph glyph-name="slash" unicode="/" horiz-adv-x="539" 
d="M511 710l-456 -710h-25l455 710h26z" />
    <glyph glyph-name="Oslashacute" unicode="&#x1fe;" 
d="M624 710l-43 -68q31 -26 55.5 -59t42 -70t26.5 -77.5t9 -80.5q0 -72 -25.5 -137t-70 -114.5t-104.5 -79t-130 -29.5q-52 0 -98 16t-83 43l-35 -54h-25l43 67q-63 51 -98 127.5t-35 160.5q0 71 25.5 136t70 115t105 79.5t130.5 29.5q51 0 96 -15.5t83 -43.5l35 54h26z
M694 355q0 79 -33.5 150.5t-90.5 119.5l-357 -554q36 -26 79 -41t92 -15q69 0 126.5 29.5t98 77.5t63 109t22.5 124zM73 355q0 -80 33 -151.5t90 -119.5l356 555q-36 26 -78 41t-90 15q-69 0 -126.5 -29.5t-98.5 -77.5t-63.5 -109t-22.5 -124zM370 833l-16 12l64 73h34z" />
    <glyph glyph-name="Otilde" unicode="&#xd5;" 
d="M384 -5q-74 0 -134.5 31t-104.5 81t-68 115t-24 133q0 71 25.5 136t70 115t105 79.5t130.5 29.5q73 0 134 -31.5t104.5 -82.5t67.5 -115.5t24 -130.5q0 -72 -25.5 -137t-70 -114.5t-104.5 -79t-130 -29.5zM73 355q0 -66 23.5 -127.5t64.5 -109t98 -75.5t125 -28
q69 0 126.5 29.5t98 77.5t63 109t22.5 124q0 66 -23.5 127.5t-65.5 109t-98.5 75.5t-122.5 28q-69 0 -126.5 -29.5t-98.5 -77.5t-63.5 -109t-22.5 -124zM445 851q-22 0 -38.5 6t-30.5 13t-27.5 13t-28.5 6q-16 0 -26 -6.5t-15.5 -15t-7.5 -16.5t-2 -10h-20q0 2 2 13t9.5 23
t22 21.5t39.5 9.5q19 0 34 -6t29 -13t28.5 -13t33.5 -6q21 0 32.5 7t17.5 15.5t7.5 16t1.5 9.5h20q0 -3 -2.5 -14t-10.5 -23t-24.5 -21t-43.5 -9z" />
    <glyph glyph-name="P" unicode="P" horiz-adv-x="622" 
d="M101 0v710h289q43 0 80 -18.5t63.5 -49t41.5 -69t15 -78.5q0 -42 -14 -81t-39.5 -69t-61 -48t-78.5 -18h-276v-279h-20zM121 299h276q40 0 72.5 17t54.5 45t34 63t12 71q0 38 -14 73t-38.5 62t-57.5 43.5t-70 16.5h-269v-391z" />
    <glyph glyph-name="P.sc" horiz-adv-x="531" 
d="M92 0v540h237q36 0 66.5 -14.5t52 -37.5t34 -53t12.5 -60q0 -32 -11.5 -61.5t-32.5 -52.5t-50 -37t-65 -14h-223v-210h-20zM112 230h223q33 0 58.5 12.5t43.5 33t27.5 46.5t9.5 53q0 28 -11.5 54t-31 46.5t-46 32.5t-56.5 12h-217v-290z" />
    <glyph glyph-name="Q" unicode="Q" 
d="M591 76q-42 -38 -94.5 -59.5t-112.5 -21.5q-74 0 -134.5 31t-104.5 81t-68 115t-24 133q0 71 25.5 136t70 115t105 79.5t130.5 29.5q73 0 134 -31.5t104.5 -82.5t67.5 -115.5t24 -130.5q0 -78 -29 -146.5t-80 -119.5l72 -89h-25zM384 15q58 0 107 21t88 56l-75 94h25
l64 -81q48 50 74.5 115.5t26.5 134.5q0 66 -23.5 127.5t-65.5 109t-98.5 75.5t-122.5 28q-69 0 -126.5 -29.5t-98.5 -77.5t-63.5 -109t-22.5 -124q0 -66 23.5 -127.5t64.5 -109t98 -75.5t125 -28z" />
    <glyph glyph-name="Q.sc" horiz-adv-x="648" 
d="M494 57q-35 -29 -77.5 -45t-91.5 -16q-60 0 -110 23.5t-86 61.5t-56 87.5t-20 101.5q0 54 21 103t57.5 87t86 60.5t107.5 22.5q60 0 110 -24t85.5 -62.5t55 -87.5t19.5 -99q0 -58 -23 -110.5t-64 -90.5l59 -69h-24zM325 16q46 0 85.5 15t70.5 41l-62 73h24l52 -61
q38 37 59 86t21 100q0 49 -19 95t-52.5 81.5t-79.5 56.5t-99 21q-56 0 -102.5 -22t-79.5 -58t-51.5 -81.5t-18.5 -92.5q0 -50 19 -95.5t52.5 -81t79.5 -56.5t101 -21z" />
    <glyph glyph-name="R" unicode="R" horiz-adv-x="649" 
d="M101 0v710h289q43 0 80 -18.5t63.5 -49t41.5 -69t15 -78.5q0 -41 -13 -79t-37 -67.5t-57.5 -48t-73.5 -21.5l180 -279h-24l-180 279h-264v-279h-20zM121 299h276q40 0 72 17t54.5 44.5t34.5 62.5t12 72q0 38 -14 73t-38.5 62t-57.5 43.5t-70 16.5h-269v-391z" />
    <glyph glyph-name="R.sc" horiz-adv-x="553" 
d="M92 0v540h238q36 0 66 -14.5t52 -37.5t34.5 -53t12.5 -60q0 -31 -10.5 -59t-30 -50.5t-46.5 -36.5t-60 -17l147 -212h-24l-146 210h-213v-210h-20zM112 230h223q32 0 57.5 12.5t43.5 32.5t28 46.5t10 53.5q0 28 -11 54t-30.5 46.5t-46 32.5t-57.5 12h-217v-290z" />
    <glyph glyph-name="Racute" unicode="&#x154;" horiz-adv-x="649" 
d="M101 0v710h289q43 0 80 -18.5t63.5 -49t41.5 -69t15 -78.5q0 -41 -13 -79t-37 -67.5t-57.5 -48t-73.5 -21.5l180 -279h-24l-180 279h-264v-279h-20zM121 299h276q40 0 72 17t54.5 44.5t34.5 62.5t12 72q0 38 -14 73t-38.5 62t-57.5 43.5t-70 16.5h-269v-391zM304 836
l-16 12l64 73h34z" />
    <glyph glyph-name="Rcaron" unicode="&#x158;" horiz-adv-x="649" 
d="M101 0v710h289q43 0 80 -18.5t63.5 -49t41.5 -69t15 -78.5q0 -41 -13 -79t-37 -67.5t-57.5 -48t-73.5 -21.5l180 -279h-24l-180 279h-264v-279h-20zM121 299h276q40 0 72 17t54.5 44.5t34.5 62.5t12 72q0 38 -14 73t-38.5 62t-57.5 43.5t-70 16.5h-269v-391zM233 921
l85 -63l85 63l16 -12l-93 -74h-16l-93 74z" />
    <glyph glyph-name="Rcommaaccent" unicode="&#x156;" horiz-adv-x="649" 
d="M101 0v710h289q43 0 80 -18.5t63.5 -49t41.5 -69t15 -78.5q0 -41 -13 -79t-37 -67.5t-57.5 -48t-73.5 -21.5l180 -279h-24l-180 279h-264v-279h-20zM121 299h276q40 0 72 17t54.5 44.5t34.5 62.5t12 72q0 38 -14 73t-38.5 62t-57.5 43.5t-70 16.5h-269v-391zM295 -127
q13 0 13 13v64h20v-62q0 -35 -33 -35v20z" />
    <glyph glyph-name="S" unicode="S" horiz-adv-x="610" 
d="M513 616q-42 46 -87.5 63t-108.5 17q-61 0 -104.5 -12t-71.5 -34.5t-41 -53.5t-13 -70q0 -38 13 -63.5t40 -43t69.5 -30t101.5 -24.5t107 -26t81.5 -35t51.5 -52t18 -78q0 -87 -66.5 -133t-183.5 -46q-86 0 -152.5 26.5t-123.5 83.5l15 13q54 -56 117.5 -81t144.5 -25
q106 0 167.5 39.5t61.5 119.5q0 40 -14 67.5t-43 47.5t-74 34t-106 26q-59 11 -104.5 23.5t-77 32t-47.5 49t-16 73.5q0 46 17.5 81.5t50 60t78 37t102.5 12.5q68 0 118.5 -19.5t92.5 -65.5z" />
    <glyph glyph-name="S.sc" horiz-adv-x="525" 
d="M433 464q-34 35 -71.5 48t-89.5 13q-98 0 -141.5 -34t-43.5 -92q0 -28 10.5 -47t32.5 -32t56.5 -22.5t82.5 -18.5t87 -19.5t66.5 -26.5t42 -40t14.5 -60q0 -67 -54.5 -102t-150.5 -35q-70 0 -124.5 20.5t-102.5 62.5l14 14q43 -41 95 -60.5t119 -19.5q83 0 133.5 29
t50.5 89q0 29 -11.5 49.5t-35 35.5t-60 25.5t-86.5 19.5q-48 9 -85.5 18.5t-62.5 25t-38 38t-13 56.5q0 70 55.5 107t148.5 37q56 0 97.5 -14.5t76.5 -49.5z" />
    <glyph glyph-name="Sacute" unicode="&#x15a;" horiz-adv-x="610" 
d="M513 616q-42 46 -87.5 63t-108.5 17q-61 0 -104.5 -12t-71.5 -34.5t-41 -53.5t-13 -70q0 -38 13 -63.5t40 -43t69.5 -30t101.5 -24.5t107 -26t81.5 -35t51.5 -52t18 -78q0 -87 -66.5 -133t-183.5 -46q-86 0 -152.5 26.5t-123.5 83.5l15 13q54 -56 117.5 -81t144.5 -25
q106 0 167.5 39.5t61.5 119.5q0 40 -14 67.5t-43 47.5t-74 34t-106 26q-59 11 -104.5 23.5t-77 32t-47.5 49t-16 73.5q0 46 17.5 81.5t50 60t78 37t102.5 12.5q68 0 118.5 -19.5t92.5 -65.5zM298 855l-16 12l64 73h34z" />
    <glyph glyph-name="Scaron" unicode="&#x160;" horiz-adv-x="610" 
d="M513 616q-42 46 -87.5 63t-108.5 17q-61 0 -104.5 -12t-71.5 -34.5t-41 -53.5t-13 -70q0 -38 13 -63.5t40 -43t69.5 -30t101.5 -24.5t107 -26t81.5 -35t51.5 -52t18 -78q0 -87 -66.5 -133t-183.5 -46q-86 0 -152.5 26.5t-123.5 83.5l15 13q54 -56 117.5 -81t144.5 -25
q106 0 167.5 39.5t61.5 119.5q0 40 -14 67.5t-43 47.5t-74 34t-106 26q-59 11 -104.5 23.5t-77 32t-47.5 49t-16 73.5q0 46 17.5 81.5t50 60t78 37t102.5 12.5q68 0 118.5 -19.5t92.5 -65.5zM227 940l85 -63l85 63l16 -12l-93 -74h-16l-93 74z" />
    <glyph glyph-name="Scircumflex" unicode="&#x15c;" horiz-adv-x="610" 
d="M513 616q-42 46 -87.5 63t-108.5 17q-61 0 -104.5 -12t-71.5 -34.5t-41 -53.5t-13 -70q0 -38 13 -63.5t40 -43t69.5 -30t101.5 -24.5t107 -26t81.5 -35t51.5 -52t18 -78q0 -87 -66.5 -133t-183.5 -46q-86 0 -152.5 26.5t-123.5 83.5l15 13q54 -56 117.5 -81t144.5 -25
q106 0 167.5 39.5t61.5 119.5q0 40 -14 67.5t-43 47.5t-74 34t-106 26q-59 11 -104.5 23.5t-77 32t-47.5 49t-16 73.5q0 46 17.5 81.5t50 60t78 37t102.5 12.5q68 0 118.5 -19.5t92.5 -65.5zM211 866l93 74h16l93 -74l-16 -12l-85 63l-85 -63z" />
    <glyph glyph-name="T" unicode="T" horiz-adv-x="610" 
d="M587 690h-272v-690h-20v690h-272v20h564v-20z" />
    <glyph glyph-name="T.sc" horiz-adv-x="524" 
d="M494 520h-221v-520h-20v520h-222v20h463v-20z" />
    <glyph glyph-name="Tbar" unicode="&#x166;" horiz-adv-x="652" 
d="M608 690h-272v-266h242v-20h-242v-404h-20v404h-242v20h242v266h-272v20h564v-20z" />
    <glyph glyph-name="Tcaron" unicode="&#x164;" horiz-adv-x="610" 
d="M587 690h-272v-690h-20v690h-272v20h564v-20zM220 918l85 -63l85 63l16 -12l-93 -74h-16l-93 74z" />
    <glyph glyph-name="Thorn" unicode="&#xde;" horiz-adv-x="606" 
d="M370 560q43 0 80 -18.5t63.5 -49t41.5 -69t15 -78.5q0 -42 -14 -81t-39.5 -69t-61 -48t-78.5 -18h-256v-129h-20v710h20v-150h249zM377 149q40 0 72.5 17t54.5 45t34 63t12 71q0 38 -14 73t-38.5 62t-57.5 43.5t-70 16.5h-249v-391h256z" />
    <glyph glyph-name="U" unicode="U" horiz-adv-x="761" 
d="M380 15q80 0 132.5 30t83 78t43 109t12.5 123v355h20v-355q0 -71 -14.5 -136t-48.5 -114.5t-89.5 -79.5t-137.5 -30q-84 0 -140 31t-89.5 82t-47.5 115.5t-14 131.5v355h20v-355q0 -64 12.5 -125t43.5 -109t83 -77t131 -29z" />
    <glyph glyph-name="U.sc" horiz-adv-x="642" 
d="M320 16q65 0 107.5 22t67.5 58t35 81.5t10 92.5v270h20v-270q0 -54 -12 -103.5t-40 -87.5t-74 -60.5t-113 -22.5q-69 0 -115 23.5t-73.5 62.5t-39 88t-11.5 100v270h20v-270q0 -48 10.5 -93.5t35.5 -81.5t67 -57.5t105 -21.5z" />
    <glyph glyph-name="Uacute" unicode="&#xda;" horiz-adv-x="761" 
d="M380 15q80 0 132.5 30t83 78t43 109t12.5 123v355h20v-355q0 -71 -14.5 -136t-48.5 -114.5t-89.5 -79.5t-137.5 -30q-84 0 -140 31t-89.5 82t-47.5 115.5t-14 131.5v355h20v-355q0 -64 12.5 -125t43.5 -109t83 -77t131 -29zM367 833l-16 12l64 73h34z" />
    <glyph glyph-name="Ubreve" unicode="&#x16c;" horiz-adv-x="761" 
d="M380 15q80 0 132.5 30t83 78t43 109t12.5 123v355h20v-355q0 -71 -14.5 -136t-48.5 -114.5t-89.5 -79.5t-137.5 -30q-84 0 -140 31t-89.5 82t-47.5 115.5t-14 131.5v355h20v-355q0 -64 12.5 -125t43.5 -109t83 -77t131 -29zM381 858q20 0 36.5 17.5t19.5 42.5h18
q0 -15 -6 -29t-16.5 -24.5t-23.5 -17t-28 -6.5t-28 6.5t-23.5 17t-16.5 24.5t-6 29h19q0 -23 17 -41.5t38 -18.5z" />
    <glyph glyph-name="Ucircumflex" unicode="&#xdb;" horiz-adv-x="761" 
d="M380 15q80 0 132.5 30t83 78t43 109t12.5 123v355h20v-355q0 -71 -14.5 -136t-48.5 -114.5t-89.5 -79.5t-137.5 -30q-84 0 -140 31t-89.5 82t-47.5 115.5t-14 131.5v355h20v-355q0 -64 12.5 -125t43.5 -109t83 -77t131 -29zM280 844l93 74h16l93 -74l-16 -12l-85 63
l-85 -63z" />
    <glyph glyph-name="Udieresis" unicode="&#xdc;" horiz-adv-x="761" 
d="M380 15q80 0 132.5 30t83 78t43 109t12.5 123v355h20v-355q0 -71 -14.5 -136t-48.5 -114.5t-89.5 -79.5t-137.5 -30q-84 0 -140 31t-89.5 82t-47.5 115.5t-14 131.5v355h20v-355q0 -64 12.5 -125t43.5 -109t83 -77t131 -29zM313 841v77h20v-77h-20zM429 841v77h20v-77
h-20z" />
    <glyph glyph-name="Ugrave" unicode="&#xd9;" horiz-adv-x="761" 
d="M380 15q80 0 132.5 30t83 78t43 109t12.5 123v355h20v-355q0 -71 -14.5 -136t-48.5 -114.5t-89.5 -79.5t-137.5 -30q-84 0 -140 31t-89.5 82t-47.5 115.5t-14 131.5v355h20v-355q0 -64 12.5 -125t43.5 -109t83 -77t131 -29zM313 918h33l65 -73l-16 -12z" />
    <glyph glyph-name="Uhungarumlaut" unicode="&#x170;" horiz-adv-x="761" 
d="M380 15q80 0 132.5 30t83 78t43 109t12.5 123v355h20v-355q0 -71 -14.5 -136t-48.5 -114.5t-89.5 -79.5t-137.5 -30q-84 0 -140 31t-89.5 82t-47.5 115.5t-14 131.5v355h20v-355q0 -64 12.5 -125t43.5 -109t83 -77t131 -29zM317 833l-16 12l64 73h34zM417 833l-16 12
l64 73h34z" />
    <glyph glyph-name="Umacron" unicode="&#x16a;" horiz-adv-x="761" 
d="M380 15q80 0 132.5 30t83 78t43 109t12.5 123v355h20v-355q0 -71 -14.5 -136t-48.5 -114.5t-89.5 -79.5t-137.5 -30q-84 0 -140 31t-89.5 82t-47.5 115.5t-14 131.5v355h20v-355q0 -64 12.5 -125t43.5 -109t83 -77t131 -29zM241 874v20h280v-20h-280z" />
    <glyph glyph-name="Uogonek" unicode="&#x172;" horiz-adv-x="761" 
d="M345 -163q-25 6 -38.5 22t-13.5 39t16 46t54 52q-79 3 -131.5 35.5t-84 82.5t-44.5 113t-13 128v355h20v-355q0 -64 12.5 -125t43.5 -109t83 -77t131 -29q80 0 132.5 30t83 78t43 109t12.5 123v355h20v-355q0 -69 -14 -133t-47 -113.5t-86 -80t-131 -32.5
q-45 -31 -62.5 -51.5t-17.5 -43.5q0 -38 44 -47l-12 -17v0z" />
    <glyph glyph-name="Uring" unicode="&#x16e;" horiz-adv-x="761" 
d="M380 15q80 0 132.5 30t83 78t43 109t12.5 123v355h20v-355q0 -71 -14.5 -136t-48.5 -114.5t-89.5 -79.5t-137.5 -30q-84 0 -140 31t-89.5 82t-47.5 115.5t-14 131.5v355h20v-355q0 -64 12.5 -125t43.5 -109t83 -77t131 -29zM324 861q0 24 16.5 40.5t40.5 16.5t40.5 -16.5
t16.5 -40.5t-16.5 -40.5t-40.5 -16.5t-40.5 16.5t-16.5 40.5zM381 902q-17 0 -29 -11t-12 -30q0 -17 12 -29t29 -12q15 0 28 11.5t13 29.5q0 19 -12 30t-29 11z" />
    <glyph glyph-name="Utilde" unicode="&#x168;" horiz-adv-x="761" 
d="M380 15q80 0 132.5 30t83 78t43 109t12.5 123v355h20v-355q0 -71 -14.5 -136t-48.5 -114.5t-89.5 -79.5t-137.5 -30q-84 0 -140 31t-89.5 82t-47.5 115.5t-14 131.5v355h20v-355q0 -64 12.5 -125t43.5 -109t83 -77t131 -29zM442 851q-22 0 -38.5 6t-30.5 13t-27.5 13
t-28.5 6q-16 0 -26 -6.5t-15.5 -15t-7.5 -16.5t-2 -10h-20q0 2 2 13t9.5 23t22 21.5t39.5 9.5q19 0 34 -6t29 -13t28.5 -13t33.5 -6q21 0 32.5 7t17.5 15.5t7.5 16t1.5 9.5h20q0 -3 -2.5 -14t-10.5 -23t-24.5 -21t-43.5 -9z" />
    <glyph glyph-name="V" unicode="V" horiz-adv-x="680" 
d="M41 710l299 -685l298 685h22l-309 -710h-22l-309 710h21z" />
    <glyph glyph-name="V.sc" horiz-adv-x="582" 
d="M49 540l242 -514l241 514h22l-253 -540h-21l-252 540h21z" />
    <glyph glyph-name="W" unicode="W" horiz-adv-x="1040" 
d="M382 704h22l115 -266l116 266h22l-127 -290l170 -389l298 685h22l-309 -710h-22l-169 389l-169 -389h-22l-309 710h22l298 -685l169 389z" />
    <glyph glyph-name="W.alt" horiz-adv-x="1027" 
d="M998 710l-229 -710h-22l-238 678l-229 -678h-22l-229 710h21l219 -685l228 685h22l239 -685l218 685h22z" />
    <glyph glyph-name="W.sc" horiz-adv-x="878" 
d="M324 535h21l93 -201l94 201h21l-104 -222l137 -288l242 515h22l-253 -540h-21l-137 292l-137 -292h-21l-253 540h22l242 -515l135 288z" />
    <glyph glyph-name="Wacute" unicode="&#x1e82;" horiz-adv-x="1040" 
d="M382 704h22l115 -266l116 266h22l-127 -290l170 -389l298 685h22l-309 -710h-22l-169 389l-169 -389h-22l-309 710h22l298 -685l169 389zM505 833l-16 12l64 73h34z" />
    <glyph glyph-name="Wcircumflex" unicode="&#x174;" horiz-adv-x="1040" 
d="M382 704h22l115 -266l116 266h22l-127 -290l170 -389l298 685h22l-309 -710h-22l-169 389l-169 -389h-22l-309 710h22l298 -685l169 389zM418 844l93 74h16l93 -74l-16 -12l-85 63l-85 -63z" />
    <glyph glyph-name="Wdieresis" unicode="&#x1e84;" horiz-adv-x="1040" 
d="M382 704h22l115 -266l116 266h22l-127 -290l170 -389l298 685h22l-309 -710h-22l-169 389l-169 -389h-22l-309 710h22l298 -685l169 389zM451 841v77h20v-77h-20zM567 841v77h20v-77h-20z" />
    <glyph glyph-name="Wgrave" unicode="&#x1e80;" horiz-adv-x="1040" 
d="M382 704h22l115 -266l116 266h22l-127 -290l170 -389l298 685h22l-309 -710h-22l-169 389l-169 -389h-22l-309 710h22l298 -685l169 389zM451 918h33l65 -73l-16 -12z" />
    <glyph glyph-name="X" unicode="X" horiz-adv-x="621" 
d="M37 710l274 -344l274 344h25l-287 -360l279 -350h-25l-266 334l-266 -334h-26l279 350l-287 360h26z" />
    <glyph glyph-name="X.sc" horiz-adv-x="535" 
d="M46 540l222 -258l221 258h25l-234 -274l227 -266h-24l-215 250l-215 -250h-25l227 266l-234 274h25z" />
    <glyph glyph-name="Y" unicode="Y" horiz-adv-x="627" 
d="M39 710l274 -412l275 412h23l-288 -435v-275h-20v277l-287 433h23z" />
    <glyph glyph-name="Y.sc" horiz-adv-x="537" 
d="M47 540l221 -311l223 311h23l-236 -332v-208h-20v209l-234 331h23z" />
    <glyph glyph-name="Yacute" unicode="&#xdd;" horiz-adv-x="627" 
d="M39 710l274 -412l275 412h23l-288 -435v-275h-20v277l-287 433h23zM299 833l-16 12l64 73h34z" />
    <glyph glyph-name="Ycircumflex" unicode="&#x176;" horiz-adv-x="627" 
d="M39 710l274 -412l275 412h23l-288 -435v-275h-20v277l-287 433h23zM212 844l93 74h16l93 -74l-16 -12l-85 63l-85 -63z" />
    <glyph glyph-name="Ydieresis" unicode="&#x178;" horiz-adv-x="627" 
d="M39 710l274 -412l275 412h23l-288 -435v-275h-20v277l-287 433h23zM245 841v77h20v-77h-20zM361 841v77h20v-77h-20z" />
    <glyph glyph-name="Ygrave" unicode="&#x1ef2;" horiz-adv-x="627" 
d="M39 710l274 -412l275 412h23l-288 -435v-275h-20v277l-287 433h23zM245 918h33l65 -73l-16 -12z" />
    <glyph glyph-name="Ytilde" unicode="&#x1ef8;" horiz-adv-x="627" 
d="M39 710l274 -412l275 412h23l-288 -435v-275h-20v277l-287 433h23zM374 851q-22 0 -38.5 6t-30.5 13t-27.5 13t-28.5 6q-16 0 -26 -6.5t-15.5 -15t-7.5 -16.5t-2 -10h-20q0 2 2 13t9.5 23t22 21.5t39.5 9.5q19 0 34 -6t29 -13t28.5 -13t33.5 -6q21 0 32.5 7t17.5 15.5
t7.5 16t1.5 9.5h20q0 -3 -2.5 -14t-10.5 -23t-24.5 -21t-43.5 -9z" />
    <glyph glyph-name="Z" unicode="Z" horiz-adv-x="625" 
d="M29 20l542 670h-537v20h562v-20l-542 -670h538v-20h-563v20z" />
    <glyph glyph-name="Z.sc" horiz-adv-x="541" 
d="M38 19l440 501h-436v20h461v-19l-440 -502h437v-19h-462v19z" />
    <glyph glyph-name="Zacute" unicode="&#x179;" horiz-adv-x="625" 
d="M29 20l542 670h-537v20h562v-20l-542 -670h538v-20h-563v20zM317 833l-16 12l64 73h34z" />
    <glyph glyph-name="Zcaron" unicode="&#x17d;" horiz-adv-x="625" 
d="M29 20l542 670h-537v20h562v-20l-542 -670h538v-20h-563v20zM246 918l85 -63l85 63l16 -12l-93 -74h-16l-93 74z" />
    <glyph glyph-name="Zdotaccent" unicode="&#x17b;" horiz-adv-x="625" 
d="M29 20l542 670h-537v20h562v-20l-542 -670h538v-20h-563v20zM321 841v77h20v-77h-20z" />
    <glyph glyph-name="a" unicode="a" horiz-adv-x="525" 
d="M206 -10q-35 0 -66 12.5t-53.5 34t-35.5 50.5t-13 62t15.5 60t44 46.5t68 30.5t86.5 11q45 0 91 -7.5t83 -21.5v59q0 40 -12 73.5t-34.5 57t-54 36.5t-69.5 13t-81 -16.5t-87 -47.5l-12 16q100 68 180 68q43 0 78.5 -14t60 -40t38 -63t13.5 -83v-287q0 -20 16 -20v-20
q-11 0 -14 2q-10 4 -16 14.5t-6 23.5v48q-36 -47 -94 -72.5t-126 -25.5zM206 10q67 0 122.5 25t82.5 67q15 21 15 41v103q-80 31 -174 31q-44 0 -79.5 -9t-61 -26t-39.5 -40.5t-14 -52.5t11.5 -54.5t31.5 -44.5t47 -29.5t58 -10.5z" />
    <glyph glyph-name="a.alt" horiz-adv-x="607" 
d="M294 -10q-55 0 -100.5 23t-78 60.5t-50.5 85.5t-18 99q0 54 19.5 103t53 86t78.5 58.5t96 21.5q71 0 124.5 -37t85.5 -93v120h20v-517h-20v119q-32 -57 -87 -93t-123 -36zM504 351q-13 33 -34 61.5t-48 49.5t-59.5 33t-68.5 12q-51 0 -93 -22.5t-72 -58t-46 -80
t-16 -88.5q0 -48 17 -93t47 -79.5t71.5 -55t91.5 -20.5q38 0 71 12.5t60 34t47 50t32 60.5v184z" />
    <glyph glyph-name="a.alt2" horiz-adv-x="523" 
d="M426 0v88q-40 -51 -99.5 -74.5t-120.5 -23.5q-35 0 -66 12.5t-53.5 34t-35.5 50.5t-13 62q0 42 21 70.5t52.5 45.5t69 24.5t71.5 7.5q64 0 109 -10.5t65 -18.5v59q0 40 -12 73t-34.5 57t-53.5 37t-70 13q-38 0 -81 -16.5t-87 -47.5l-12 16q41 28 86.5 48t93.5 20
q47 0 82.5 -15.5t59.5 -42.5t36 -63.5t12 -78.5v-327h-20zM411 102q15 22 15 41v103q-43 17 -86.5 24t-87.5 7q-32 0 -66 -6.5t-62.5 -21.5t-47 -39.5t-18.5 -60.5q0 -32 12.5 -57.5t33 -43.5t47 -28t55.5 -10q28 0 58 5.5t57.5 16.5t51 28.5t38.5 41.5z" />
    <glyph glyph-name="aacute" unicode="&#xe1;" horiz-adv-x="525" 
d="M206 -10q-35 0 -66 12.5t-53.5 34t-35.5 50.5t-13 62t15.5 60t44 46.5t68 30.5t86.5 11q45 0 91 -7.5t83 -21.5v59q0 40 -12 73.5t-34.5 57t-54 36.5t-69.5 13t-81 -16.5t-87 -47.5l-12 16q100 68 180 68q43 0 78.5 -14t60 -40t38 -63t13.5 -83v-287q0 -20 16 -20v-20
q-11 0 -14 2q-10 4 -16 14.5t-6 23.5v48q-36 -47 -94 -72.5t-126 -25.5zM206 10q67 0 122.5 25t82.5 67q15 21 15 41v103q-80 31 -174 31q-44 0 -79.5 -9t-61 -26t-39.5 -40.5t-14 -52.5t11.5 -54.5t31.5 -44.5t47 -29.5t58 -10.5zM242 645l-16 12l64 73h34z" />
    <glyph glyph-name="abreve" unicode="&#x103;" horiz-adv-x="525" 
d="M206 -10q-35 0 -66 12.5t-53.5 34t-35.5 50.5t-13 62t15.5 60t44 46.5t68 30.5t86.5 11q45 0 91 -7.5t83 -21.5v59q0 40 -12 73.5t-34.5 57t-54 36.5t-69.5 13t-81 -16.5t-87 -47.5l-12 16q100 68 180 68q43 0 78.5 -14t60 -40t38 -63t13.5 -83v-287q0 -20 16 -20v-20
q-11 0 -14 2q-10 4 -16 14.5t-6 23.5v48q-36 -47 -94 -72.5t-126 -25.5zM206 10q67 0 122.5 25t82.5 67q15 21 15 41v103q-80 31 -174 31q-44 0 -79.5 -9t-61 -26t-39.5 -40.5t-14 -52.5t11.5 -54.5t31.5 -44.5t47 -29.5t58 -10.5zM256 670q20 0 36.5 17.5t19.5 42.5h18
q0 -15 -6 -29t-16.5 -24.5t-23.5 -17t-28 -6.5t-28 6.5t-23.5 17t-16.5 24.5t-6 29h19q0 -23 17 -41.5t38 -18.5z" />
    <glyph glyph-name="acircumflex" unicode="&#xe2;" horiz-adv-x="525" 
d="M206 -10q-35 0 -66 12.5t-53.5 34t-35.5 50.5t-13 62t15.5 60t44 46.5t68 30.5t86.5 11q45 0 91 -7.5t83 -21.5v59q0 40 -12 73.5t-34.5 57t-54 36.5t-69.5 13t-81 -16.5t-87 -47.5l-12 16q100 68 180 68q43 0 78.5 -14t60 -40t38 -63t13.5 -83v-287q0 -20 16 -20v-20
q-11 0 -14 2q-10 4 -16 14.5t-6 23.5v48q-36 -47 -94 -72.5t-126 -25.5zM206 10q67 0 122.5 25t82.5 67q15 21 15 41v103q-80 31 -174 31q-44 0 -79.5 -9t-61 -26t-39.5 -40.5t-14 -52.5t11.5 -54.5t31.5 -44.5t47 -29.5t58 -10.5zM155 656l93 74h16l93 -74l-16 -12l-85 63
l-85 -63z" />
    <glyph glyph-name="adieresis" unicode="&#xe4;" horiz-adv-x="525" 
d="M206 -10q-35 0 -66 12.5t-53.5 34t-35.5 50.5t-13 62t15.5 60t44 46.5t68 30.5t86.5 11q45 0 91 -7.5t83 -21.5v59q0 40 -12 73.5t-34.5 57t-54 36.5t-69.5 13t-81 -16.5t-87 -47.5l-12 16q100 68 180 68q43 0 78.5 -14t60 -40t38 -63t13.5 -83v-287q0 -20 16 -20v-20
q-11 0 -14 2q-10 4 -16 14.5t-6 23.5v48q-36 -47 -94 -72.5t-126 -25.5zM206 10q67 0 122.5 25t82.5 67q15 21 15 41v103q-80 31 -174 31q-44 0 -79.5 -9t-61 -26t-39.5 -40.5t-14 -52.5t11.5 -54.5t31.5 -44.5t47 -29.5t58 -10.5zM188 653v77h20v-77h-20zM304 653v77h20
v-77h-20z" />
    <glyph glyph-name="ae" unicode="&#xe6;" horiz-adv-x="928" 
d="M206 -10q-35 0 -66 12.5t-53.5 34t-35.5 50.5t-13 62t15.5 60t44 46.5t68 30.5t86.5 11q36 0 74 -5.5t71 -14.5q3 51 23 99q-13 60 -56.5 95.5t-107.5 35.5q-38 0 -81 -16.5t-87 -47.5l-12 16q100 68 180 68q67 0 113 -32.5t65 -91.5q32 56 87 90t121 34q52 0 97.5 -21
t79 -57t53.5 -85t20 -105v-11h-475q4 -50 23.5 -93.5t50.5 -75.5t71.5 -50.5t85.5 -18.5q30 0 58.5 8t53.5 22.5t44 34.5t30 44l19 -5q-11 -27 -31.5 -49.5t-48 -39t-60 -26t-66.5 -9.5q-65 0 -119 33t-88 88q-16 -32 -42.5 -55t-58.5 -37.5t-66.5 -21.5t-66.5 -7zM206 10
q67 0 122.5 25t82.5 67q12 18 15 35q-28 55 -29 119q-69 21 -145 21q-44 0 -79.5 -9t-61 -26t-39.5 -40.5t-14 -52.5t11.5 -54.5t31.5 -44.5t47 -29.5t58 -10.5zM871 268q-3 52 -22 96t-49.5 75.5t-70.5 49.5t-86 18t-86 -18t-70.5 -50t-48.5 -76t-21 -95h454z" />
    <glyph glyph-name="aeacute" unicode="&#x1fd;" horiz-adv-x="928" 
d="M206 -10q-35 0 -66 12.5t-53.5 34t-35.5 50.5t-13 62t15.5 60t44 46.5t68 30.5t86.5 11q36 0 74 -5.5t71 -14.5q3 51 23 99q-13 60 -56.5 95.5t-107.5 35.5q-38 0 -81 -16.5t-87 -47.5l-12 16q100 68 180 68q67 0 113 -32.5t65 -91.5q32 56 87 90t121 34q52 0 97.5 -21
t79 -57t53.5 -85t20 -105v-11h-475q4 -50 23.5 -93.5t50.5 -75.5t71.5 -50.5t85.5 -18.5q30 0 58.5 8t53.5 22.5t44 34.5t30 44l19 -5q-11 -27 -31.5 -49.5t-48 -39t-60 -26t-66.5 -9.5q-65 0 -119 33t-88 88q-16 -32 -42.5 -55t-58.5 -37.5t-66.5 -21.5t-66.5 -7zM206 10
q67 0 122.5 25t82.5 67q12 18 15 35q-28 55 -29 119q-69 21 -145 21q-44 0 -79.5 -9t-61 -26t-39.5 -40.5t-14 -52.5t11.5 -54.5t31.5 -44.5t47 -29.5t58 -10.5zM871 268q-3 52 -22 96t-49.5 75.5t-70.5 49.5t-86 18t-86 -18t-70.5 -50t-48.5 -76t-21 -95h454zM421 645
l-16 12l64 73h34z" />
    <glyph glyph-name="agrave" unicode="&#xe0;" horiz-adv-x="525" 
d="M206 -10q-35 0 -66 12.5t-53.5 34t-35.5 50.5t-13 62t15.5 60t44 46.5t68 30.5t86.5 11q45 0 91 -7.5t83 -21.5v59q0 40 -12 73.5t-34.5 57t-54 36.5t-69.5 13t-81 -16.5t-87 -47.5l-12 16q100 68 180 68q43 0 78.5 -14t60 -40t38 -63t13.5 -83v-287q0 -20 16 -20v-20
q-11 0 -14 2q-10 4 -16 14.5t-6 23.5v48q-36 -47 -94 -72.5t-126 -25.5zM206 10q67 0 122.5 25t82.5 67q15 21 15 41v103q-80 31 -174 31q-44 0 -79.5 -9t-61 -26t-39.5 -40.5t-14 -52.5t11.5 -54.5t31.5 -44.5t47 -29.5t58 -10.5zM188 730h33l65 -73l-16 -12z" />
    <glyph glyph-name="amacron" unicode="&#x101;" horiz-adv-x="525" 
d="M206 -10q-35 0 -66 12.5t-53.5 34t-35.5 50.5t-13 62t15.5 60t44 46.5t68 30.5t86.5 11q45 0 91 -7.5t83 -21.5v59q0 40 -12 73.5t-34.5 57t-54 36.5t-69.5 13t-81 -16.5t-87 -47.5l-12 16q100 68 180 68q43 0 78.5 -14t60 -40t38 -63t13.5 -83v-287q0 -20 16 -20v-20
q-11 0 -14 2q-10 4 -16 14.5t-6 23.5v48q-36 -47 -94 -72.5t-126 -25.5zM206 10q67 0 122.5 25t82.5 67q15 21 15 41v103q-80 31 -174 31q-44 0 -79.5 -9t-61 -26t-39.5 -40.5t-14 -52.5t11.5 -54.5t31.5 -44.5t47 -29.5t58 -10.5zM116 686v20h280v-20h-280z" />
    <glyph glyph-name="ampersand" unicode="&#x26;" horiz-adv-x="640" 
d="M598 0l-106 110q-38 -54 -94 -87t-128 -33q-41 0 -79.5 11.5t-69.5 34.5t-49.5 56.5t-18.5 77.5q0 37 13.5 67t36.5 56t54 50t66 48q-32 33 -53.5 59t-34.5 47.5t-19 40t-6 36.5q0 28 13 54.5t35.5 46.5t53 32t65.5 12q33 0 60 -10.5t47 -28t31 -40.5t11 -49
q0 -31 -15 -57.5t-39.5 -51t-56 -47.5l-65.5 -46l240 -249q25 42 38.5 91.5t13.5 101.5h20q0 -55 -15 -108.5t-44 -98.5l122 -126h-27zM273 8q66 0 118.5 32t87.5 84l-244 255l-61.5 -45.5t-52 -48t-35.5 -54.5t-13 -63q0 -41 18.5 -71t47 -50t64 -29.5t70.5 -9.5zM130 573
q0 -14 4 -29t16 -35t33 -46.5t55 -61.5q39 26 70 49t52.5 45t33.5 45t12 49q0 48 -36.5 79t-93.5 31q-31 0 -57.5 -10t-46 -27t-31 -40t-11.5 -49z" />
    <glyph glyph-name="aogonek" unicode="&#x105;" horiz-adv-x="525" 
d="M413 -159q-25 6 -38.5 22t-13.5 39q0 25 18 49t61 55q-14 12 -14 34v48q-36 -47 -94 -72.5t-126 -25.5q-35 0 -66 12.5t-53.5 34t-35.5 50.5t-13 62t15.5 60t44 46.5t68 30.5t86.5 11q45 0 91 -7.5t83 -21.5v59q0 40 -12 73.5t-34.5 57t-54 36.5t-69.5 13t-81 -16.5
t-87 -47.5l-12 16q100 68 180 68q43 0 78.5 -14t60 -40t38 -63t13.5 -83v-287q0 -20 16 -20v-20q-45 -31 -63 -51.5t-18 -43.5q0 -38 44 -47zM206 10q67 0 122.5 25t82.5 67q15 21 15 41v103q-80 31 -174 31q-44 0 -79.5 -9t-61 -26t-39.5 -40.5t-14 -52.5t11.5 -54.5
t31.5 -44.5t47 -29.5t58 -10.5z" />
    <glyph glyph-name="apostrophe" unicode="&#x2bc;" horiz-adv-x="360" 
d="M167 645l-16 12l41 47l3 26h54z" />
    <glyph glyph-name="aring" unicode="&#xe5;" horiz-adv-x="525" 
d="M206 -10q-35 0 -66 12.5t-53.5 34t-35.5 50.5t-13 62t15.5 60t44 46.5t68 30.5t86.5 11q45 0 91 -7.5t83 -21.5v59q0 40 -12 73.5t-34.5 57t-54 36.5t-69.5 13t-81 -16.5t-87 -47.5l-12 16q100 68 180 68q43 0 78.5 -14t60 -40t38 -63t13.5 -83v-287q0 -20 16 -20v-20
q-11 0 -14 2q-10 4 -16 14.5t-6 23.5v48q-36 -47 -94 -72.5t-126 -25.5zM206 10q67 0 122.5 25t82.5 67q15 21 15 41v103q-80 31 -174 31q-44 0 -79.5 -9t-61 -26t-39.5 -40.5t-14 -52.5t11.5 -54.5t31.5 -44.5t47 -29.5t58 -10.5zM199 673q0 24 16.5 40.5t40.5 16.5
t40.5 -16.5t16.5 -40.5t-16.5 -40.5t-40.5 -16.5t-40.5 16.5t-16.5 40.5zM256 714q-17 0 -29 -11t-12 -30q0 -17 12 -29t29 -12q15 0 28 11.5t13 29.5q0 19 -12 30t-29 11z" />
    <glyph glyph-name="aringacute" unicode="&#x1fb;" horiz-adv-x="525" 
d="M206 -10q-35 0 -66 12.5t-53.5 34t-35.5 50.5t-13 62t15.5 60t44 46.5t68 30.5t86.5 11q45 0 91 -7.5t83 -21.5v59q0 40 -12 73.5t-34.5 57t-54 36.5t-69.5 13t-81 -16.5t-87 -47.5l-12 16q100 68 180 68q43 0 78.5 -14t60 -40t38 -63t13.5 -83v-287q0 -20 16 -20v-20
q-11 0 -14 2q-10 4 -16 14.5t-6 23.5v48q-36 -47 -94 -72.5t-126 -25.5zM206 10q67 0 122.5 25t82.5 67q15 21 15 41v103q-80 31 -174 31q-44 0 -79.5 -9t-61 -26t-39.5 -40.5t-14 -52.5t11.5 -54.5t31.5 -44.5t47 -29.5t58 -10.5zM199 673q0 24 16.5 40.5t40.5 16.5
t40.5 -16.5t16.5 -40.5t-16.5 -40.5t-40.5 -16.5t-40.5 16.5t-16.5 40.5zM256 714q-17 0 -29 -11t-12 -30q0 -17 12 -29t29 -12q15 0 28 11.5t13 29.5q0 19 -12 30t-29 11zM242 780l-16 12l64 73h34z" />
    <glyph glyph-name="asciicircum" unicode="^" horiz-adv-x="509" 
d="M48 303l198 407h18l197 -407h-23l-183 378l-186 -378h-21z" />
    <glyph glyph-name="asciitilde" unicode="~" horiz-adv-x="468" 
d="M73 251q0 1 4.5 14t15 28t26 27t38.5 12q20 0 38.5 -9.5t36.5 -21t36 -21t38 -9.5q18 0 31 7.5t22 17.5t13 18.5t4 10.5l20 -1q-8 -21 -20 -37q-11 -14 -27.5 -25t-42.5 -11q-24 0 -44 9.5t-38 21t-34.5 21t-32.5 9.5q-15 0 -27 -9.5t-20.5 -20.5t-12.5 -20.5t-4 -10.5
h-20v0z" />
    <glyph glyph-name="asterisk" unicode="*" horiz-adv-x="307" 
d="M96 564l41 57l-67 22l6 19l67 -22v70h20v-70l67 22l6 -19l-67 -22l42 -57l-17 -12l-41 57l-41 -57z" />
    <glyph glyph-name="at" unicode="@" horiz-adv-x="819" 
d="M418 603q74 0 139 -30t113 -81.5t76 -121t28 -148.5q0 -14 -1.5 -37.5t-6.5 -50t-14 -53.5t-24.5 -48.5t-38.5 -35t-55 -13.5q-24 0 -38 7.5t-21.5 21t-10.5 32t-5 39.5q-26 -29 -70.5 -50.5t-96.5 -21.5q-33 0 -60 9.5t-46 26.5t-29.5 40.5t-10.5 51.5q0 36 16 60
t42 38.5t58.5 20.5t64.5 6q45 0 82 -8.5t54 -14.5q0 41 -6 75.5t-21 59t-40.5 38.5t-64.5 14q-38 0 -75 -12.5t-69 -35.5l-12 16q35 23 73.5 37.5t83.5 14.5q49 0 78.5 -17.5t45.5 -46t21 -64.5t5 -73v-153q0 -45 9.5 -68t43.5 -23t57 22.5t37 55.5t19.5 71t5.5 70
q0 75 -26.5 140.5t-72 114t-107 77t-130.5 28.5q-67 0 -129 -26.5t-109.5 -73.5t-76 -111.5t-28.5 -141.5q0 -74 27 -139t73.5 -113t108.5 -76t133 -28q39 0 77.5 9t74.5 29l10 -18q-77 -40 -162 -40q-74 0 -140 29t-115.5 80t-78 119.5t-28.5 147.5q0 82 30.5 150.5
t80.5 118t115.5 77t136.5 27.5zM489 55q25 12 39.5 26t22 29.5t9.5 32t2 31.5v47q-6 0 -18 3.5t-29.5 8t-41 8.5t-51.5 4q-29 0 -56.5 -5t-50 -17t-36 -32.5t-13.5 -50.5q0 -26 10.5 -46.5t28 -34t40 -20.5t47.5 -7q26 0 52 7t45 16z" />
    <glyph glyph-name="atilde" unicode="&#xe3;" horiz-adv-x="525" 
d="M206 -10q-35 0 -66 12.5t-53.5 34t-35.5 50.5t-13 62t15.5 60t44 46.5t68 30.5t86.5 11q45 0 91 -7.5t83 -21.5v59q0 40 -12 73.5t-34.5 57t-54 36.5t-69.5 13t-81 -16.5t-87 -47.5l-12 16q100 68 180 68q43 0 78.5 -14t60 -40t38 -63t13.5 -83v-287q0 -20 16 -20v-20
q-11 0 -14 2q-10 4 -16 14.5t-6 23.5v48q-36 -47 -94 -72.5t-126 -25.5zM206 10q67 0 122.5 25t82.5 67q15 21 15 41v103q-80 31 -174 31q-44 0 -79.5 -9t-61 -26t-39.5 -40.5t-14 -52.5t11.5 -54.5t31.5 -44.5t47 -29.5t58 -10.5zM317 663q-22 0 -38.5 6t-30.5 13t-27.5 13
t-28.5 6q-16 0 -26 -6.5t-15.5 -15t-7.5 -16.5t-2 -10h-20q0 2 2 13t9.5 23t22 21.5t39.5 9.5q19 0 34 -6t29 -13t28.5 -13t33.5 -6q21 0 32.5 7t17.5 15.5t7.5 16t1.5 9.5h20q0 -3 -2.5 -14t-10.5 -23t-24.5 -21t-43.5 -9z" />
    <glyph glyph-name="b" unicode="b" horiz-adv-x="603" 
d="M306 -10q-31 0 -60.5 9t-56 25t-49 37.5t-37.5 46.5v-108h-20v730h20v-332q40 56 92 92.5t120 36.5q57 0 102 -24t75.5 -62.5t47 -86.5t16.5 -96q0 -53 -19 -101.5t-53 -85.5t-79.5 -59t-98.5 -22zM306 10q50 0 92.5 21.5t73 56.5t47.5 79.5t17 90.5q0 48 -16 93
t-45.5 79.5t-70 55.5t-89.5 21q-37 0 -69.5 -12.5t-59 -33.5t-47.5 -48t-36 -57v-189q2 -32 22.5 -60.5t50.5 -50t65 -34t65 -12.5z" />
    <glyph glyph-name="backslash" unicode="\" horiz-adv-x="519" 
d="M54 710l435 -710h-25l-436 710h26z" />
    <glyph glyph-name="bar" unicode="|" horiz-adv-x="202" 
d="M91 -130v905h20v-905h-20z" />
    <glyph glyph-name="braceleft" unicode="{" horiz-adv-x="214" 
d="M113 720v-304q0 -3 -0.5 -9t-2.5 -14.5t-6 -17t-12 -15.5q16 -14 18.5 -32.5t2.5 -23.5v-315h55v-20h-52q-8 0 -15.5 6.5t-7.5 23.5v305q0 15 -6 30t-24 17v20q10 0 16 6t9 13.5t4 15t1 10.5v294q0 20 9.5 25t13.5 5h52v-20h-55z" />
    <glyph glyph-name="braceright" unicode="}" horiz-adv-x="214" 
d="M46 720v20h52q4 0 13.5 -5t9.5 -25v-294q0 -3 0.5 -10.5t3.5 -15t9 -13.5t17 -6v-20q-18 -2 -24 -17t-6 -30v-305q0 -17 -7.5 -23.5t-15.5 -6.5h-52v20h55v315q0 5 2.5 23.5t18.5 32.5q-8 7 -12 15.5t-6 17t-2.5 14.5t-0.5 9v304h-55z" />
    <glyph glyph-name="bracketleft" unicode="[" horiz-adv-x="210" 
d="M93 -40v780h70v-20h-50v-740h50v-20h-70z" />
    <glyph glyph-name="bracketright" unicode="]" horiz-adv-x="210" 
d="M47 -40v20h50v740h-50v20h70v-780h-70z" />
    <glyph glyph-name="brokenbar" unicode="&#xa6;" horiz-adv-x="206" 
d="M113 285v-415h-20v415h20zM113 775v-415h-20v415h20z" />
    <glyph glyph-name="bullet" unicode="&#x2022;" horiz-adv-x="349" 
d="M253 343q0 -33 -22.5 -56t-55.5 -23q-32 0 -55.5 23t-23.5 56q0 16 6.5 30t17 24.5t25 17t30.5 6.5q33 0 55.5 -23t22.5 -55z" />
    <glyph glyph-name="c" unicode="c" horiz-adv-x="540" 
d="M47 262q0 56 19 104.5t53 84t79.5 56t98.5 20.5q66 0 117.5 -30.5t77.5 -85.5l-20 -7q-26 48 -73.5 75.5t-104.5 27.5q-48 0 -89 -19t-72 -52t-48.5 -78t-17.5 -96t18 -97t49.5 -80.5t72.5 -54.5t88 -20q30 0 60.5 9t56 24t43.5 35t24 41l20 -6q-9 -26 -28.5 -48.5
t-46.5 -39t-59.5 -26t-66.5 -9.5q-51 0 -97 21.5t-80 58.5t-54 86.5t-20 105.5z" />
    <glyph glyph-name="c_t" horiz-adv-x="827" 
d="M820 24q0 -1 -8 -5.5t-20.5 -10t-29 -9.5t-34.5 -4q-40 0 -66.5 22t-26.5 58v424h-75v20h75v45q0 31 -3 61t-14.5 54t-35 39t-63.5 15q-31 0 -53 -9t-36.5 -24t-21 -34.5t-6.5 -40.5q0 -30 11.5 -61.5t26.5 -60.5t29.5 -53t21.5 -39l-19 -7q-15 28 -35.5 47.5t-44.5 32
t-49.5 18t-50.5 5.5q-54 0 -96 -22t-70.5 -57.5t-43.5 -79.5t-15 -88q0 -50 18 -95t49 -79.5t72 -55t86 -20.5q28 0 58 7.5t56.5 22t46 34.5t26.5 45l20 -6q-10 -30 -32 -53t-50.5 -38.5t-60.5 -23.5t-62 -8q-53 0 -98.5 23t-78.5 61.5t-51.5 87.5t-18.5 101q0 49 17.5 96.5
t49.5 85t77.5 60t102.5 22.5q40 0 78.5 -11.5t64.5 -34.5q-18 26 -36.5 61t-18.5 80q0 26 8 50t25 42t43.5 28.5t64.5 10.5q49 0 76 -18.5t39.5 -48.5t14.5 -68.5t2 -78.5v-20h125v-20h-125v-424q0 -29 22 -44.5t51 -15.5q15 0 29.5 3.5t25.5 8t18 8.5t8 5z" />
    <glyph glyph-name="cacute" unicode="&#x107;" horiz-adv-x="540" 
d="M47 262q0 56 19 104.5t53 84t79.5 56t98.5 20.5q66 0 117.5 -30.5t77.5 -85.5l-20 -7q-26 48 -73.5 75.5t-104.5 27.5q-48 0 -89 -19t-72 -52t-48.5 -78t-17.5 -96t18 -97t49.5 -80.5t72.5 -54.5t88 -20q30 0 60.5 9t56 24t43.5 35t24 41l20 -6q-9 -26 -28.5 -48.5
t-46.5 -39t-59.5 -26t-66.5 -9.5q-51 0 -97 21.5t-80 58.5t-54 86.5t-20 105.5zM280 645l-16 12l64 73h34z" />
    <glyph glyph-name="caron.alt" horiz-adv-x="198" 
d="M66 645l-16 12l64 73h34z" />
    <glyph glyph-name="ccaron" unicode="&#x10d;" horiz-adv-x="540" 
d="M47 262q0 56 19 104.5t53 84t79.5 56t98.5 20.5q66 0 117.5 -30.5t77.5 -85.5l-20 -7q-26 48 -73.5 75.5t-104.5 27.5q-48 0 -89 -19t-72 -52t-48.5 -78t-17.5 -96t18 -97t49.5 -80.5t72.5 -54.5t88 -20q30 0 60.5 9t56 24t43.5 35t24 41l20 -6q-9 -26 -28.5 -48.5
t-46.5 -39t-59.5 -26t-66.5 -9.5q-51 0 -97 21.5t-80 58.5t-54 86.5t-20 105.5zM209 730l85 -63l85 63l16 -12l-93 -74h-16l-93 74z" />
    <glyph glyph-name="ccedilla" unicode="&#xe7;" horiz-adv-x="541" 
d="M223 -125q15 -7 38 -12.5t49 -5.5q58 0 58 38q0 21 -13.5 29.5t-34.5 8.5t-44 -5.5t-37 -10.5l42 74q-48 3 -90.5 26t-74 59.5t-50 84t-18.5 101.5q0 56 19 104.5t53 84t79.5 56t98.5 20.5q66 0 117.5 -30.5t77.5 -85.5l-20 -7q-26 48 -73.5 75.5t-104.5 27.5
q-48 0 -89 -19t-72 -52t-48.5 -78t-17.5 -96t18 -97t49.5 -80.5t72.5 -54.5t88 -20q30 0 60.5 9t56 24t43.5 35t24 41l20 -6q-9 -26 -28 -48t-45 -38.5t-57.5 -26t-64.5 -10.5l-27 -47q10 4 22 5t20 1q68 0 68 -54q0 -30 -21.5 -43.5t-59.5 -13.5q-26 0 -50.5 5.5
t-43.5 13.5z" />
    <glyph glyph-name="ccircumflex" unicode="&#x109;" horiz-adv-x="540" 
d="M47 262q0 56 19 104.5t53 84t79.5 56t98.5 20.5q66 0 117.5 -30.5t77.5 -85.5l-20 -7q-26 48 -73.5 75.5t-104.5 27.5q-48 0 -89 -19t-72 -52t-48.5 -78t-17.5 -96t18 -97t49.5 -80.5t72.5 -54.5t88 -20q30 0 60.5 9t56 24t43.5 35t24 41l20 -6q-9 -26 -28.5 -48.5
t-46.5 -39t-59.5 -26t-66.5 -9.5q-51 0 -97 21.5t-80 58.5t-54 86.5t-20 105.5zM193 656l93 74h16l93 -74l-16 -12l-85 63l-85 -63z" />
    <glyph glyph-name="cdotaccent" unicode="&#x10b;" horiz-adv-x="540" 
d="M47 262q0 56 19 104.5t53 84t79.5 56t98.5 20.5q66 0 117.5 -30.5t77.5 -85.5l-20 -7q-26 48 -73.5 75.5t-104.5 27.5q-48 0 -89 -19t-72 -52t-48.5 -78t-17.5 -96t18 -97t49.5 -80.5t72.5 -54.5t88 -20q30 0 60.5 9t56 24t43.5 35t24 41l20 -6q-9 -26 -28.5 -48.5
t-46.5 -39t-59.5 -26t-66.5 -9.5q-51 0 -97 21.5t-80 58.5t-54 86.5t-20 105.5zM284 653v77h20v-77h-20z" />
    <glyph glyph-name="cent" unicode="&#xa2;" horiz-adv-x="547" 
d="M280 -120v111q-51 4 -93 28.5t-72.5 61.5t-47.5 83t-17 94q0 51 17 98t47 84.5t72.5 60.5t93.5 26v118h20v-118q78 -2 123.5 -34t70.5 -82l-19 -7q-29 52 -74 76.5t-101 26.5v-497q24 0 53.5 7.5t55.5 22t46.5 34.5t26.5 45l20 -6q-10 -30 -32 -53t-50.5 -38.5t-60 -23.5
t-59.5 -8v-110h-20zM70 258q0 -46 16 -89t44.5 -76.5t66.5 -55.5t83 -26v496q-50 -3 -89 -26t-66 -58t-41 -78.5t-14 -86.5z" />
    <glyph glyph-name="colon" unicode=":" horiz-adv-x="164" 
d="M72 453v64h20v-64h-20zM72 0v64h20v-64h-20z" />
    <glyph glyph-name="comma" unicode="," horiz-adv-x="182" 
d="M71 -13q13 0 13 13v64h20v-62q0 -35 -33 -35v20z" />
    <glyph glyph-name="copyright" unicode="&#xa9;" horiz-adv-x="834" 
d="M417 -7q-78 0 -144 27.5t-114 76t-75.5 114.5t-27.5 144q0 77 27.5 143t75.5 114t114 75.5t144 27.5t144 -27.5t114 -75.5t75.5 -114t27.5 -143q0 -78 -27.5 -144t-75.5 -114.5t-114 -76t-144 -27.5zM418 13q72 0 133.5 24.5t107.5 69.5t72 107.5t26 137.5
q0 74 -25.5 137t-71 108.5t-107.5 71.5t-135 26q-74 0 -136 -25.5t-108 -71.5t-71.5 -108.5t-25.5 -135.5t25.5 -135.5t71 -108t108 -71.5t136.5 -26zM424 127q-38 0 -77 15t-70.5 44.5t-51.5 72t-20 96.5q0 40 12.5 81t38 74.5t65.5 54.5t95 21q56 0 103 -24t67 -75l-19 -7
q-12 27 -30.5 44t-40 26.5t-43 12.5t-37.5 3q-50 0 -86 -19.5t-59 -50t-34.5 -68t-11.5 -73.5q0 -50 18.5 -88.5t47 -65t63 -40.5t66.5 -14q22 0 45.5 6.5t45.5 18t39.5 28.5t26.5 38l19 -5q-4 -13 -18 -31.5t-36.5 -35t-52.5 -28t-65 -11.5z" />
    <glyph glyph-name="d" unicode="d" horiz-adv-x="604" 
d="M297 -10q-54 0 -100 23t-79.5 61t-52 86t-18.5 98q0 54 18 102.5t50.5 85.5t76.5 59t96 22q36 0 67.5 -10.5t58.5 -28t48.5 -41t37.5 -49.5v332h20v-690q0 -20 16 -20v-20q-9 0 -13 2q-11 5 -17 15.5t-6 22.5v68q-17 -26 -39.5 -47.5t-49 -37.5t-55.5 -24.5t-59 -8.5z
M297 10q30 0 65 13t65 34.5t50.5 50.5t22.5 61v187q-11 31 -34 58.5t-52 48t-62 32.5t-64 12q-51 0 -91.5 -21.5t-69.5 -56.5t-44.5 -80t-15.5 -91q0 -49 18 -93.5t49 -79t73 -55t90 -20.5z" />
    <glyph glyph-name="d.alt" horiz-adv-x="603" 
d="M500 0v108q-17 -26 -39.5 -47.5t-49 -37.5t-55.5 -24.5t-59 -8.5q-54 0 -100 23t-79.5 61t-52 86t-18.5 98q0 54 18 102.5t50.5 85.5t76.5 59t96 22q36 0 66.5 -10.5t57 -28t48.5 -41t40 -49.5v332h20v-730h-20zM500 356q-11 31 -33.5 58.5t-51.5 48t-62.5 32.5t-64.5 12
q-51 0 -91.5 -21.5t-69.5 -56.5t-44.5 -80t-15.5 -91q0 -49 18 -93.5t49 -79t73 -55t90 -20.5q30 0 65.5 13t65.5 34.5t50.5 50.5t21.5 61v187z" />
    <glyph glyph-name="dagger" unicode="&#x2020;" horiz-adv-x="377" 
d="M179 -130v391h-132v20h132v494h20v-494h131v-20h-131v-391h-20z" />
    <glyph glyph-name="daggerdbl" unicode="&#x2021;" horiz-adv-x="385" 
d="M183 -130v331h-132v20h132v110h-132v20h132v424h20v-424h131v-20h-131v-110h131v-20h-131v-331h-20z" />
    <glyph glyph-name="dcaron" unicode="&#x10f;" horiz-adv-x="604" 
d="M297 -10q-54 0 -100 23t-79.5 61t-52 86t-18.5 98q0 54 18 102.5t50.5 85.5t76.5 59t96 22q36 0 67.5 -10.5t58.5 -28t48.5 -41t37.5 -49.5v332h20v-690q0 -20 16 -20v-20q-9 0 -13 2q-11 5 -17 15.5t-6 22.5v68q-17 -26 -39.5 -47.5t-49 -37.5t-55.5 -24.5t-59 -8.5z
M297 10q30 0 65 13t65 34.5t50.5 50.5t22.5 61v187q-11 31 -34 58.5t-52 48t-62 32.5t-64 12q-51 0 -91.5 -21.5t-69.5 -56.5t-44.5 -80t-15.5 -91q0 -49 18 -93.5t49 -79t73 -55t90 -20.5zM579 645l-16 12l64 73h34z" />
    <glyph glyph-name="dcroat" unicode="&#x111;" horiz-adv-x="604" 
d="M297 -10q-54 0 -100 23t-79.5 61t-52 86t-18.5 98q0 54 18 102.5t50.5 85.5t76.5 59t96 22q36 0 67.5 -10.5t58.5 -28t48.5 -41t37.5 -49.5v235h-124v20h124v77h20v-77h76v-20h-76v-593q0 -20 16 -20v-20q-9 0 -13 2q-11 5 -17 15.5t-6 22.5v68q-17 -26 -39.5 -47.5
t-49 -37.5t-55.5 -24.5t-59 -8.5zM297 10q30 0 65 13t65 34.5t50.5 50.5t22.5 61v187q-11 31 -34 58.5t-52 48t-62 32.5t-64 12q-51 0 -91.5 -21.5t-69.5 -56.5t-44.5 -80t-15.5 -91q0 -49 18 -93.5t49 -79t73 -55t90 -20.5z" />
    <glyph glyph-name="degree" unicode="&#xb0;" horiz-adv-x="252" 
d="M57 655q0 29 20 49t49 20t49 -20t20 -49t-20 -49t-49 -20t-49 20t-20 49zM126 704q-20 0 -34.5 -13.5t-14.5 -35.5q0 -20 14.5 -34.5t34.5 -14.5q19 0 34 14t15 35q0 22 -14.5 35.5t-34.5 13.5z" />
    <glyph glyph-name="divide" unicode="&#xf7;" horiz-adv-x="555" 
d="M267 385v64h20v-64h-20zM267 92v64h20v-64h-20zM76 261v20h403v-20h-403z" />
    <glyph glyph-name="dollar" unicode="$" horiz-adv-x="604" 
d="M508 616q-42 46 -87.5 63t-108.5 17v-333q53 -12 99 -24.5t80 -32.5t53.5 -50.5t19.5 -77.5q0 -45 -18 -79t-51 -57t-79.5 -35t-103.5 -12v-88h-20v88q-84 2 -143.5 29.5t-110.5 80.5l15 13q51 -57 109.5 -80.5t129.5 -25.5v337q-53 11 -95.5 23t-72.5 30.5t-46 47
t-16 73.5q0 90 62.5 138.5t167.5 52.5v101h20v-100q67 -1 117 -20.5t92 -64.5zM544 176q0 42 -17 69.5t-48 46t-73.5 30.5t-93.5 23v-333q105 0 168.5 40.5t63.5 123.5zM82 524q0 -39 12.5 -63.5t38.5 -41t65.5 -28t93.5 -23.5v327q-110 -4 -160 -49t-50 -122z" />
    <glyph glyph-name="dotlessi" unicode="&#x131;" horiz-adv-x="186" 
d="M83 0v519h20v-519h-20z" />
    <glyph glyph-name="dotlessj" unicode="&#x237;" horiz-adv-x="186" 
d="M-30 -170q-29 0 -54.5 7t-45.5 27l16 12q18 -16 40 -21t43 -5t41 9t36.5 24t26.5 36t10 45v555h20v-555q0 -29 -12 -53.5t-31 -42.5t-43 -28t-47 -10z" />
    <glyph glyph-name="e" unicode="e" horiz-adv-x="578" 
d="M297 -10q-51 0 -96.5 21.5t-79.5 59t-54 87t-20 105.5q0 55 19 103t52.5 84t78 56.5t95.5 20.5q52 0 97.5 -21t79 -57t53.5 -85t20 -105v-11h-475q4 -50 23.5 -93.5t50.5 -75.5t71.5 -50.5t85.5 -18.5q30 0 58.5 8t53.5 22.5t44 34.5t30 44l19 -5q-11 -27 -31.5 -49.5
t-48 -39t-60 -26t-66.5 -9.5zM521 268q-3 52 -22 96t-49.5 75.5t-70.5 49.5t-86 18t-86 -18t-70.5 -50t-48.5 -76t-21 -95h454z" />
    <glyph glyph-name="eacute" unicode="&#xe9;" horiz-adv-x="578" 
d="M297 -10q-51 0 -96.5 21.5t-79.5 59t-54 87t-20 105.5q0 55 19 103t52.5 84t78 56.5t95.5 20.5q52 0 97.5 -21t79 -57t53.5 -85t20 -105v-11h-475q4 -50 23.5 -93.5t50.5 -75.5t71.5 -50.5t85.5 -18.5q30 0 58.5 8t53.5 22.5t44 34.5t30 44l19 -5q-11 -27 -31.5 -49.5
t-48 -39t-60 -26t-66.5 -9.5zM521 268q-3 52 -22 96t-49.5 75.5t-70.5 49.5t-86 18t-86 -18t-70.5 -50t-48.5 -76t-21 -95h454zM279 645l-16 12l64 73h34z" />
    <glyph glyph-name="ebreve" unicode="&#x115;" horiz-adv-x="578" 
d="M297 -10q-51 0 -96.5 21.5t-79.5 59t-54 87t-20 105.5q0 55 19 103t52.5 84t78 56.5t95.5 20.5q52 0 97.5 -21t79 -57t53.5 -85t20 -105v-11h-475q4 -50 23.5 -93.5t50.5 -75.5t71.5 -50.5t85.5 -18.5q30 0 58.5 8t53.5 22.5t44 34.5t30 44l19 -5q-11 -27 -31.5 -49.5
t-48 -39t-60 -26t-66.5 -9.5zM521 268q-3 52 -22 96t-49.5 75.5t-70.5 49.5t-86 18t-86 -18t-70.5 -50t-48.5 -76t-21 -95h454zM293 670q20 0 36.5 17.5t19.5 42.5h18q0 -15 -6 -29t-16.5 -24.5t-23.5 -17t-28 -6.5t-28 6.5t-23.5 17t-16.5 24.5t-6 29h19q0 -23 17 -41.5
t38 -18.5z" />
    <glyph glyph-name="ecaron" unicode="&#x11b;" horiz-adv-x="578" 
d="M297 -10q-51 0 -96.5 21.5t-79.5 59t-54 87t-20 105.5q0 55 19 103t52.5 84t78 56.5t95.5 20.5q52 0 97.5 -21t79 -57t53.5 -85t20 -105v-11h-475q4 -50 23.5 -93.5t50.5 -75.5t71.5 -50.5t85.5 -18.5q30 0 58.5 8t53.5 22.5t44 34.5t30 44l19 -5q-11 -27 -31.5 -49.5
t-48 -39t-60 -26t-66.5 -9.5zM521 268q-3 52 -22 96t-49.5 75.5t-70.5 49.5t-86 18t-86 -18t-70.5 -50t-48.5 -76t-21 -95h454zM208 730l85 -63l85 63l16 -12l-93 -74h-16l-93 74z" />
    <glyph glyph-name="ecircumflex" unicode="&#xea;" horiz-adv-x="578" 
d="M297 -10q-51 0 -96.5 21.5t-79.5 59t-54 87t-20 105.5q0 55 19 103t52.5 84t78 56.5t95.5 20.5q52 0 97.5 -21t79 -57t53.5 -85t20 -105v-11h-475q4 -50 23.5 -93.5t50.5 -75.5t71.5 -50.5t85.5 -18.5q30 0 58.5 8t53.5 22.5t44 34.5t30 44l19 -5q-11 -27 -31.5 -49.5
t-48 -39t-60 -26t-66.5 -9.5zM521 268q-3 52 -22 96t-49.5 75.5t-70.5 49.5t-86 18t-86 -18t-70.5 -50t-48.5 -76t-21 -95h454zM192 656l93 74h16l93 -74l-16 -12l-85 63l-85 -63z" />
    <glyph glyph-name="edieresis" unicode="&#xeb;" horiz-adv-x="578" 
d="M297 -10q-51 0 -96.5 21.5t-79.5 59t-54 87t-20 105.5q0 55 19 103t52.5 84t78 56.5t95.5 20.5q52 0 97.5 -21t79 -57t53.5 -85t20 -105v-11h-475q4 -50 23.5 -93.5t50.5 -75.5t71.5 -50.5t85.5 -18.5q30 0 58.5 8t53.5 22.5t44 34.5t30 44l19 -5q-11 -27 -31.5 -49.5
t-48 -39t-60 -26t-66.5 -9.5zM521 268q-3 52 -22 96t-49.5 75.5t-70.5 49.5t-86 18t-86 -18t-70.5 -50t-48.5 -76t-21 -95h454zM225 653v77h20v-77h-20zM341 653v77h20v-77h-20z" />
    <glyph glyph-name="edotaccent" unicode="&#x117;" horiz-adv-x="578" 
d="M297 -10q-51 0 -96.5 21.5t-79.5 59t-54 87t-20 105.5q0 55 19 103t52.5 84t78 56.5t95.5 20.5q52 0 97.5 -21t79 -57t53.5 -85t20 -105v-11h-475q4 -50 23.5 -93.5t50.5 -75.5t71.5 -50.5t85.5 -18.5q30 0 58.5 8t53.5 22.5t44 34.5t30 44l19 -5q-11 -27 -31.5 -49.5
t-48 -39t-60 -26t-66.5 -9.5zM521 268q-3 52 -22 96t-49.5 75.5t-70.5 49.5t-86 18t-86 -18t-70.5 -50t-48.5 -76t-21 -95h454zM283 653v77h20v-77h-20z" />
    <glyph glyph-name="egrave" unicode="&#xe8;" horiz-adv-x="578" 
d="M297 -10q-51 0 -96.5 21.5t-79.5 59t-54 87t-20 105.5q0 55 19 103t52.5 84t78 56.5t95.5 20.5q52 0 97.5 -21t79 -57t53.5 -85t20 -105v-11h-475q4 -50 23.5 -93.5t50.5 -75.5t71.5 -50.5t85.5 -18.5q30 0 58.5 8t53.5 22.5t44 34.5t30 44l19 -5q-11 -27 -31.5 -49.5
t-48 -39t-60 -26t-66.5 -9.5zM521 268q-3 52 -22 96t-49.5 75.5t-70.5 49.5t-86 18t-86 -18t-70.5 -50t-48.5 -76t-21 -95h454zM225 730h33l65 -73l-16 -12z" />
    <glyph glyph-name="eight" unicode="8" horiz-adv-x="590" 
d="M532 188q0 -45 -19.5 -81t-53 -61.5t-77 -39t-91.5 -13.5q-54 0 -97 16.5t-73.5 43.5t-47 62.5t-16.5 74.5q0 37 14 68.5t37.5 56t53 41.5t59.5 25q-28 10 -53 25t-44 35t-30 45t-11 55q0 41 18.5 72.5t48.5 53t68 32.5t77 11t77 -11t67.5 -32.5t48 -53t18.5 -72.5
q0 -30 -11.5 -55t-30.5 -45t-44 -35t-53 -25q35 -10 65 -28t52.5 -43t35 -55.5t12.5 -66.5zM512 191q0 43 -20 76.5t-52 56.5t-71 35t-76 12q-39 0 -77.5 -13t-69.5 -37t-50 -57.5t-19 -74.5q0 -43 20 -76t52 -56t70.5 -35t76.5 -12q39 0 77.5 12.5t69 36t50 57t19.5 75.5z
M103 539q0 -36 17.5 -63.5t45.5 -46t61.5 -28.5t66.5 -10t67 10t62 29.5t45.5 47t17.5 63.5t-16.5 63.5t-43.5 46.5t-62 29t-71 10t-70.5 -10t-61 -29.5t-42.5 -47.5t-16 -64z" />
    <glyph glyph-name="eight.lnum" horiz-adv-x="590" 
d="M532 188q0 -45 -19.5 -81t-53 -61.5t-77 -39t-91.5 -13.5q-54 0 -97 16.5t-73.5 43.5t-47 62.5t-16.5 74.5q0 37 14 68.5t37.5 56t53 41.5t59.5 25q-28 10 -53 25t-44 35t-30 45t-11 55q0 41 18.5 72.5t48.5 53t68 32.5t77 11t77 -11t67.5 -32.5t48 -53t18.5 -72.5
q0 -30 -11.5 -55t-30.5 -45t-44 -35t-53 -25q35 -10 65 -28t52.5 -43t35 -55.5t12.5 -66.5zM512 191q0 43 -20 76.5t-52 56.5t-71 35t-76 12q-39 0 -77.5 -13t-69.5 -37t-50 -57.5t-19 -74.5q0 -43 20 -76t52 -56t70.5 -35t76.5 -12q39 0 77.5 12.5t69 36t50 57t19.5 75.5z
M103 539q0 -36 17.5 -63.5t45.5 -46t61.5 -28.5t66.5 -10t67 10t62 29.5t45.5 47t17.5 63.5t-16.5 63.5t-43.5 46.5t-62 29t-71 10t-70.5 -10t-61 -29.5t-42.5 -47.5t-16 -64z" />
    <glyph glyph-name="eightinferior" unicode="&#x2088;" horiz-adv-x="382" 
d="M339 103q0 -24 -12 -44t-33 -34t-48 -21.5t-57 -7.5q-33 0 -60.5 9t-46.5 24t-29.5 34.5t-10.5 41.5q0 19 8.5 35.5t22.5 29.5t31.5 22t35.5 14q-33 11 -57.5 32t-24.5 52q0 22 11.5 39.5t30.5 29.5t43 18t48 6t48 -6t42.5 -18t30 -29.5t11.5 -39.5q0 -31 -24.5 -52.5
t-58.5 -31.5q42 -11 70.5 -38t28.5 -65zM319 105q0 22 -12 39t-30.5 29t-41.5 18t-45 6q-23 0 -46 -6.5t-41 -19t-29.5 -29.5t-11.5 -38t12 -38t30.5 -28.5t41.5 -17.5t45 -6q23 0 46 6.5t41 18t29.5 28.5t11.5 38zM78 289q0 -18 10.5 -32t26.5 -23.5t36 -14.5t39 -5t39.5 5
t36.5 15t26.5 24t10.5 32t-9.5 31.5t-25.5 23.5t-36.5 15t-41.5 5q-22 0 -42 -5.5t-35.5 -15t-25 -23.5t-9.5 -32z" />
    <glyph glyph-name="eightsuperior" unicode="&#x2078;" horiz-adv-x="382" 
d="M339 450q0 -24 -12 -44t-33 -34t-48 -21.5t-57 -7.5q-33 0 -60.5 9t-46.5 24t-29.5 34.5t-10.5 41.5q0 19 8.5 35.5t22.5 29.5t31.5 22t35.5 14q-33 11 -57.5 32t-24.5 52q0 22 11.5 39.5t30.5 29.5t43 18t48 6t48 -6t42.5 -18t30 -29.5t11.5 -39.5q0 -31 -24.5 -52.5
t-58.5 -31.5q42 -11 70.5 -38t28.5 -65zM319 452q0 22 -12 39t-30.5 29t-41.5 18t-45 6q-23 0 -46 -6.5t-41 -19t-29.5 -29.5t-11.5 -38t12 -38t30.5 -28.5t41.5 -17.5t45 -6q23 0 46 6.5t41 18t29.5 28.5t11.5 38zM78 636q0 -18 10.5 -32t26.5 -23.5t36 -14.5t39 -5t39.5 5
t36.5 15t26.5 24t10.5 32t-9.5 31.5t-25.5 23.5t-36.5 15t-41.5 5q-22 0 -42 -5.5t-35.5 -15t-25 -23.5t-9.5 -32z" />
    <glyph glyph-name="ellipsis" unicode="&#x2026;" horiz-adv-x="354" 
d="M72 0v64h20v-64h-20zM167 0v64h20v-64h-20zM262 0v64h20v-64h-20z" />
    <glyph glyph-name="emacron" unicode="&#x113;" horiz-adv-x="578" 
d="M297 -10q-51 0 -96.5 21.5t-79.5 59t-54 87t-20 105.5q0 55 19 103t52.5 84t78 56.5t95.5 20.5q52 0 97.5 -21t79 -57t53.5 -85t20 -105v-11h-475q4 -50 23.5 -93.5t50.5 -75.5t71.5 -50.5t85.5 -18.5q30 0 58.5 8t53.5 22.5t44 34.5t30 44l19 -5q-11 -27 -31.5 -49.5
t-48 -39t-60 -26t-66.5 -9.5zM521 268q-3 52 -22 96t-49.5 75.5t-70.5 49.5t-86 18t-86 -18t-70.5 -50t-48.5 -76t-21 -95h454zM153 686v20h280v-20h-280z" />
    <glyph glyph-name="emdash" unicode="&#x2014;" horiz-adv-x="883" 
d="M72 261v20h739v-20h-739z" />
    <glyph glyph-name="endash" unicode="&#x2013;" horiz-adv-x="547" 
d="M72 261v20h403v-20h-403z" />
    <glyph glyph-name="eng" unicode="&#x14b;" horiz-adv-x="563" 
d="M353 -170q-29 0 -54.5 7t-45.5 27l16 12q18 -16 40 -21t43 -5t41 9t36.5 24t26.5 36t10 45v325q0 114 -31.5 166t-101.5 52q-38 0 -74.5 -13.5t-67.5 -37.5t-54 -57t-34 -71v-328h-20v519h20v-134q16 31 41 57.5t55 45t64 29t69 10.5q80 0 117 -57.5t37 -180.5v-325
q0 -29 -12 -53.5t-31 -42.5t-43 -28t-47 -10z" />
    <glyph glyph-name="eogonek" unicode="&#x119;" horiz-adv-x="580" 
d="M269 -168q-25 6 -38.5 22t-13.5 39t16 45.5t53 51.5q-50 3 -93 25.5t-75.5 59.5t-51 85.5t-18.5 102.5q0 55 19 103t52.5 84t78 56.5t95.5 20.5q52 0 97.5 -21t79 -57t53.5 -85t20 -105v-11h-475q4 -50 23.5 -93.5t50.5 -75.5t71.5 -50.5t85.5 -18.5q30 0 58.5 8
t53.5 22.5t44 34.5t30 44l19 -5q-10 -25 -28.5 -46t-43 -37.5t-54 -26.5t-60.5 -13q-45 -31 -63 -51.5t-18 -43.5q0 -38 44 -47zM522 268q-3 52 -22 96t-49.5 75.5t-70.5 49.5t-86 18t-86 -18t-70.5 -50t-48.5 -76t-21 -95h454z" />
    <glyph glyph-name="equal" unicode="=" horiz-adv-x="445" 
d="M76 231v20h293v-20h-293zM76 301v20h293v-20h-293z" />
    <glyph glyph-name="eth" unicode="&#xf0;" horiz-adv-x="595" 
d="M472 699l-93 -61q54 -47 86 -94.5t49.5 -96.5t23 -99t5.5 -102t-19.5 -98.5t-53 -81.5t-78.5 -55.5t-96 -20.5t-96 19.5t-78.5 52.5t-53 77t-19.5 93t19.5 93.5t53.5 77.5t79 52.5t95 19.5q39 0 74.5 -10.5t65 -30t52 -46t35.5 -58.5q-4 36 -12.5 72.5t-26.5 74t-47 75.5
t-72 76l-124 -81l-10 14l120 79q-54 46 -130 90h29q66 -39 115 -81l97 64zM69 230q0 -45 18 -85t48.5 -70t71.5 -47.5t88 -17.5q46 0 87.5 19t73 51.5t49.5 75.5t18 91q0 42 -18 80t-49 66.5t-72.5 45t-87.5 16.5t-87.5 -18t-72.5 -49t-49 -71.5t-18 -86.5z" />
    <glyph glyph-name="etilde" unicode="&#x1ebd;" horiz-adv-x="578" 
d="M297 -10q-51 0 -96.5 21.5t-79.5 59t-54 87t-20 105.5q0 55 19 103t52.5 84t78 56.5t95.5 20.5q52 0 97.5 -21t79 -57t53.5 -85t20 -105v-11h-475q4 -50 23.5 -93.5t50.5 -75.5t71.5 -50.5t85.5 -18.5q30 0 58.5 8t53.5 22.5t44 34.5t30 44l19 -5q-11 -27 -31.5 -49.5
t-48 -39t-60 -26t-66.5 -9.5zM521 268q-3 52 -22 96t-49.5 75.5t-70.5 49.5t-86 18t-86 -18t-70.5 -50t-48.5 -76t-21 -95h454zM354 663q-22 0 -38.5 6t-30.5 13t-27.5 13t-28.5 6q-16 0 -26 -6.5t-15.5 -15t-7.5 -16.5t-2 -10h-20q0 2 2 13t9.5 23t22 21.5t39.5 9.5
q19 0 34 -6t29 -13t28.5 -13t33.5 -6q21 0 32.5 7t17.5 15.5t7.5 16t1.5 9.5h20q0 -3 -2.5 -14t-10.5 -23t-24.5 -21t-43.5 -9z" />
    <glyph glyph-name="exclam" unicode="!" horiz-adv-x="210" 
d="M95 200v517h20v-517h-20zM95 0v84h20v-84h-20z" />
    <glyph glyph-name="exclamdown" unicode="&#xa1;" horiz-adv-x="212" 
d="M116 517v-517h-20v517h20zM116 717v-84h-20v84h20z" />
    <glyph glyph-name="f" unicode="f" horiz-adv-x="320" 
d="M107 0v438h-75v20h75v82q0 95 36 147.5t101 52.5q29 0 55 -9.5t40 -24.5l-16 -12q-12 12 -33.5 19.5t-44.5 7.5q-57 0 -87.5 -46.5t-30.5 -134.5v-82h155v-20h-155v-438h-20z" />
    <glyph glyph-name="five" unicode="5" horiz-adv-x="548" 
d="M274 306q47 0 89 -16.5t73.5 -46t49.5 -71t18 -90.5q0 -52 -19 -94.5t-51.5 -73t-75 -47t-89.5 -16.5q-38 0 -72 10.5t-63 30t-51.5 46t-37.5 59.5h22q27 -57 81 -91.5t121 -34.5q45 0 84 15.5t68 43.5t46 66.5t17 85.5q0 45 -16.5 82.5t-45 64.5t-66.5 42t-82 15
q-57 0 -108 -25t-84 -73h-24l6.5 30l10.5 49.5l12.5 62l13.5 67.5l35 174h337v-20h-320l-65 -325q36 39 84.5 59.5t101.5 20.5z" />
    <glyph glyph-name="five.lnum" horiz-adv-x="559" 
d="M280 445q47 0 89 -16.5t73.5 -46t49.5 -71t18 -90.5q0 -52 -19 -94.5t-51.5 -73t-75 -47t-89.5 -16.5q-38 0 -72 10.5t-63 30t-51.5 46t-37.5 59.5h22q27 -57 81 -91.5t121 -34.5q45 0 84 15.5t68 43.5t46 66.5t17 85.5q0 45 -16.5 82.5t-45 64.5t-66.5 42t-82 15
q-57 0 -108 -25t-84 -73h-24l6.5 30l10.5 49.5l12.5 62l13.5 67.5l35 174h337v-20h-320l-65 -325q36 39 84.5 59.5t101.5 20.5z" />
    <glyph glyph-name="fiveeighths" unicode="&#x215d;" horiz-adv-x="799" 
d="M756 103q0 -24 -12 -44t-33 -34t-48 -21.5t-57 -7.5q-33 0 -60.5 9t-46.5 24t-29.5 34.5t-10.5 41.5q0 19 8.5 35.5t22.5 29.5t31.5 22t35.5 14q-33 11 -57.5 32t-24.5 52q0 22 11.5 39.5t30.5 29.5t43 18t48 6t48 -6t42.5 -18t30 -29.5t11.5 -39.5q0 -31 -24.5 -52.5
t-58.5 -31.5q42 -11 70.5 -38t28.5 -65zM736 105q0 22 -12 39t-30.5 29t-41.5 18t-45 6q-23 0 -46 -6.5t-41 -19t-29.5 -29.5t-11.5 -38t12 -38t30.5 -28.5t41.5 -17.5t45 -6q23 0 46 6.5t41 18t29.5 28.5t11.5 38zM495 289q0 -18 10.5 -32t26.5 -23.5t36 -14.5t39 -5
t39.5 5t36.5 15t26.5 24t10.5 32t-9.5 31.5t-25.5 23.5t-36.5 15t-41.5 5q-22 0 -42 -5.5t-35.5 -15t-25 -23.5t-9.5 -32zM187 588q30 0 56 -9t45.5 -24.5t31 -38t11.5 -49.5q0 -28 -12 -51t-32 -39.5t-47 -25.5t-57 -9q-47 0 -84 21t-55 56l17 6q17 -29 49.5 -47t73.5 -18
q27 0 50 8t40.5 22t27 33.5t9.5 42.5q0 25 -11 44t-29 32t-40.5 20t-46.5 7q-34 0 -63.5 -13t-47.5 -36h-21q3 12 10.5 45l16 69l15.5 64.5t7 31.5h210v-19h-194l-38 -162q21 20 49 29.5t59 9.5zM102 11l558 700l16 -12l-558 -700z" />
    <glyph glyph-name="fivesuperior" unicode="&#x2075;" horiz-adv-x="363" 
d="M181 588q30 0 56 -9t45.5 -24.5t31 -38t11.5 -49.5q0 -28 -12 -51t-32 -39.5t-47 -25.5t-57 -9q-47 0 -84 21t-55 56l17 6q17 -29 49.5 -47t73.5 -18q27 0 50 8t40.5 22t27 33.5t9.5 42.5q0 25 -11 44t-29 32t-40.5 20t-46.5 7q-34 0 -63.5 -13t-47.5 -36h-21
q3 12 10.5 45l16 69l15.5 64.5t7 31.5h210v-19h-194l-38 -162q21 20 49 29.5t59 9.5z" />
    <glyph glyph-name="fraction" unicode="&#x2044;" horiz-adv-x="120" 
d="M-227 11l558 700l16 -12l-558 -700z" />
    <glyph glyph-name="fiveinferior" unicode="&#x2085;" horiz-adv-x="362" 
d="M180 241q30 0 56 -9t45.5 -24.5t31 -38t11.5 -49.5q0 -28 -12 -51t-32 -39.5t-47 -25.5t-57 -9q-47 0 -84 21t-55 56l17 6q17 -29 49.5 -47t73.5 -18q27 0 50 8t40.5 22t27 33.5t9.5 42.5q0 25 -11 44t-29 32t-40.5 20t-46.5 7q-34 0 -63.5 -13t-47.5 -36h-21
q3 12 10.5 45l16 69l15.5 64.5t7 31.5h210v-19h-194l-38 -162q21 20 49 29.5t59 9.5z" />
    <glyph glyph-name="florin" unicode="&#x192;" horiz-adv-x="510" 
d="M132 -170q-29 0 -54.5 7t-45.5 27l16 12q18 -16 40 -21t43 -5t41 9t36.5 24t26.5 36t10 45v474h-75v20h75v82q0 95 36 147.5t101 52.5q29 0 55 -9.5t40 -24.5l-16 -12q-12 12 -33.5 19.5t-44.5 7.5q-57 0 -87.5 -46.5t-30.5 -134.5v-82h155v-20h-155v-474
q0 -29 -12 -53.5t-31 -42.5t-43 -28t-47 -10z" />
    <glyph glyph-name="four" unicode="4" horiz-adv-x="526" 
d="M386 -127v199h-365v17l371 482h14v-479h88v-20h-88v-199h-20zM49 92h337v442z" />
    <glyph glyph-name="four.lnum" horiz-adv-x="555" 
d="M410 0v211h-385v17l391 482h14v-479h88v-20h-88v-211h-20zM53 231h357v442z" />
    <glyph glyph-name="fourinferior" unicode="&#x2084;" horiz-adv-x="366" 
d="M259 0v110h-233v17l239 256h14v-254h55v-19h-55v-110h-20zM54 129h205v219z" />
    <glyph glyph-name="foursuperior" unicode="&#x2074;" horiz-adv-x="366" 
d="M259 347v110h-233v17l239 256h14v-254h55v-19h-55v-110h-20zM54 476h205v219z" />
    <glyph glyph-name="g" unicode="g" horiz-adv-x="603" 
d="M297 -10q-54 0 -100 23t-79.5 61t-52 86t-18.5 98q0 52 17.5 100.5t49.5 86t76.5 60t97.5 22.5q35 0 65.5 -10t57 -27.5t48.5 -41t41 -50.5v121h20v-541q0 -51 -19 -89t-51 -63t-73.5 -37t-85.5 -12q-92 0 -144 34t-81 90l19 6q32 -59 87.5 -84.5t118.5 -25.5
q43 0 81 11.5t66.5 34.5t45 56.5t16.5 78.5v130q-17 -26 -39.5 -47.5t-49 -37.5t-55.5 -24.5t-59 -8.5zM297 10q37 0 72.5 14.5t63.5 37.5t46.5 51t20.5 56v187q-12 33 -34.5 60.5t-50.5 47.5t-61 31.5t-66 11.5q-53 0 -94 -22.5t-69 -58t-43 -80t-15 -88.5q0 -49 18 -93.5
t49 -79t73 -55t90 -20.5z" />
    <glyph glyph-name="gbreve" unicode="&#x11f;" horiz-adv-x="603" 
d="M297 -10q-54 0 -100 23t-79.5 61t-52 86t-18.5 98q0 52 17.5 100.5t49.5 86t76.5 60t97.5 22.5q35 0 65.5 -10t57 -27.5t48.5 -41t41 -50.5v121h20v-541q0 -51 -19 -89t-51 -63t-73.5 -37t-85.5 -12q-92 0 -144 34t-81 90l19 6q32 -59 87.5 -84.5t118.5 -25.5
q43 0 81 11.5t66.5 34.5t45 56.5t16.5 78.5v130q-17 -26 -39.5 -47.5t-49 -37.5t-55.5 -24.5t-59 -8.5zM297 10q37 0 72.5 14.5t63.5 37.5t46.5 51t20.5 56v187q-12 33 -34.5 60.5t-50.5 47.5t-61 31.5t-66 11.5q-53 0 -94 -22.5t-69 -58t-43 -80t-15 -88.5q0 -49 18 -93.5
t49 -79t73 -55t90 -20.5zM315 670q20 0 36.5 17.5t19.5 42.5h18q0 -15 -6 -29t-16.5 -24.5t-23.5 -17t-28 -6.5t-28 6.5t-23.5 17t-16.5 24.5t-6 29h19q0 -23 17 -41.5t38 -18.5z" />
    <glyph glyph-name="gcircumflex" unicode="&#x11d;" horiz-adv-x="603" 
d="M297 -10q-54 0 -100 23t-79.5 61t-52 86t-18.5 98q0 52 17.5 100.5t49.5 86t76.5 60t97.5 22.5q35 0 65.5 -10t57 -27.5t48.5 -41t41 -50.5v121h20v-541q0 -51 -19 -89t-51 -63t-73.5 -37t-85.5 -12q-92 0 -144 34t-81 90l19 6q32 -59 87.5 -84.5t118.5 -25.5
q43 0 81 11.5t66.5 34.5t45 56.5t16.5 78.5v130q-17 -26 -39.5 -47.5t-49 -37.5t-55.5 -24.5t-59 -8.5zM297 10q37 0 72.5 14.5t63.5 37.5t46.5 51t20.5 56v187q-12 33 -34.5 60.5t-50.5 47.5t-61 31.5t-66 11.5q-53 0 -94 -22.5t-69 -58t-43 -80t-15 -88.5q0 -49 18 -93.5
t49 -79t73 -55t90 -20.5zM214 656l93 74h16l93 -74l-16 -12l-85 63l-85 -63z" />
    <glyph glyph-name="gcommaaccent" unicode="&#x123;" horiz-adv-x="603" 
d="M297 -10q-54 0 -100 23t-79.5 61t-52 86t-18.5 98q0 52 17.5 100.5t49.5 86t76.5 60t97.5 22.5q35 0 65.5 -10t57 -27.5t48.5 -41t41 -50.5v121h20v-541q0 -51 -19 -89t-51 -63t-73.5 -37t-85.5 -12q-92 0 -144 34t-81 90l19 6q32 -59 87.5 -84.5t118.5 -25.5
q43 0 81 11.5t66.5 34.5t45 56.5t16.5 78.5v130q-17 -26 -39.5 -47.5t-49 -37.5t-55.5 -24.5t-59 -8.5zM297 10q37 0 72.5 14.5t63.5 37.5t46.5 51t20.5 56v187q-12 33 -34.5 60.5t-50.5 47.5t-61 31.5t-66 11.5q-53 0 -94 -22.5t-69 -58t-43 -80t-15 -88.5q0 -49 18 -93.5
t49 -79t73 -55t90 -20.5zM301 645l-16 12l64 73h34z" />
    <glyph glyph-name="gdotaccent" unicode="&#x121;" horiz-adv-x="603" 
d="M297 -10q-54 0 -100 23t-79.5 61t-52 86t-18.5 98q0 52 17.5 100.5t49.5 86t76.5 60t97.5 22.5q35 0 65.5 -10t57 -27.5t48.5 -41t41 -50.5v121h20v-541q0 -51 -19 -89t-51 -63t-73.5 -37t-85.5 -12q-92 0 -144 34t-81 90l19 6q32 -59 87.5 -84.5t118.5 -25.5
q43 0 81 11.5t66.5 34.5t45 56.5t16.5 78.5v130q-17 -26 -39.5 -47.5t-49 -37.5t-55.5 -24.5t-59 -8.5zM297 10q37 0 72.5 14.5t63.5 37.5t46.5 51t20.5 56v187q-12 33 -34.5 60.5t-50.5 47.5t-61 31.5t-66 11.5q-53 0 -94 -22.5t-69 -58t-43 -80t-15 -88.5q0 -49 18 -93.5
t49 -79t73 -55t90 -20.5zM305 653v77h20v-77h-20z" />
    <glyph glyph-name="germandbls" unicode="&#xdf;" horiz-adv-x="546" 
d="M229 13q121 2 185.5 51t64.5 138q0 43 -15 78t-42 60t-64.5 39t-83.5 14h-17v20h16q33 0 61 10.5t49 29.5t32.5 44t11.5 55t-12.5 56t-34 45t-51 30t-63.5 11q-75 0 -119 -50t-44 -135v-509h-20v509q0 46 13.5 84t37.5 65t58 41.5t75 14.5q38 0 71 -12t57 -33t38 -50
t14 -62q0 -27 -9.5 -52.5t-25.5 -46.5t-38 -35t-47 -19q83 -17 127.5 -69.5t44.5 -131.5q0 -97 -69 -150.5t-201 -58.5v19z" />
    <glyph glyph-name="greater" unicode="&#x3e;" horiz-adv-x="504" 
d="M469 250l-417 -250v22l388 237l-388 236v22l417 -249v-18z" />
    <glyph glyph-name="guillemotleft" unicode="&#xab;" horiz-adv-x="526" 
d="M50 268l237 169v-22l-218 -156l218 -157v-22l-237 170v18zM220 268l237 169v-22l-218 -156l218 -157v-22l-237 170v18z" />
    <glyph glyph-name="guillemotright" unicode="&#xbb;" horiz-adv-x="526" 
d="M476 250l-237 -170v22l218 157l-218 156v22l237 -169v-18zM306 250l-237 -170v22l218 157l-218 156v22l237 -169v-18z" />
    <glyph glyph-name="guilsinglleft" unicode="&#x2039;" horiz-adv-x="356" 
d="M50 268l237 169v-22l-218 -156l218 -157v-22l-237 170v18z" />
    <glyph glyph-name="guilsinglright" unicode="&#x203a;" horiz-adv-x="356" 
d="M306 250l-237 -170v22l218 157l-218 156v22l237 -169v-18z" />
    <glyph glyph-name="h" unicode="h" horiz-adv-x="562" 
d="M486 0h-20v289q0 218 -144 218q-36 0 -71 -14t-64.5 -38t-51.5 -56.5t-32 -70.5v-328h-20v730h20v-345q16 32 39.5 58.5t52 45t61 28.5t65.5 10q81 0 123 -60t42 -178v-289z" />
    <glyph glyph-name="hbar" unicode="&#x127;" horiz-adv-x="562" 
d="M486 0h-20v289q0 218 -144 218q-36 0 -71 -14t-64.5 -38t-51.5 -56.5t-32 -70.5v-328h-20v633h-74v20h74v77h20v-77h126v-20h-126v-248q16 32 39.5 58.5t52 45t61 28.5t65.5 10q81 0 123 -60t42 -178v-289z" />
    <glyph glyph-name="hcircumflex" unicode="&#x125;" horiz-adv-x="562" 
d="M486 0h-20v289q0 218 -144 218q-36 0 -71 -14t-64.5 -38t-51.5 -56.5t-32 -70.5v-328h-20v730h20v-345q16 32 39.5 58.5t52 45t61 28.5t65.5 10q81 0 123 -60t42 -178v-289zM200 655l93 74h16l93 -74l-16 -12l-85 63l-85 -63z" />
    <glyph glyph-name="hyphen" unicode="-" horiz-adv-x="427" 
d="M72 261v20h283v-20h-283z" />
    <glyph glyph-name="i" unicode="i" horiz-adv-x="186" 
d="M83 0v519h20v-519h-20zM83 653v77h20v-77h-20z" />
    <glyph glyph-name="iacute" unicode="&#xed;" horiz-adv-x="186" 
d="M83 0v519h20v-519h-20zM79 645l-16 12l64 73h34z" />
    <glyph glyph-name="ibreve" unicode="&#x12d;" horiz-adv-x="186" 
d="M83 0v519h20v-519h-20zM93 670q20 0 36.5 17.5t19.5 42.5h18q0 -15 -6 -29t-16.5 -24.5t-23.5 -17t-28 -6.5t-28 6.5t-23.5 17t-16.5 24.5t-6 29h19q0 -23 17 -41.5t38 -18.5z" />
    <glyph glyph-name="icircumflex" unicode="&#xee;" horiz-adv-x="186" 
d="M83 0v519h20v-519h-20zM-8 656l93 74h16l93 -74l-16 -12l-85 63l-85 -63z" />
    <glyph glyph-name="idieresis" unicode="&#xef;" horiz-adv-x="186" 
d="M83 0v519h20v-519h-20zM25 653v77h20v-77h-20zM141 653v77h20v-77h-20z" />
    <glyph glyph-name="igrave" unicode="&#xec;" horiz-adv-x="186" 
d="M83 0v519h20v-519h-20zM25 730h33l65 -73l-16 -12z" />
    <glyph glyph-name="ij" unicode="&#x133;" horiz-adv-x="372" 
d="M83 0v519h20v-519h-20zM83 653v77h20v-77h-20zM156 -170q-29 0 -54.5 7t-45.5 27l16 12q18 -16 40 -21t43 -5t41 9t36.5 24t26.5 36t10 45v555h20v-555q0 -29 -12 -53.5t-31 -42.5t-43 -28t-47 -10zM269 653v77h20v-77h-20z" />
    <glyph glyph-name="j" unicode="j" horiz-adv-x="186" 
d="M-30 -170q-29 0 -54.5 7t-45.5 27l16 12q18 -16 40 -21t43 -5t41 9t36.5 24t26.5 36t10 45v555h20v-555q0 -29 -12 -53.5t-31 -42.5t-43 -28t-47 -10zM83 653v77h20v-77h-20z" />
    <glyph glyph-name="imacron" unicode="&#x12b;" horiz-adv-x="186" 
d="M83 0v519h20v-519h-20zM-47 686v20h280v-20h-280z" />
    <glyph glyph-name="iogonek" unicode="&#x12f;" horiz-adv-x="187" 
d="M55 -159q-25 6 -38.5 22t-13.5 39q0 26 18.5 50t62.5 56v511h20v-519q-45 -31 -63 -51.5t-18 -43.5q0 -38 44 -47zM84 653v77h20v-77h-20z" />
    <glyph glyph-name="itilde" unicode="&#x129;" horiz-adv-x="186" 
d="M83 0v519h20v-519h-20zM154 663q-22 0 -38.5 6t-30.5 13t-27.5 13t-28.5 6q-16 0 -26 -6.5t-15.5 -15t-7.5 -16.5t-2 -10h-20q0 2 2 13t9.5 23t22 21.5t39.5 9.5q19 0 34 -6t29 -13t28.5 -13t33.5 -6q21 0 32.5 7t17.5 15.5t7.5 16t1.5 9.5h20q0 -3 -2.5 -14t-10.5 -23
t-24.5 -21t-43.5 -9z" />
    <glyph glyph-name="j.alt" horiz-adv-x="186" 
d="M83 517h20v-730h-20v730zM83 717h20v-64h-20v64z" />
    <glyph glyph-name="jcircumflex" unicode="&#x135;" horiz-adv-x="186" 
d="M-30 -170q-29 0 -54.5 7t-45.5 27l16 12q18 -16 40 -21t43 -5t41 9t36.5 24t26.5 36t10 45v555h20v-555q0 -29 -12 -53.5t-31 -42.5t-43 -28t-47 -10zM-8 656l93 74h16l93 -74l-16 -12l-85 63l-85 -63z" />
    <glyph glyph-name="k" unicode="k" horiz-adv-x="506" 
d="M465 0l-221 297l-141 -128v-169h-20v730h20v-534l354 321h27l-225 -206l230 -311h-24z" />
    <glyph glyph-name="kcommaaccent" unicode="&#x137;" horiz-adv-x="506" 
d="M465 0l-221 297l-141 -128v-169h-20v730h20v-534l354 321h27l-225 -206l230 -311h-24zM241 -127q13 0 13 13v64h20v-62q0 -35 -33 -35v20z" />
    <glyph glyph-name="kgreenlandic" unicode="&#x138;" horiz-adv-x="506" 
d="M465 0l-221 297l-141 -128v-169h-20v519h20v-323l354 321h27l-225 -206l230 -311h-24z" />
    <glyph glyph-name="l" unicode="l" horiz-adv-x="225" 
d="M88 730h20v-653q0 -29 18 -46t48 -17q11 0 26.5 2.5t28.5 6.5l7 -16q-14 -5 -34.5 -8.5t-34.5 -3.5q-35 0 -57 22.5t-22 59.5v653z" />
    <glyph glyph-name="l.alt" horiz-adv-x="202" 
d="M91 730h20v-730h-20v730z" />
    <glyph glyph-name="lacute" unicode="&#x13a;" horiz-adv-x="225" 
d="M88 730h20v-653q0 -29 18 -46t48 -17q11 0 26.5 2.5t28.5 6.5l7 -16q-14 -5 -34.5 -8.5t-34.5 -3.5q-35 0 -57 22.5t-22 59.5v653zM74 779l-16 12l64 73h34z" />
    <glyph glyph-name="lcaron" unicode="&#x13e;" horiz-adv-x="225" 
d="M88 730h20v-653q0 -29 18 -46t48 -17q11 0 26.5 2.5t28.5 6.5l7 -16q-14 -5 -34.5 -8.5t-34.5 -3.5q-35 0 -57 22.5t-22 59.5v653zM174 645l-16 12l64 73h34z" />
    <glyph glyph-name="lcommaaccent" unicode="&#x13c;" horiz-adv-x="225" 
d="M88 730h20v-653q0 -29 18 -46t48 -17q11 0 26.5 2.5t28.5 6.5l7 -16q-14 -5 -34.5 -8.5t-34.5 -3.5q-35 0 -57 22.5t-22 59.5v653zM137 -127q13 0 13 13v64h20v-62q0 -35 -33 -35v20z" />
    <glyph glyph-name="ldot" unicode="&#x140;" horiz-adv-x="252" 
d="M88 730h20v-653q0 -29 18 -46t48 -17q11 0 26.5 2.5t28.5 6.5l7 -16q-14 -5 -34.5 -8.5t-34.5 -3.5q-35 0 -57 22.5t-22 59.5v653zM214 250v83h20v-83h-20z" />
    <glyph glyph-name="less" unicode="&#x3c;" horiz-adv-x="504" 
d="M35 268l417 249v-22l-388 -236l388 -237v-22l-417 250v18z" />
    <glyph glyph-name="logicalnot" unicode="&#xac;" horiz-adv-x="570" 
d="M494 338v-198h-20v178h-383v20h403z" />
    <glyph glyph-name="lslash" unicode="&#x142;" horiz-adv-x="240" 
d="M101 377l-73 -73l-15 14l88 88v324h20v-304l92 92l15 -14l-107 -107v-320q0 -29 18 -46t48 -17q11 0 26.5 2.5t28.5 6.5l7 -16q-14 -5 -34.5 -8.5t-34.5 -3.5q-35 0 -57 22.5t-22 59.5v300z" />
    <glyph glyph-name="m" unicode="m" horiz-adv-x="906" 
d="M829 0h-20v289q0 112 -33.5 165t-105.5 53q-37 0 -69.5 -13.5t-59 -37.5t-46 -57t-29.5 -72v-327h-20v289q0 113 -33 165.5t-105 52.5q-36 0 -68.5 -13t-59 -36.5t-46.5 -56.5t-31 -73v-328h-20v519h20v-134q34 68 86.5 105t114.5 37q66 0 108 -41t50 -110
q78 151 208 151q81 0 120 -58.5t39 -179.5v-289z" />
    <glyph glyph-name="minus" unicode="&#x2212;" horiz-adv-x="555" 
d="M76 261v20h403v-20h-403z" />
    <glyph glyph-name="mu" unicode="&#xb5;" horiz-adv-x="570" 
d="M88 519h20v-291q0 -218 147 -218q37 0 73 13.5t66 37t52.5 56.5t34.5 72v330h20v-479q0 -20 16 -20v-20q-11 0 -14 2q-10 4 -16 14.5t-6 23.5v92q-34 -66 -95 -104t-131 -38q-109 0 -147 104v-306h-20v731z" />
    <glyph glyph-name="multiply" unicode="&#xd7;" horiz-adv-x="451" 
d="M375 135l-15 -14l-135 135l-135 -135l-14 15l134 134l-135 136l15 14l135 -135l136 136l14 -15l-136 -136z" />
    <glyph glyph-name="n" unicode="n" horiz-adv-x="563" 
d="M486 0h-20v289q0 114 -31.5 166t-101.5 52q-38 0 -74.5 -13.5t-67.5 -37.5t-54 -57t-34 -71v-328h-20v519h20v-134q16 31 41 57.5t55 45t64 29t69 10.5q80 0 117 -57.5t37 -180.5v-289z" />
    <glyph glyph-name="nacute" unicode="&#x144;" horiz-adv-x="563" 
d="M486 0h-20v289q0 114 -31.5 166t-101.5 52q-38 0 -74.5 -13.5t-67.5 -37.5t-54 -57t-34 -71v-328h-20v519h20v-134q16 31 41 57.5t55 45t64 29t69 10.5q80 0 117 -57.5t37 -180.5v-289zM265 645l-16 12l64 73h34z" />
    <glyph glyph-name="napostrophe" unicode="&#x149;" horiz-adv-x="563" 
d="M486 0h-20v289q0 114 -31.5 166t-101.5 52q-38 0 -74.5 -13.5t-67.5 -37.5t-54 -57t-34 -71v-328h-20v519h20v-134q16 31 41 57.5t55 45t64 29t69 10.5q80 0 117 -57.5t37 -180.5v-289zM25 645l-16 12l41 47l3 26h54z" />
    <glyph glyph-name="ncaron" unicode="&#x148;" horiz-adv-x="563" 
d="M486 0h-20v289q0 114 -31.5 166t-101.5 52q-38 0 -74.5 -13.5t-67.5 -37.5t-54 -57t-34 -71v-328h-20v519h20v-134q16 31 41 57.5t55 45t64 29t69 10.5q80 0 117 -57.5t37 -180.5v-289zM194 730l85 -63l85 63l16 -12l-93 -74h-16l-93 74z" />
    <glyph glyph-name="ncommaaccent" unicode="&#x146;" horiz-adv-x="563" 
d="M486 0h-20v289q0 114 -31.5 166t-101.5 52q-38 0 -74.5 -13.5t-67.5 -37.5t-54 -57t-34 -71v-328h-20v519h20v-134q16 31 41 57.5t55 45t64 29t69 10.5q80 0 117 -57.5t37 -180.5v-289zM256 -127q13 0 13 13v64h20v-62q0 -35 -33 -35v20z" />
    <glyph glyph-name="ndotaccent" unicode="&#x1e45;" horiz-adv-x="563" 
d="M486 0h-20v289q0 114 -31.5 166t-101.5 52q-38 0 -74.5 -13.5t-67.5 -37.5t-54 -57t-34 -71v-328h-20v519h20v-134q16 31 41 57.5t55 45t64 29t69 10.5q80 0 117 -57.5t37 -180.5v-289zM269 653v77h20v-77h-20z" />
    <glyph glyph-name="nine" unicode="9" horiz-adv-x="589" 
d="M42 329q0 50 19 94t52.5 77t78.5 52t96 19q53 0 98.5 -19t79.5 -55t53 -87t19 -115q0 -117 -18.5 -201.5t-52 -139.5t-80 -81.5t-101.5 -26.5q-73 0 -128.5 39.5t-77.5 107.5l19 7q9 -30 27.5 -54.5t43 -42.5t54 -27.5t61.5 -9.5q52 0 94.5 26t73 75.5t47 121.5t16.5 164
q-12 -37 -34.5 -68t-53.5 -53t-67.5 -34t-76.5 -12q-50 0 -94 19t-77 52t-52 77.5t-19 94.5zM286 551q-46 0 -87 -17.5t-71.5 -47.5t-48 -70.5t-17.5 -85.5q0 -46 18 -86.5t48.5 -71t71.5 -48.5t87 -18t87 18t71.5 48.5t48.5 71t18 85.5t-18 85.5t-49 71t-72 48t-87 17.5z
" />
    <glyph glyph-name="nine.lnum" horiz-adv-x="605" 
d="M48 473q0 50 19 94t52.5 77t78.5 52t96 19q53 0 98.5 -19t79.5 -55t53 -87t19 -115q0 -117 -18.5 -201.5t-52 -139.5t-80 -81.5t-101.5 -26.5q-73 0 -128.5 39.5t-77.5 107.5l19 7q9 -30 27.5 -54.5t43 -42.5t54 -27.5t61.5 -9.5q52 0 94.5 26t73 75.5t47 121.5t16.5 164
q-12 -37 -34.5 -68t-53.5 -53t-67.5 -34t-76.5 -12q-50 0 -94 19t-77 52t-52 77.5t-19 94.5zM292 695q-46 0 -87 -17.5t-71.5 -47.5t-48 -70.5t-17.5 -85.5q0 -46 18 -86.5t48.5 -71t71.5 -48.5t87 -18t87 18t71.5 48.5t48.5 71t18 85.5t-18 85.5t-49 71t-72 48t-87 17.5z
" />
    <glyph glyph-name="nineinferior" unicode="&#x2089;" horiz-adv-x="391" 
d="M37 255q0 27 12 51t32.5 42t48.5 28t60 10q33 0 61.5 -10.5t49.5 -30.5t33 -48t12 -64q0 -62 -11.5 -106.5t-32.5 -74t-50 -43.5t-64 -14q-45 0 -79.5 20.5t-48.5 55.5l15 10q12 -31 43 -49.5t70 -18.5q62 0 100 50.5t38 143.5q-14 -37 -53 -60t-86 -23q-31 0 -58.5 10.5
t-47.5 28t-32 41.5t-12 51zM189 368q-27 0 -51 -9t-42 -24t-28.5 -35.5t-10.5 -43.5t10.5 -44t29 -36.5t42.5 -24.5t51 -9t51.5 9t42.5 24.5t28.5 36t10.5 43.5t-10.5 43.5t-29 36t-43 24.5t-51.5 9z" />
    <glyph glyph-name="ninesuperior" unicode="&#x2079;" horiz-adv-x="391" 
d="M37 599q0 27 12 51t32.5 42t48.5 28t60 10q33 0 61.5 -10.5t49.5 -30.5t33 -48t12 -64q0 -62 -11.5 -106.5t-32.5 -74t-50 -43.5t-64 -14q-45 0 -79.5 20.5t-48.5 55.5l15 10q12 -31 43 -49.5t70 -18.5q62 0 100 50.5t38 143.5q-14 -37 -53 -60t-86 -23q-31 0 -58.5 10.5
t-47.5 28t-32 41.5t-12 51zM189 712q-27 0 -51 -9t-42 -24t-28.5 -35.5t-10.5 -43.5t10.5 -44t29 -36.5t42.5 -24.5t51 -9t51.5 9t42.5 24.5t28.5 36t10.5 43.5t-10.5 43.5t-29 36t-43 24.5t-51.5 9z" />
    <glyph glyph-name="ntilde" unicode="&#xf1;" horiz-adv-x="563" 
d="M486 0h-20v289q0 114 -31.5 166t-101.5 52q-38 0 -74.5 -13.5t-67.5 -37.5t-54 -57t-34 -71v-328h-20v519h20v-134q16 31 41 57.5t55 45t64 29t69 10.5q80 0 117 -57.5t37 -180.5v-289zM340 663q-22 0 -38.5 6t-30.5 13t-27.5 13t-28.5 6q-16 0 -26 -6.5t-15.5 -15
t-7.5 -16.5t-2 -10h-20q0 2 2 13t9.5 23t22 21.5t39.5 9.5q19 0 34 -6t29 -13t28.5 -13t33.5 -6q21 0 32.5 7t17.5 15.5t7.5 16t1.5 9.5h20q0 -3 -2.5 -14t-10.5 -23t-24.5 -21t-43.5 -9z" />
    <glyph glyph-name="numbersign" unicode="#" horiz-adv-x="655" 
d="M615 481h-118l-58 -240h136v-20h-141l-53 -221h-21l54 221h-240l-53 -221h-21l54 221h-113v20h118l58 240h-136v20h141l51 209h21l-52 -209h240l51 209h21l-52 -209h113v-20zM419 241l58 240h-240l-58 -240h240z" />
    <glyph glyph-name="o" unicode="o" horiz-adv-x="588" 
d="M294 -10q-51 0 -96 21.5t-78.5 58t-53 85.5t-19.5 103q0 55 19.5 103.5t53.5 85.5t79 58.5t95 21.5t95 -21.5t78.5 -58.5t53.5 -85.5t20 -103.5q0 -54 -19.5 -103t-53 -85.5t-78.5 -58t-96 -21.5zM67 256q0 -50 18 -95t48.5 -78.5t71.5 -53t88 -19.5q46 0 87.5 20t73 54
t49.5 79t18 96q0 50 -18 95t-49 79t-72.5 54t-87.5 20t-87.5 -20t-72.5 -54.5t-49 -80t-18 -96.5z" />
    <glyph glyph-name="oacute" unicode="&#xf3;" horiz-adv-x="588" 
d="M294 -10q-51 0 -96 21.5t-78.5 58t-53 85.5t-19.5 103q0 55 19.5 103.5t53.5 85.5t79 58.5t95 21.5t95 -21.5t78.5 -58.5t53.5 -85.5t20 -103.5q0 -54 -19.5 -103t-53 -85.5t-78.5 -58t-96 -21.5zM67 256q0 -50 18 -95t48.5 -78.5t71.5 -53t88 -19.5q46 0 87.5 20t73 54
t49.5 79t18 96q0 50 -18 95t-49 79t-72.5 54t-87.5 20t-87.5 -20t-72.5 -54.5t-49 -80t-18 -96.5zM280 645l-16 12l64 73h34z" />
    <glyph glyph-name="obreve" unicode="&#x14f;" horiz-adv-x="588" 
d="M294 -10q-51 0 -96 21.5t-78.5 58t-53 85.5t-19.5 103q0 55 19.5 103.5t53.5 85.5t79 58.5t95 21.5t95 -21.5t78.5 -58.5t53.5 -85.5t20 -103.5q0 -54 -19.5 -103t-53 -85.5t-78.5 -58t-96 -21.5zM67 256q0 -50 18 -95t48.5 -78.5t71.5 -53t88 -19.5q46 0 87.5 20t73 54
t49.5 79t18 96q0 50 -18 95t-49 79t-72.5 54t-87.5 20t-87.5 -20t-72.5 -54.5t-49 -80t-18 -96.5zM294 670q20 0 36.5 17.5t19.5 42.5h18q0 -15 -6 -29t-16.5 -24.5t-23.5 -17t-28 -6.5t-28 6.5t-23.5 17t-16.5 24.5t-6 29h19q0 -23 17 -41.5t38 -18.5z" />
    <glyph glyph-name="ocircumflex" unicode="&#xf4;" horiz-adv-x="588" 
d="M294 -10q-51 0 -96 21.5t-78.5 58t-53 85.5t-19.5 103q0 55 19.5 103.5t53.5 85.5t79 58.5t95 21.5t95 -21.5t78.5 -58.5t53.5 -85.5t20 -103.5q0 -54 -19.5 -103t-53 -85.5t-78.5 -58t-96 -21.5zM67 256q0 -50 18 -95t48.5 -78.5t71.5 -53t88 -19.5q46 0 87.5 20t73 54
t49.5 79t18 96q0 50 -18 95t-49 79t-72.5 54t-87.5 20t-87.5 -20t-72.5 -54.5t-49 -80t-18 -96.5zM193 656l93 74h16l93 -74l-16 -12l-85 63l-85 -63z" />
    <glyph glyph-name="odieresis" unicode="&#xf6;" horiz-adv-x="588" 
d="M294 -10q-51 0 -96 21.5t-78.5 58t-53 85.5t-19.5 103q0 55 19.5 103.5t53.5 85.5t79 58.5t95 21.5t95 -21.5t78.5 -58.5t53.5 -85.5t20 -103.5q0 -54 -19.5 -103t-53 -85.5t-78.5 -58t-96 -21.5zM67 256q0 -50 18 -95t48.5 -78.5t71.5 -53t88 -19.5q46 0 87.5 20t73 54
t49.5 79t18 96q0 50 -18 95t-49 79t-72.5 54t-87.5 20t-87.5 -20t-72.5 -54.5t-49 -80t-18 -96.5zM226 653v77h20v-77h-20zM342 653v77h20v-77h-20z" />
    <glyph glyph-name="oe" unicode="&#x153;" horiz-adv-x="1053" 
d="M293 -10q-51 0 -95.5 21t-78 57t-52.5 84.5t-19 104.5t19.5 105t53 86t79 58t97.5 21q41 0 78.5 -14t68.5 -39.5t53 -61.5t33 -80q10 45 32 81t53 61.5t70 39t83 13.5q52 0 95 -18.5t75 -53.5t52 -84.5t26 -111.5l1 -11h-475q4 -50 24.5 -93.5t52.5 -75.5t74.5 -50.5
t89.5 -18.5q31 0 60.5 8t54 22.5t43 34.5t28.5 44l19 -5q-11 -27 -32.5 -50t-49 -39.5t-60 -25.5t-65.5 -9q-42 0 -81.5 14.5t-73 40.5t-58 62t-36.5 78q-12 -44 -35 -80t-54.5 -61.5t-69.5 -39.5t-80 -14zM294 10q47 0 88.5 19.5t72.5 53t49 79t18 96.5t-18 96.5
t-48.5 79.5t-72 53.5t-87.5 19.5q-47 0 -88.5 -20t-72.5 -54.5t-49 -80t-18 -97.5q0 -51 17.5 -95.5t48.5 -78t72 -52.5t88 -19zM996 268q-3 52 -22 96t-49.5 75.5t-70.5 49.5t-86 18t-86 -18t-70.5 -50t-48.5 -76t-21 -95h454z" />
    <glyph glyph-name="ograve" unicode="&#xf2;" horiz-adv-x="588" 
d="M294 -10q-51 0 -96 21.5t-78.5 58t-53 85.5t-19.5 103q0 55 19.5 103.5t53.5 85.5t79 58.5t95 21.5t95 -21.5t78.5 -58.5t53.5 -85.5t20 -103.5q0 -54 -19.5 -103t-53 -85.5t-78.5 -58t-96 -21.5zM67 256q0 -50 18 -95t48.5 -78.5t71.5 -53t88 -19.5q46 0 87.5 20t73 54
t49.5 79t18 96q0 50 -18 95t-49 79t-72.5 54t-87.5 20t-87.5 -20t-72.5 -54.5t-49 -80t-18 -96.5zM226 730h33l65 -73l-16 -12z" />
    <glyph glyph-name="ohungarumlaut" unicode="&#x151;" horiz-adv-x="588" 
d="M294 -10q-51 0 -96 21.5t-78.5 58t-53 85.5t-19.5 103q0 55 19.5 103.5t53.5 85.5t79 58.5t95 21.5t95 -21.5t78.5 -58.5t53.5 -85.5t20 -103.5q0 -54 -19.5 -103t-53 -85.5t-78.5 -58t-96 -21.5zM67 256q0 -50 18 -95t48.5 -78.5t71.5 -53t88 -19.5q46 0 87.5 20t73 54
t49.5 79t18 96q0 50 -18 95t-49 79t-72.5 54t-87.5 20t-87.5 -20t-72.5 -54.5t-49 -80t-18 -96.5zM230 645l-16 12l64 73h34zM330 645l-16 12l64 73h34z" />
    <glyph glyph-name="omacron" unicode="&#x14d;" horiz-adv-x="588" 
d="M294 -10q-51 0 -96 21.5t-78.5 58t-53 85.5t-19.5 103q0 55 19.5 103.5t53.5 85.5t79 58.5t95 21.5t95 -21.5t78.5 -58.5t53.5 -85.5t20 -103.5q0 -54 -19.5 -103t-53 -85.5t-78.5 -58t-96 -21.5zM67 256q0 -50 18 -95t48.5 -78.5t71.5 -53t88 -19.5q46 0 87.5 20t73 54
t49.5 79t18 96q0 50 -18 95t-49 79t-72.5 54t-87.5 20t-87.5 -20t-72.5 -54.5t-49 -80t-18 -96.5zM154 686v20h280v-20h-280z" />
    <glyph glyph-name="one" unicode="1" horiz-adv-x="381" 
d="M359 20v-20h-289v20h142v518q-8 -12 -27.5 -26.5t-43 -28t-49 -22.5t-45.5 -9v24q27 0 56 14.5t53 31.5t39.5 32t16.5 17h20v-551h127z" />
    <glyph glyph-name="one.lnum" horiz-adv-x="362" 
d="M343 20v-20h-279v20h132v667q-8 -12 -26 -26.5t-39.5 -28t-45.5 -22.5t-44 -9v20q26 0 53 15t49.5 33t37 33.5t15.5 17.5h20v-700h127z" />
    <glyph glyph-name="oneeighth" unicode="&#x215b;" horiz-adv-x="799" 
d="M757 103q0 -24 -12 -44t-33 -34t-48 -21.5t-57 -7.5q-33 0 -60.5 9t-46.5 24t-29.5 34.5t-10.5 41.5q0 19 8.5 35.5t22.5 29.5t31.5 22t35.5 14q-33 11 -57.5 32t-24.5 52q0 22 11.5 39.5t30.5 29.5t43 18t48 6t48 -6t42.5 -18t30 -29.5t11.5 -39.5q0 -31 -24.5 -52.5
t-58.5 -31.5q42 -11 70.5 -38t28.5 -65zM737 105q0 22 -12 39t-30.5 29t-41.5 18t-45 6q-23 0 -46 -6.5t-41 -19t-29.5 -29.5t-11.5 -38t12 -38t30.5 -28.5t41.5 -17.5t45 -6q23 0 46 6.5t41 18t29.5 28.5t11.5 38zM496 289q0 -18 10.5 -32t26.5 -23.5t36 -14.5t39 -5
t39.5 5t36.5 15t26.5 24t10.5 32t-9.5 31.5t-25.5 23.5t-36.5 15t-41.5 5q-22 0 -42 -5.5t-35.5 -15t-25 -23.5t-9.5 -32zM245 361v-19h-181v19h83v344q-5 -6 -16.5 -14.5t-25 -15.5t-28.5 -12t-27 -5v19q16 0 33 8t31 18t23 18.5t10 9.5h20v-370h78zM93 11l558 700l16 -12
l-558 -700z" />
    <glyph glyph-name="onesuperior" unicode="&#xb9;" horiz-adv-x="253" 
d="M230 361v-19h-181v19h83v344q-5 -6 -16.5 -14.5t-25 -15.5t-28.5 -12t-27 -5v19q16 0 33 8t31 18t23 18.5t10 9.5h20v-370h78z" />
    <glyph glyph-name="onehalf" unicode="&#xbd;" horiz-adv-x="805" 
d="M472 0q0 74 33 113t90 60q22 8 47 16t45.5 19.5t34 28.5t13.5 43q0 17 -7 33t-21 28.5t-35 20t-50 7.5q-27 0 -48.5 -6.5t-37.5 -15.5t-27 -19.5t-17 -18.5l-15 12q1 2 10.5 12.5t27.5 22.5t45.5 22t63.5 10q34 0 58.5 -9t41 -24t24.5 -35t8 -41q0 -30 -15 -49.5
t-37 -32.5t-47.5 -21.5l-46.5 -15.5q-39 -14 -62 -32t-34 -37t-14 -38t-3 -34h260v-19h-285zM248 361v-19h-181v19h83v344q-5 -6 -16.5 -14.5t-25 -15.5t-28.5 -12t-27 -5v19q16 0 33 8t31 18t23 18.5t10 9.5h20v-370h78zM74 11l558 700l16 -12l-558 -700z" />
    <glyph glyph-name="twoinferior" unicode="&#x2082;" horiz-adv-x="369" 
d="M40 0q0 74 33 113t90 60q22 8 47 16t45.5 19.5t34 28.5t13.5 43q0 17 -7 33t-21 28.5t-35 20t-50 7.5q-27 0 -48.5 -6.5t-37.5 -15.5t-27 -19.5t-17 -18.5l-15 12q1 2 10.5 12.5t27.5 22.5t45.5 22t63.5 10q34 0 58.5 -9t41 -24t24.5 -35t8 -41q0 -30 -15 -49.5
t-37 -32.5t-47.5 -21.5l-46.5 -15.5q-39 -14 -62 -32t-34 -37t-14 -38t-3 -34h260v-19h-285z" />
    <glyph glyph-name="oneinferior" unicode="&#x2081;" horiz-adv-x="252" 
d="M230 19v-19h-181v19h83v344q-5 -6 -16.5 -14.5t-25 -15.5t-28.5 -12t-27 -5v19q16 0 33 8t31 18t23 18.5t10 9.5h20v-370h78z" />
    <glyph glyph-name="onequarter" unicode="&#xbc;" horiz-adv-x="757" 
d="M641 0v110h-233v17l239 256h14v-254h55v-19h-55v-110h-20zM436 129h205v219zM243 361v-19h-181v19h83v344q-5 -6 -16.5 -14.5t-25 -15.5t-28.5 -12t-27 -5v19q16 0 33 8t31 18t23 18.5t10 9.5h20v-370h78zM105 11l558 700l16 -12l-558 -700z" />
    <glyph glyph-name="onethird" unicode="&#x2153;" horiz-adv-x="799" 
d="M609 -5q-31 0 -57.5 7t-46.5 20t-32 30.5t-13 38.5l16 7q1 -17 11.5 -32t28.5 -26.5t42 -18.5t51 -7t50 6.5t40.5 17.5t27 27t9.5 34q0 40 -41 63.5t-108 23.5h-22v18h22q66 0 101 19.5t35 57.5q0 39 -34.5 64t-87.5 25q-42 0 -74 -17t-45 -43l-15 12q15 30 51.5 48
t82.5 18q31 0 57 -8t45 -22.5t30 -34t11 -41.5q0 -67 -89 -87q46 -8 73.5 -34.5t27.5 -63.5q0 -22 -11.5 -41t-31.5 -32.5t-46.5 -21t-57.5 -7.5zM246 361v-19h-181v19h83v344q-5 -6 -16.5 -14.5t-25 -15.5t-28.5 -12t-27 -5v19q16 0 33 8t31 18t23 18.5t10 9.5h20v-370h78z
M81 11l558 700l16 -12l-558 -700z" />
    <glyph glyph-name="threeinferior" unicode="&#x2083;" horiz-adv-x="380" 
d="M190 -5q-31 0 -57.5 7t-46.5 20t-32 30.5t-13 38.5l16 7q1 -17 11.5 -32t28.5 -26.5t42 -18.5t51 -7t50 6.5t40.5 17.5t27 27t9.5 34q0 40 -41 63.5t-108 23.5h-22v18h22q66 0 101 19.5t35 57.5q0 39 -34.5 64t-87.5 25q-42 0 -74 -17t-45 -43l-15 12q15 30 51.5 48
t82.5 18q31 0 57 -8t45 -22.5t30 -34t11 -41.5q0 -67 -89 -87q46 -8 73.5 -34.5t27.5 -63.5q0 -22 -11.5 -41t-31.5 -32.5t-46.5 -21t-57.5 -7.5z" />
    <glyph glyph-name="oogonek" unicode="&#x1eb;" horiz-adv-x="590" 
d="M268 -168q-25 6 -38.5 22t-13.5 39t16 45.5t53 51.5q-50 2 -93 24.5t-75 58.5t-50.5 84t-18.5 101q0 55 19.5 103.5t53.5 85.5t79 58.5t95 21.5t95 -21.5t78.5 -58.5t53.5 -85.5t20 -103.5q0 -51 -17.5 -97.5t-48 -82.5t-71.5 -59.5t-88 -27.5q-45 -31 -63 -51.5
t-18 -43.5q0 -38 44 -47zM68 256q0 -50 18 -95t48.5 -78.5t71.5 -53t88 -19.5q46 0 87.5 20t73 54t49.5 79t18 96q0 50 -18 95t-49 79t-72.5 54t-87.5 20t-87.5 -20t-72.5 -54.5t-49 -80t-18 -96.5z" />
    <glyph glyph-name="ordfeminine" unicode="&#xaa;" horiz-adv-x="427" 
d="M170 351q-25 0 -46.5 8.5t-37.5 22.5t-25 33.5t-9 42.5q0 22 11 41t31 32.5t47 21t60 7.5q30 0 60.5 -5t54.5 -14v35q0 49 -30 78.5t-81 29.5q-54 0 -116 -41l-13 20q70 46 131 46q65 0 102.5 -36t37.5 -100v-171q0 -16 14 -16v-29q-20 0 -30 6.5t-11 23.5l-1 29
q-25 -31 -64.5 -48t-84.5 -17zM176 377q25 0 50 6.5t45 17.5t32.5 25.5t12.5 30.5v61q-26 11 -54 15t-57 4q-55 0 -89 -21t-34 -57q0 -35 27 -58.5t67 -23.5z" />
    <glyph glyph-name="ordmasculine" unicode="&#xba;" horiz-adv-x="452" 
d="M225 351q-37 0 -69 14.5t-55.5 39t-37 56.5t-13.5 68q0 37 13.5 69.5t37 57t55.5 39t69 14.5t69.5 -14.5t56.5 -39t37.5 -57t13.5 -69.5q0 -36 -13.5 -68t-37.5 -56.5t-56.5 -39t-69.5 -14.5zM81 528q0 -31 11.5 -58t31 -47.5t45.5 -32t56 -11.5t56.5 12t46.5 32.5
t31.5 48t11.5 58.5t-11.5 58.5t-31.5 47.5t-46.5 32t-56.5 12q-29 0 -55.5 -12t-46 -32.5t-31 -48.5t-11.5 -59z" />
    <glyph glyph-name="oslash" unicode="&#xf8;" horiz-adv-x="588" 
d="M149 41q-47 38 -74.5 94.5t-27.5 122.5q0 55 19.5 103.5t53.5 85.5t79 58.5t95 21.5q35 0 67 -10.5t60 -29.5l20 32h26l-28 -45q46 -38 74 -94t28 -122q0 -54 -19.5 -103t-53 -85.5t-78.5 -58t-96 -21.5q-35 0 -67.5 10t-60.5 29l-17 -29h-25zM67 256q0 -60 25 -112
t67 -86l252 412q-26 17 -55.5 27t-61.5 10q-46 0 -87.5 -20t-72.5 -54.5t-49 -80t-18 -96.5zM293 10q46 0 87.5 20t73 54t49.5 79t18 96q0 60 -25 111t-67 86l-252 -410q53 -36 116 -36z" />
    <glyph glyph-name="oslashacute" unicode="&#x1ff;" horiz-adv-x="588" 
d="M149 41q-47 38 -74.5 94.5t-27.5 122.5q0 55 19.5 103.5t53.5 85.5t79 58.5t95 21.5q35 0 67 -10.5t60 -29.5l20 32h26l-28 -45q46 -38 74 -94t28 -122q0 -54 -19.5 -103t-53 -85.5t-78.5 -58t-96 -21.5q-35 0 -67.5 10t-60.5 29l-17 -29h-25zM67 256q0 -60 25 -112
t67 -86l252 412q-26 17 -55.5 27t-61.5 10q-46 0 -87.5 -20t-72.5 -54.5t-49 -80t-18 -96.5zM293 10q46 0 87.5 20t73 54t49.5 79t18 96q0 60 -25 111t-67 86l-252 -410q53 -36 116 -36zM280 645l-16 12l64 73h34z" />
    <glyph glyph-name="otilde" unicode="&#xf5;" horiz-adv-x="588" 
d="M294 -10q-51 0 -96 21.5t-78.5 58t-53 85.5t-19.5 103q0 55 19.5 103.5t53.5 85.5t79 58.5t95 21.5t95 -21.5t78.5 -58.5t53.5 -85.5t20 -103.5q0 -54 -19.5 -103t-53 -85.5t-78.5 -58t-96 -21.5zM67 256q0 -50 18 -95t48.5 -78.5t71.5 -53t88 -19.5q46 0 87.5 20t73 54
t49.5 79t18 96q0 50 -18 95t-49 79t-72.5 54t-87.5 20t-87.5 -20t-72.5 -54.5t-49 -80t-18 -96.5zM355 663q-22 0 -38.5 6t-30.5 13t-27.5 13t-28.5 6q-16 0 -26 -6.5t-15.5 -15t-7.5 -16.5t-2 -10h-20q0 2 2 13t9.5 23t22 21.5t39.5 9.5q19 0 34 -6t29 -13t28.5 -13
t33.5 -6q21 0 32.5 7t17.5 15.5t7.5 16t1.5 9.5h20q0 -3 -2.5 -14t-10.5 -23t-24.5 -21t-43.5 -9z" />
    <glyph glyph-name="p" unicode="p" horiz-adv-x="603" 
d="M315 -10q-35 0 -66 10.5t-58 28t-49 41t-39 49.5v-332h-20v732h20v-110q16 26 39 47.5t49.5 37.5t55.5 24.5t59 8.5q55 0 101 -23.5t79 -61.5t51.5 -86t18.5 -98q0 -53 -17.5 -101.5t-49 -85.5t-76 -59t-98.5 -22zM315 10q51 0 91.5 21.5t69.5 56.5t44.5 79.5t15.5 90.5
q0 49 -18 94t-49 79.5t-73 55t-90 20.5q-30 0 -65 -13t-65 -35t-50.5 -51t-22.5 -60v-187q14 -32 36 -59.5t49.5 -47.5t59.5 -32t67 -12z" />
    <glyph glyph-name="paragraph" unicode="&#xb6;" horiz-adv-x="560" 
d="M37 479q0 54 19 96.5t55.5 72.5t89 46t118.5 16h201v-20h-70v-770h-20v328h-91v-328h-20v328q-66 1 -118 17t-88.5 45.5t-56 72t-19.5 96.5zM57 479q0 -55 21 -94t57 -64.5t83.5 -38t100.5 -14.5v422q-128 0 -195 -55.5t-67 -155.5zM430 690h-91v-422h91v422z" />
    <glyph glyph-name="parenleft" unicode="(" horiz-adv-x="239" 
d="M52 345q0 51 10.5 99.5t28.5 96t42.5 93.5t51.5 92l16 -12q-24 -35 -47.5 -80.5t-41.5 -95t-29.5 -100.5t-11.5 -96q0 -38 8.5 -82t25 -90t41 -93t55.5 -91l-16 -12q-65 95 -99 187.5t-34 183.5z" />
    <glyph glyph-name="parenright" unicode=")" horiz-adv-x="239" 
d="M187 345q0 -91 -34 -183.5t-99 -187.5l-16 12q31 44 55.5 91t41 93t25 90t8.5 82q0 45 -11.5 96t-29.5 100.5t-41.5 95t-47.5 80.5l16 12q27 -46 51.5 -92t42.5 -93.5t28.5 -96t10.5 -99.5z" />
    <glyph glyph-name="percent" unicode="%" horiz-adv-x="675" 
d="M188 444q-29 0 -54 11t-43.5 29.5t-29.5 43.5t-11 54q0 28 11 53.5t29.5 44t43.5 29.5t54 11q28 0 53.5 -11t44 -29.5t29.5 -44t11 -53.5q0 -29 -11 -54t-29.5 -43.5t-44 -29.5t-53.5 -11zM188 464q25 0 46.5 9.5t37.5 26t25 38t9 44.5q0 25 -9.5 46.5t-26 37.5t-38 25
t-44.5 9q-25 0 -46.5 -9.5t-37.5 -26t-25 -38t-9 -44.5q0 -25 9.5 -46.5t25.5 -37.5t37.5 -25t45.5 -9zM487 -10q-29 0 -54 10.5t-43.5 29.5t-29.5 44t-11 54q0 28 11 53.5t29.5 44t43.5 29.5t54 11q28 0 53.5 -11t44 -29.5t29.5 -44t11 -53.5q0 -29 -11 -54t-29.5 -44
t-44 -29.5t-53.5 -10.5zM487 10q25 0 46.5 9.5t37.5 26t25 37.5t9 45t-9.5 45.5t-26 37.5t-38 25.5t-44.5 9.5q-25 0 -46.5 -9.5t-37.5 -26t-25 -38t-9 -44.5q0 -25 9.5 -46.5t25.5 -37.5t37.5 -25t45.5 -9zM50 11l558 700l16 -12l-558 -700z" />
    <glyph glyph-name="period" unicode="." horiz-adv-x="164" 
d="M72 0v64h20v-64h-20z" />
    <glyph glyph-name="perthousand" unicode="&#x2030;" horiz-adv-x="996" 
d="M193 444q-29 0 -54 11t-43.5 29.5t-29.5 43.5t-11 54q0 28 11 53.5t29.5 44t43.5 29.5t54 11q28 0 53.5 -11t44 -29.5t29.5 -44t11 -53.5q0 -29 -11 -54t-29.5 -43.5t-44 -29.5t-53.5 -11zM193 464q25 0 46.5 9.5t37.5 26t25 38t9 44.5q0 25 -9.5 46.5t-26 37.5t-38 25
t-44.5 9q-25 0 -46.5 -9.5t-37.5 -26t-25 -38t-9 -44.5q0 -25 9.5 -46.5t25.5 -37.5t37.5 -25t45.5 -9zM492 -10q-29 0 -54 10.5t-43.5 29.5t-29.5 44t-11 54q0 28 11 53.5t29.5 44t43.5 29.5t54 11q28 0 53.5 -11t44 -29.5t29.5 -44t11 -53.5q0 -29 -11 -54t-29.5 -44
t-44 -29.5t-53.5 -10.5zM492 10q25 0 46.5 9.5t37.5 26t25 37.5t9 45t-9.5 45.5t-26 37.5t-38 25.5t-44.5 9.5q-25 0 -46.5 -9.5t-37.5 -26t-25 -38t-9 -44.5q0 -25 9.5 -46.5t25.5 -37.5t37.5 -25t45.5 -9zM823 -10q-29 0 -54 10.5t-43.5 29.5t-29.5 44t-11 54
q0 28 11 53.5t29.5 44t43.5 29.5t54 11q28 0 53.5 -11t44 -29.5t29.5 -44t11 -53.5q0 -29 -11 -54t-29.5 -44t-44 -29.5t-53.5 -10.5zM823 10q25 0 46.5 9.5t37.5 26t25 37.5t9 45t-9.5 45.5t-26 37.5t-38 25.5t-44.5 9.5q-25 0 -46.5 -9.5t-37.5 -26t-25 -38t-9 -44.5
q0 -25 9.5 -46.5t25.5 -37.5t37.5 -25t45.5 -9zM55 11l558 700l16 -12l-558 -700z" />
    <glyph glyph-name="plus" unicode="+" horiz-adv-x="414" 
d="M357 365v-20h-140v-150h-20v150h-140v20h140v150h20v-150h140z" />
    <glyph glyph-name="plusminus" unicode="&#xb1;" horiz-adv-x="452" 
d="M76 85v20h300v-20h-300zM376 365v-20h-140v-150h-20v150h-140v20h140v150h20v-150h140z" />
    <glyph glyph-name="q" unicode="q" horiz-adv-x="603" 
d="M288 -10q-55 0 -99.5 23t-76 60.5t-48.5 85.5t-17 99q0 53 19.5 101.5t53.5 86t79.5 59.5t97.5 22q31 0 60.5 -9t56 -25t49 -37.5t37.5 -46.5v110h20v-692q0 -20 16 -20v-20q-10 0 -14 2q-11 5 -16.5 15.5t-5.5 22.5v292q-44 -63 -97.5 -96t-114.5 -33zM288 10
q37 0 69 12.5t59 33.5t48 48t36 57v187q-3 31 -23 60t-49 51t-63.5 35t-67.5 13q-51 0 -93 -21.5t-72.5 -57t-47.5 -80t-17 -90.5q0 -49 16.5 -94t46 -79t70 -54.5t88.5 -20.5z" />
    <glyph glyph-name="q.alt" horiz-adv-x="603" 
d="M288 -10q-55 0 -99.5 23t-76 60.5t-48.5 85.5t-17 99q0 53 19.5 101.5t53.5 86t79.5 59.5t97.5 22q31 0 60.5 -9t56 -25t49 -37.5t37.5 -46.5v110h20v-732h-20v332q-44 -63 -97.5 -96t-114.5 -33zM288 10q37 0 69 12.5t59 33.5t48 48t36 57v187q-3 31 -23 60t-49 51
t-63.5 35t-67.5 13q-51 0 -93 -21.5t-72.5 -57t-47.5 -80t-17 -90.5q0 -49 16.5 -94t46 -79t70 -54.5t88.5 -20.5z" />
    <glyph glyph-name="question" unicode="?" horiz-adv-x="471" 
d="M179 179q0 48 6.5 79.5t18 52.5t27.5 33.5t34 21.5l49.5 24t47 30t35.5 45t14 70t-14 74t-37.5 51t-53.5 29.5t-61 9.5q-30 0 -59 -8t-54 -23.5t-45 -37t-33 -48.5l-18 8q14 31 36.5 55t50 40.5t59 25t62.5 8.5q36 0 70 -12t60 -35.5t41.5 -58.5t15.5 -81
q0 -45 -14.5 -74.5t-37.5 -49t-51 -33t-55 -28.5q-16 -9 -29.5 -19.5t-23.5 -29t-15.5 -47t-5.5 -72.5h-20zM179 0v84h20v-84h-20z" />
    <glyph glyph-name="questiondown" unicode="&#xbf;" horiz-adv-x="464" 
d="M288 327q0 -48 -6.5 -79.5t-18 -52.5t-27.5 -33.5t-34 -21.5l-49.5 -24t-47 -30t-35.5 -45t-14 -70t14 -74t37.5 -51t53 -29.5t61.5 -9.5q30 0 59 8t54 23.5t45 37t33 48.5l18 -8q-14 -31 -36.5 -55t-50.5 -40.5t-59 -25t-62 -8.5q-36 0 -70 12t-60 35.5t-41.5 58.5
t-15.5 81q0 45 14.5 74.5t37.5 49t51 33t55 28.5q16 9 29.5 19.5t23.5 29t15.5 47t5.5 72.5h20zM288 506v-84h-20v84h20z" />
    <glyph glyph-name="quotedbl" unicode="&#x22;" horiz-adv-x="202" 
d="M66 626v84h20v-84h-20zM116 626v84h20v-84h-20z" />
    <glyph glyph-name="quotedblbase" unicode="&#x201e;" horiz-adv-x="252" 
d="M71 -13q13 0 13 13v64h20v-62q0 -35 -33 -35v20zM141 -13q13 0 13 13v64h20v-62q0 -35 -33 -35v20z" />
    <glyph glyph-name="quotesinglbase" unicode="&#x201a;" horiz-adv-x="182" 
d="M71 -13q13 0 13 13v64h20v-62q0 -35 -33 -35v20z" />
    <glyph glyph-name="quotedblleft" unicode="&#x201c;" horiz-adv-x="246" 
d="M99 583q-33 0 -33 35v112h20v-114q0 -13 13 -13v-20zM179 583q-33 0 -33 35v112h20v-114q0 -13 13 -13v-20z" />
    <glyph glyph-name="quoteleft" unicode="&#x2018;" horiz-adv-x="166" 
d="M99 583q-33 0 -33 35v112h20v-114q0 -13 13 -13v-20z" />
    <glyph glyph-name="quotedblright" unicode="&#x201d;" horiz-adv-x="244" 
d="M59 730q33 0 33 -35v-112h-20v114q0 13 -13 13v20zM139 730q33 0 33 -35v-112h-20v114q0 13 -13 13v20z" />
    <glyph glyph-name="quoteright" unicode="&#x2019;" horiz-adv-x="164" 
d="M59 730q33 0 33 -35v-112h-20v114q0 13 -13 13v20z" />
    <glyph glyph-name="quotesingle" unicode="'" horiz-adv-x="132" 
d="M56 646v64h20v-64h-20z" />
    <glyph glyph-name="r" unicode="r" horiz-adv-x="325" 
d="M305 499q-74 -3 -127.5 -48t-74.5 -123v-328h-20v519h20v-134q27 55 72.5 90.5t96.5 41.5q10 1 18.5 1.5t14.5 0.5v-20z" />
    <glyph glyph-name="racute" unicode="&#x155;" horiz-adv-x="325" 
d="M305 499q-74 -3 -127.5 -48t-74.5 -123v-328h-20v519h20v-134q27 55 72.5 90.5t96.5 41.5q10 1 18.5 1.5t14.5 0.5v-20zM161 645l-16 12l64 73h34z" />
    <glyph glyph-name="rcaron" unicode="&#x159;" horiz-adv-x="325" 
d="M305 499q-74 -3 -127.5 -48t-74.5 -123v-328h-20v519h20v-134q27 55 72.5 90.5t96.5 41.5q10 1 18.5 1.5t14.5 0.5v-20zM90 730l85 -63l85 63l16 -12l-93 -74h-16l-93 74z" />
    <glyph glyph-name="rcommaaccent" unicode="&#x157;" horiz-adv-x="325" 
d="M305 499q-74 -3 -127.5 -48t-74.5 -123v-328h-20v519h20v-134q27 55 72.5 90.5t96.5 41.5q10 1 18.5 1.5t14.5 0.5v-20zM70 -127q13 0 13 13v64h20v-62q0 -35 -33 -35v20z" />
    <glyph glyph-name="registered" unicode="&#xae;" horiz-adv-x="834" 
d="M417 -7q-78 0 -144 27.5t-114 76t-75.5 114.5t-27.5 144q0 77 27.5 143t75.5 114t114 75.5t144 27.5t144 -27.5t114 -75.5t75.5 -114t27.5 -143q0 -78 -27.5 -144t-75.5 -114.5t-114 -76t-144 -27.5zM417 13q72 0 134 24.5t108 69.5t72 108t26 140q0 73 -25.5 135
t-71 107.5t-108 71.5t-135.5 26t-135.5 -26t-108 -71.5t-71 -107.5t-25.5 -135q0 -74 25.5 -136.5t71 -108t107.5 -71.5t136 -26zM272 583h188q28 0 52 -12t41.5 -32t27 -45t9.5 -51q0 -27 -8.5 -51.5t-24 -43.5t-37.5 -31t-48 -14l117 -182h-24l-116 182h-156v-182h-21v462
zM465 323q26 0 45.5 9.5t33 26t20 38.5t6.5 46t-8 46t-22.5 38t-35 25.5t-44.5 9.5h-167v-239h172z" />
    <glyph glyph-name="s" unicode="s" horiz-adv-x="471" 
d="M235 -10q-121 0 -198 84l15 13q40 -39 83.5 -58t99.5 -19q77 0 125 33t48 93q0 28 -12 46.5t-35 32t-57 23t-77 19.5q-42 10 -73 18.5t-51.5 21.5t-31 32.5t-10.5 50.5q0 39 15 66.5t40 45.5t58 26.5t70 8.5q63 0 107.5 -21.5t61.5 -53.5l-18 -8q-19 31 -62 47t-93 16
q-32 0 -61 -7t-51 -22t-34.5 -38.5t-12.5 -56.5q0 -26 8.5 -42.5t26.5 -27.5t46 -19t66 -17q46 -11 83.5 -21t63 -25t39.5 -36.5t14 -55.5t-14 -61.5t-39 -47t-61 -30t-79 -10.5z" />
    <glyph glyph-name="s_t" unicode="&#xfb06;" horiz-adv-x="768" 
d="M761 24q0 -1 -8 -5.5t-20.5 -10t-29 -9.5t-34.5 -4q-40 0 -66.5 22t-26.5 58v424h-75v20h75q0 65 -3.5 106.5t-15 65.5t-32 33t-54.5 9q-37 0 -61.5 -8.5t-39.5 -23t-21 -34.5t-6 -43q0 -35 10 -66t21.5 -54.5t20.5 -37.5t8 -14l-18 -8q-12 19 -29 31.5t-36 19.5
t-39.5 9.5t-39.5 2.5q-30 0 -60 -6t-54 -20t-38.5 -37.5t-14.5 -58.5q0 -39 18 -62t43.5 -34.5t54 -15.5t50.5 -5q27 -2 61.5 -6.5t65.5 -18t52 -39t21 -69.5q0 -41 -18.5 -68.5t-47 -44.5t-63.5 -24.5t-67 -7.5q-65 0 -114 24t-83 58l15 13q81 -75 184 -75q29 0 59.5 6.5
t56 21t42 38.5t16.5 59q0 39 -19.5 61t-48 33t-59.5 14l-53 5q-33 2 -66 8t-59.5 20t-43.5 39.5t-17 67.5t17 69.5t44 44t60 23.5t66 7q38 0 68 -8t52 -22l-13.5 30t-12 28t-9 30t-3.5 36q0 27 7 51t24 42t45 28.5t70 10.5q46 0 72 -14.5t38 -43.5t14.5 -73t2.5 -103h125
v-20h-125v-424q0 -29 22 -44.5t51 -15.5q15 0 29.5 3.5t25.5 8t18 8.5t8 5z" />
    <glyph glyph-name="sacute" unicode="&#x15b;" horiz-adv-x="471" 
d="M235 -10q-121 0 -198 84l15 13q40 -39 83.5 -58t99.5 -19q77 0 125 33t48 93q0 28 -12 46.5t-35 32t-57 23t-77 19.5q-42 10 -73 18.5t-51.5 21.5t-31 32.5t-10.5 50.5q0 39 15 66.5t40 45.5t58 26.5t70 8.5q63 0 107.5 -21.5t61.5 -53.5l-18 -8q-19 31 -62 47t-93 16
q-32 0 -61 -7t-51 -22t-34.5 -38.5t-12.5 -56.5q0 -26 8.5 -42.5t26.5 -27.5t46 -19t66 -17q46 -11 83.5 -21t63 -25t39.5 -36.5t14 -55.5t-14 -61.5t-39 -47t-61 -30t-79 -10.5zM226 645l-16 12l64 73h34z" />
    <glyph glyph-name="scaron" unicode="&#x161;" horiz-adv-x="471" 
d="M235 -10q-121 0 -198 84l15 13q40 -39 83.5 -58t99.5 -19q77 0 125 33t48 93q0 28 -12 46.5t-35 32t-57 23t-77 19.5q-42 10 -73 18.5t-51.5 21.5t-31 32.5t-10.5 50.5q0 39 15 66.5t40 45.5t58 26.5t70 8.5q63 0 107.5 -21.5t61.5 -53.5l-18 -8q-19 31 -62 47t-93 16
q-32 0 -61 -7t-51 -22t-34.5 -38.5t-12.5 -56.5q0 -26 8.5 -42.5t26.5 -27.5t46 -19t66 -17q46 -11 83.5 -21t63 -25t39.5 -36.5t14 -55.5t-14 -61.5t-39 -47t-61 -30t-79 -10.5zM155 730l85 -63l85 63l16 -12l-93 -74h-16l-93 74z" />
    <glyph glyph-name="schwa" unicode="&#x259;" horiz-adv-x="577" 
d="M285 -10q-52 0 -97.5 21t-79 57t-53.5 85t-20 105v11h475q-4 50 -23.5 93.5t-50.5 75.5t-71.5 50.5t-85.5 18.5q-30 0 -58.5 -8t-53.5 -22.5t-44 -34.5t-30 -44l-19 5q10 27 31 49.5t48.5 39t60 26t66.5 9.5q51 0 96.5 -21.5t79.5 -59t54 -87t20 -105.5q0 -55 -19 -103
t-52.5 -84t-78 -56.5t-95.5 -20.5zM284 10q46 0 86 18t70.5 50t48.5 76t21 95h-454q3 -52 22 -96t49.5 -75.5t70.5 -49.5t86 -18z" />
    <glyph glyph-name="scircumflex" unicode="&#x15d;" horiz-adv-x="471" 
d="M235 -10q-121 0 -198 84l15 13q40 -39 83.5 -58t99.5 -19q77 0 125 33t48 93q0 28 -12 46.5t-35 32t-57 23t-77 19.5q-42 10 -73 18.5t-51.5 21.5t-31 32.5t-10.5 50.5q0 39 15 66.5t40 45.5t58 26.5t70 8.5q63 0 107.5 -21.5t61.5 -53.5l-18 -8q-19 31 -62 47t-93 16
q-32 0 -61 -7t-51 -22t-34.5 -38.5t-12.5 -56.5q0 -26 8.5 -42.5t26.5 -27.5t46 -19t66 -17q46 -11 83.5 -21t63 -25t39.5 -36.5t14 -55.5t-14 -61.5t-39 -47t-61 -30t-79 -10.5zM139 656l93 74h16l93 -74l-16 -12l-85 63l-85 -63z" />
    <glyph glyph-name="section" unicode="&#xa7;" horiz-adv-x="496" 
d="M392 181q29 -16 41.5 -42.5t12.5 -64.5q0 -39 -17 -69.5t-44 -51t-60 -31t-65 -10.5q-65 0 -109 24t-78 58l15 13q41 -38 81.5 -56.5t90.5 -18.5q30 0 59.5 9.5t53 28t38.5 45t15 59.5q0 36 -14.5 58.5t-37 35t-51.5 17t-57 5.5q-37 1 -71 10t-59.5 27t-40.5 46.5
t-15 67.5q0 26 9 52t23 42q-27 17 -43 49t-16 73q0 38 17 67.5t43.5 49.5t59 30.5t64.5 10.5q66 0 103 -19.5t62 -55.5l-18 -8q-10 19 -27 31.5t-37 19.5t-42 9.5t-41 2.5q-29 0 -58.5 -9.5t-53 -27.5t-38 -43.5t-14.5 -57.5q0 -36 12.5 -61t34.5 -40.5t52.5 -22.5t66.5 -7
q35 0 69 -8t61 -25.5t43.5 -45.5t16.5 -67q0 -29 -10 -55.5t-27 -43.5zM100 341q0 -40 14 -64.5t37.5 -38.5t52.5 -20t59.5 -9.5l59 -7t49.5 -11.5q17 14 27 39t10 51q0 36 -16 60.5t-41 39t-55 20.5t-58 6q-29 0 -57 4.5t-51 14.5q-14 -14 -22.5 -37t-8.5 -47z" />
    <glyph glyph-name="semicolon" unicode=";" horiz-adv-x="184" 
d="M85 453v64h20v-64h-20zM72 -13q13 0 13 13v64h20v-62q0 -35 -33 -35v20z" />
    <glyph glyph-name="seven" unicode="7" horiz-adv-x="532" 
d="M479 563h-427v20h460l-364 -710h-23z" />
    <glyph glyph-name="seven.lnum" horiz-adv-x="493" 
d="M458 690h-427v20h460l-364 -710h-23z" />
    <glyph glyph-name="seveneighths" unicode="&#x215e;" horiz-adv-x="802" 
d="M762 103q0 -24 -12 -44t-33 -34t-48 -21.5t-57 -7.5q-33 0 -60.5 9t-46.5 24t-29.5 34.5t-10.5 41.5q0 19 8.5 35.5t22.5 29.5t31.5 22t35.5 14q-33 11 -57.5 32t-24.5 52q0 22 11.5 39.5t30.5 29.5t43 18t48 6t48 -6t42.5 -18t30 -29.5t11.5 -39.5q0 -31 -24.5 -52.5
t-58.5 -31.5q42 -11 70.5 -38t28.5 -65zM742 105q0 22 -12 39t-30.5 29t-41.5 18t-45 6q-23 0 -46 -6.5t-41 -19t-29.5 -29.5t-11.5 -38t12 -38t30.5 -28.5t41.5 -17.5t45 -6q23 0 46 6.5t41 18t29.5 28.5t11.5 38zM501 289q0 -18 10.5 -32t26.5 -23.5t36 -14.5t39 -5
t39.5 5t36.5 15t26.5 24t10.5 32t-9.5 31.5t-25.5 23.5t-36.5 15t-41.5 5q-22 0 -42 -5.5t-35.5 -15t-25 -23.5t-9.5 -32zM304 711h-258v19h290l-225 -383h-23zM54 11l558 700l16 -12l-558 -700z" />
    <glyph glyph-name="sevensuperior" unicode="&#x2077;" horiz-adv-x="328" 
d="M286 711h-258v19h290l-225 -383h-23z" />
    <glyph glyph-name="seveninferior" unicode="&#x2087;" horiz-adv-x="327" 
d="M286 364h-258v19h290l-225 -383h-23z" />
    <glyph glyph-name="six" unicode="6" horiz-adv-x="605" 
d="M557 232q0 -50 -19 -94t-52.5 -77t-78.5 -52t-96 -19q-53 0 -98.5 19t-79.5 55t-53 87t-19 115q0 117 18.5 201.5t52 139.5t79.5 81.5t102 26.5q73 0 128.5 -39.5t77.5 -107.5l-19 -7q-9 30 -27.5 54.5t-43 42.5t-54 27.5t-61.5 9.5q-52 0 -94.5 -26t-73 -75.5
t-47 -121.5t-16.5 -164q12 37 34.5 68t53.5 53t67.5 34t76.5 12q50 0 94 -19t77 -52t52 -77.5t19 -94.5zM313 10q46 0 87 17.5t71.5 47.5t48 70.5t17.5 85.5q0 46 -18 86.5t-49 71t-71.5 48.5t-86.5 18t-87 -18t-71.5 -48.5t-48.5 -71t-18 -85.5t18 -85.5t49 -71t72 -48
t87 -17.5z" />
    <glyph glyph-name="six.lnum" horiz-adv-x="605" 
d="M557 232q0 -50 -19 -94t-52.5 -77t-78.5 -52t-96 -19q-53 0 -98.5 19t-79.5 55t-53 87t-19 115q0 117 18.5 201.5t52 139.5t79.5 81.5t102 26.5q73 0 128.5 -39.5t77.5 -107.5l-19 -7q-9 30 -27.5 54.5t-43 42.5t-54 27.5t-61.5 9.5q-52 0 -94.5 -26t-73 -75.5
t-47 -121.5t-16.5 -164q12 37 34.5 68t53.5 53t67.5 34t76.5 12q50 0 94 -19t77 -52t52 -77.5t19 -94.5zM313 10q46 0 87 17.5t71.5 47.5t48 70.5t17.5 85.5q0 46 -18 86.5t-49 71t-71.5 48.5t-86.5 18t-87 -18t-71.5 -48.5t-48.5 -71t-18 -85.5t18 -85.5t49 -71t72 -48
t87 -17.5z" />
    <glyph glyph-name="sixinferior" unicode="&#x2086;" horiz-adv-x="390" 
d="M354 126q0 -27 -12 -51t-32.5 -42t-48.5 -28t-60 -10q-33 0 -61.5 10.5t-49.5 30.5t-33 48t-12 64q0 122 44 180t114 58q45 0 79.5 -20.5t48.5 -55.5l-15 -10q-12 30 -43 49t-70 19q-62 0 -99.5 -50.5t-38.5 -144.5q14 38 52.5 60.5t86.5 22.5q31 0 58.5 -10t47.5 -28
t32 -41.5t12 -50.5zM202 13q27 0 51.5 9t42.5 24t28.5 35.5t10.5 43.5t-10.5 44t-29 36.5t-43 24.5t-51.5 9t-51.5 -9t-42.5 -24.5t-28.5 -36t-10.5 -43.5t10.5 -43.5t29 -36t43 -24.5t51.5 -9z" />
    <glyph glyph-name="sixsuperior" unicode="&#x2076;" horiz-adv-x="390" 
d="M354 470q0 -27 -12 -51t-32.5 -42t-48.5 -28t-60 -10q-33 0 -61.5 10.5t-49.5 30.5t-33 48t-12 64q0 122 44 180t114 58q45 0 79.5 -20.5t48.5 -55.5l-15 -10q-12 30 -43 49t-70 19q-62 0 -99.5 -50.5t-38.5 -144.5q14 38 52.5 60.5t86.5 22.5q31 0 58.5 -10t47.5 -28
t32 -41.5t12 -50.5zM202 357q27 0 51.5 9t42.5 24t28.5 35.5t10.5 43.5t-10.5 44t-29 36.5t-43 24.5t-51.5 9t-51.5 -9t-42.5 -24.5t-28.5 -36t-10.5 -43.5t10.5 -43.5t29 -36t43 -24.5t51.5 -9z" />
    <glyph glyph-name="space" unicode=" " horiz-adv-x="269" 
 />
    <glyph glyph-name="sterling" unicode="&#xa3;" horiz-adv-x="474" 
d="M52 366h109q-12 23 -26 45t-25.5 44t-19 45t-7.5 50q0 34 13 64t35 52.5t52 35.5t63 13q50 0 93 -28.5t69 -76.5l-17 -12q-24 45 -63 71t-84 26q-29 0 -54 -11t-44 -30.5t-30 -45.5t-11 -56q0 -26 8 -48.5t20 -45t26 -45t26 -47.5h173v-20h-164q10 -23 16.5 -49t6.5 -55
q0 -27 -6 -52t-20 -51t-36.5 -55.5t-55.5 -65.5q17 3 35 5t36 2q23 0 42 -3t36 -7t34 -7t36 -3q21 0 44.5 5t54.5 16l6 -19q-54 -22 -106 -22q-22 0 -40 3t-35.5 7t-36.5 7t-41 3t-47.5 -3.5t-46.5 -8.5l-10 17q40 43 66.5 75t42 58t21.5 49t6 49q0 30 -7 56t-18 49h-119v20
z" />
    <glyph glyph-name="t" unicode="t" horiz-adv-x="295" 
d="M288 24l-7.5 -5t-20 -10t-29.5 -9.5t-38 -4.5q-36 0 -63 22t-27 58v424h-75v20h75v181h20v-181h125v-20h-125v-424q0 -29 22 -44.5t48 -15.5q17 0 32 3.5t26.5 8t18 8.5t7.5 5z" />
    <glyph glyph-name="t.alt" horiz-adv-x="272" 
d="M103 0v499h-75v20h75v213h20v-213h125v-20h-125v-499h-20z" />
    <glyph glyph-name="tbar" unicode="&#x167;" horiz-adv-x="297" 
d="M289 24l-7.5 -5t-20 -10t-29.5 -9.5t-38 -4.5q-36 0 -63 22t-27 58v264h-75v20h75v140h-75v20h75v181h20v-181h125v-20h-125v-140h125v-20h-125v-264q0 -29 22 -44.5t48 -15.5q17 0 32 3.5t26.5 8t18 8.5t7.5 5z" />
    <glyph glyph-name="tcaron" unicode="&#x165;" horiz-adv-x="295" 
d="M288 24l-7.5 -5t-20 -10t-29.5 -9.5t-38 -4.5q-36 0 -63 22t-27 58v424h-75v20h75v181h20v-181h125v-20h-125v-424q0 -29 22 -44.5t48 -15.5q17 0 32 3.5t26.5 8t18 8.5t7.5 5zM218 645l-16 12l64 73h34z" />
    <glyph glyph-name="thorn" unicode="&#xfe;" horiz-adv-x="603" 
d="M556 258q-2 -53 -21 -101.5t-52.5 -85.5t-78.5 -59t-98 -22q-31 0 -60.5 9t-56 25t-49 37.5t-37.5 46.5v-321h-20v923h20v-312q40 56 92 92.5t120 36.5q57 0 102 -24t75.5 -62.5t47 -86.5t16.5 -96zM536 258q0 48 -16 93t-45.5 79.5t-70 55.5t-89.5 21q-37 0 -69.5 -12.5
t-59 -33.5t-47.5 -48t-36 -57v-187q0 -32 20.5 -61t51 -50.5t66 -34.5t65.5 -13q50 0 92.5 21.5t73 56.5t47.5 79.5t17 90.5z" />
    <glyph glyph-name="three" unicode="3" horiz-adv-x="519" 
d="M309 236q72 -10 115 -61.5t43 -126.5q0 -44 -15.5 -79.5t-44 -61.5t-67.5 -40t-85 -14q-75 0 -131 34.5t-77 93.5l19 7q9 -26 26.5 -47t42.5 -36t56 -23.5t66 -8.5q43 0 78 12.5t60 36t38.5 56t13.5 73.5q0 81 -52 128.5t-143 47.5h-22v20h23q88 0 135 37.5t47 105.5
q0 37 -13.5 67.5t-37.5 52.5t-57 34t-72 12q-63 0 -111 -31t-68 -82l-18 7q10 28 29 51.5t45 40t57 25.5t66 9q43 0 79.5 -13.5t63.5 -38t42 -57.5t15 -72q0 -64 -39.5 -107.5t-106.5 -51.5z" />
    <glyph glyph-name="three.lnum" horiz-adv-x="589" 
d="M297 -9q-51 0 -94.5 14t-75.5 38.5t-51 58.5t-20 74h20q1 -35 19 -65t48 -52.5t70 -35t85 -12.5q46 0 85 12.5t67.5 35t44.5 53.5t16 67q0 39 -17.5 70.5t-50 54t-77.5 34.5t-100 12h-35v20h35q110 0 167.5 38.5t57.5 112.5q0 39 -15.5 71.5t-43.5 56t-66 37t-83 13.5
q-69 0 -122.5 -31t-74.5 -84l-18 8q12 29 33 52.5t49 40t62 25.5t71 9q49 0 91 -15t72.5 -41.5t47.5 -63t17 -78.5q0 -125 -144 -162q37 -7 67.5 -23.5t52 -40.5t33 -53.5t11.5 -63.5q0 -40 -18 -74t-49.5 -59t-74 -39.5t-92.5 -14.5z" />
    <glyph glyph-name="threeeighths" unicode="&#x215c;" horiz-adv-x="802" 
d="M758 103q0 -24 -12 -44t-33 -34t-48 -21.5t-57 -7.5q-33 0 -60.5 9t-46.5 24t-29.5 34.5t-10.5 41.5q0 19 8.5 35.5t22.5 29.5t31.5 22t35.5 14q-33 11 -57.5 32t-24.5 52q0 22 11.5 39.5t30.5 29.5t43 18t48 6t48 -6t42.5 -18t30 -29.5t11.5 -39.5q0 -31 -24.5 -52.5
t-58.5 -31.5q42 -11 70.5 -38t28.5 -65zM738 105q0 22 -12 39t-30.5 29t-41.5 18t-45 6q-23 0 -46 -6.5t-41 -19t-29.5 -29.5t-11.5 -38t12 -38t30.5 -28.5t41.5 -17.5t45 -6q23 0 46 6.5t41 18t29.5 28.5t11.5 38zM497 289q0 -18 10.5 -32t26.5 -23.5t36 -14.5t39 -5
t39.5 5t36.5 15t26.5 24t10.5 32t-9.5 31.5t-25.5 23.5t-36.5 15t-41.5 5q-22 0 -42 -5.5t-35.5 -15t-25 -23.5t-9.5 -32zM199 338q-31 0 -57.5 7t-46.5 20t-32 30.5t-13 38.5l16 7q1 -17 11.5 -32t28.5 -26.5t42 -18.5t51 -7t50 6.5t40.5 17.5t27 27t9.5 34q0 40 -41 63.5
t-108 23.5h-22v18h22q66 0 101 19.5t35 57.5q0 39 -34.5 64t-87.5 25q-42 0 -74 -17t-45 -43l-15 12q15 30 51.5 48t82.5 18q31 0 57 -8t45 -22.5t30 -34t11 -41.5q0 -67 -89 -87q46 -8 73.5 -34.5t27.5 -63.5q0 -22 -11.5 -41t-31.5 -32.5t-46.5 -21t-57.5 -7.5zM112 11
l558 700l16 -12l-558 -700z" />
    <glyph glyph-name="threesuperior" unicode="&#xb3;" horiz-adv-x="380" 
d="M190 338q-31 0 -57.5 7t-46.5 20t-32 30.5t-13 38.5l16 7q1 -17 11.5 -32t28.5 -26.5t42 -18.5t51 -7t50 6.5t40.5 17.5t27 27t9.5 34q0 40 -41 63.5t-108 23.5h-22v18h22q66 0 101 19.5t35 57.5q0 39 -34.5 64t-87.5 25q-42 0 -74 -17t-45 -43l-15 12q15 30 51.5 48
t82.5 18q31 0 57 -8t45 -22.5t30 -34t11 -41.5q0 -67 -89 -87q46 -8 73.5 -34.5t27.5 -63.5q0 -22 -11.5 -41t-31.5 -32.5t-46.5 -21t-57.5 -7.5z" />
    <glyph glyph-name="threequarters" unicode="&#xbe;" horiz-adv-x="774" 
d="M652 0v110h-233v17l239 256h14v-254h55v-19h-55v-110h-20zM447 129h205v219zM197 338q-31 0 -57.5 7t-46.5 20t-32 30.5t-13 38.5l16 7q1 -17 11.5 -32t28.5 -26.5t42 -18.5t51 -7t50 6.5t40.5 17.5t27 27t9.5 34q0 40 -41 63.5t-108 23.5h-22v18h22q66 0 101 19.5
t35 57.5q0 39 -34.5 64t-87.5 25q-42 0 -74 -17t-45 -43l-15 12q15 30 51.5 48t82.5 18q31 0 57 -8t45 -22.5t30 -34t11 -41.5q0 -67 -89 -87q46 -8 73.5 -34.5t27.5 -63.5q0 -22 -11.5 -41t-31.5 -32.5t-46.5 -21t-57.5 -7.5zM140 11l558 700l16 -12l-558 -700z" />
    <glyph glyph-name="trademark" unicode="&#x2122;" horiz-adv-x="652" 
d="M269 692h-95v-259h-20v259h-95v20h210v-20zM546 710h22v-277h-20v239l-98 -197h-17l-98 197v-239h-20v277h21l105 -209z" />
    <glyph glyph-name="two" unicode="2" horiz-adv-x="507" 
d="M59 0q0 18 4 52t21 72.5t51.5 76t94.5 62.5l60.5 25t61 32t47.5 46.5t19 66.5q0 23 -10 46t-30 41t-50.5 29.5t-71.5 11.5q-38 0 -68 -12t-51.5 -27t-34.5 -29t-17 -19l-16 12l13 15t37 33t58.5 32.5t78.5 14.5q45 0 79 -13t57 -34t34.5 -47.5t11.5 -53.5
q0 -45 -20.5 -76t-51.5 -52t-66 -35l-63 -26q-52 -23 -83 -55.5t-48 -65.5t-22.5 -61.5t-5.5 -41.5h371v-20h-390z" />
    <glyph glyph-name="two.lnum" horiz-adv-x="568" 
d="M55 0q-1 9 -1.5 18t-0.5 17q0 60 16 105.5t43.5 79.5t64.5 58t79 41q37 15 77.5 29.5t74.5 36.5t56.5 54.5t22.5 82.5q0 33 -11.5 65t-35 57t-60 40t-85.5 15q-46 0 -81.5 -12.5t-61.5 -30.5t-43.5 -38t-27.5 -35l-17 10q0 1 14 21t43 43t72.5 42.5t103.5 19.5
q54 0 93.5 -17t65.5 -45t38.5 -63.5t12.5 -72.5q0 -56 -25 -92t-62 -60t-79.5 -39t-76.5 -29q-62 -25 -99.5 -57.5t-58 -68t-27 -70.5t-6.5 -65q0 -5 0.5 -10t0.5 -10h434v-20h-453z" />
    <glyph glyph-name="twosuperior" unicode="&#xb2;" horiz-adv-x="370" 
d="M41 343q0 74 33 113t90 60q22 8 47 16t45.5 19.5t34 28.5t13.5 43q0 17 -7 33t-21 28.5t-35 20t-50 7.5q-27 0 -48.5 -6.5t-37.5 -15.5t-27 -19.5t-17 -18.5l-15 12q1 2 10.5 12.5t27.5 22.5t45.5 22t63.5 10q34 0 58.5 -9t41 -24t24.5 -35t8 -41q0 -30 -15 -49.5
t-37 -32.5t-47.5 -21.5l-46.5 -15.5q-39 -14 -62 -32t-34 -37t-14 -38t-3 -34h260v-19h-285z" />
    <glyph glyph-name="twothirds" unicode="&#x2154;" horiz-adv-x="814" 
d="M621 -5q-31 0 -57.5 7t-46.5 20t-32 30.5t-13 38.5l16 7q1 -17 11.5 -32t28.5 -26.5t42 -18.5t51 -7t50 6.5t40.5 17.5t27 27t9.5 34q0 40 -41 63.5t-108 23.5h-22v18h22q66 0 101 19.5t35 57.5q0 39 -34.5 64t-87.5 25q-42 0 -74 -17t-45 -43l-15 12q15 30 51.5 48
t82.5 18q31 0 57 -8t45 -22.5t30 -34t11 -41.5q0 -67 -89 -87q46 -8 73.5 -34.5t27.5 -63.5q0 -22 -11.5 -41t-31.5 -32.5t-46.5 -21t-57.5 -7.5zM52 343q0 74 33 113t90 60q22 8 47 16t45.5 19.5t34 28.5t13.5 43q0 17 -7 33t-21 28.5t-35 20t-50 7.5q-27 0 -48.5 -6.5
t-37.5 -15.5t-27 -19.5t-17 -18.5l-15 12q1 2 10.5 12.5t27.5 22.5t45.5 22t63.5 10q34 0 58.5 -9t41 -24t24.5 -35t8 -41q0 -30 -15 -49.5t-37 -32.5t-47.5 -21.5l-46.5 -15.5q-39 -14 -62 -32t-34 -37t-14 -38t-3 -34h260v-19h-285zM134 11l558 700l16 -12l-558 -700z" />
    <glyph glyph-name="u" unicode="u" horiz-adv-x="574" 
d="M244 -10q-167 0 -167 238v291h20v-291q0 -218 147 -218q37 0 73 13.5t66 37t52.5 56.5t34.5 72v330h20v-479q0 -20 16 -20v-20q-11 0 -14 2q-10 4 -16 14.5t-6 23.5v92q-34 -66 -95 -104t-131 -38z" />
    <glyph glyph-name="u.alt" horiz-adv-x="573" 
d="M470 0v132q-16 -32 -40 -58t-53.5 -44.5t-62.5 -29t-67 -10.5q-54 0 -87.5 21t-52 55t-24.5 76.5t-6 85.5v291h20v-291q0 -44 6 -83.5t22.5 -69.5t45.5 -47.5t76 -17.5q40 0 76 15t65.5 40t50.5 57t31 67v330h20v-519h-20z" />
    <glyph glyph-name="uacute" unicode="&#xfa;" horiz-adv-x="574" 
d="M244 -10q-167 0 -167 238v291h20v-291q0 -218 147 -218q37 0 73 13.5t66 37t52.5 56.5t34.5 72v330h20v-479q0 -20 16 -20v-20q-11 0 -14 2q-10 4 -16 14.5t-6 23.5v92q-34 -66 -95 -104t-131 -38zM267 645l-16 12l64 73h34z" />
    <glyph glyph-name="ubreve" unicode="&#x16d;" horiz-adv-x="574" 
d="M244 -10q-167 0 -167 238v291h20v-291q0 -218 147 -218q37 0 73 13.5t66 37t52.5 56.5t34.5 72v330h20v-479q0 -20 16 -20v-20q-11 0 -14 2q-10 4 -16 14.5t-6 23.5v92q-34 -66 -95 -104t-131 -38zM281 670q20 0 36.5 17.5t19.5 42.5h18q0 -15 -6 -29t-16.5 -24.5
t-23.5 -17t-28 -6.5t-28 6.5t-23.5 17t-16.5 24.5t-6 29h19q0 -23 17 -41.5t38 -18.5z" />
    <glyph glyph-name="ucircumflex" unicode="&#xfb;" horiz-adv-x="574" 
d="M244 -10q-167 0 -167 238v291h20v-291q0 -218 147 -218q37 0 73 13.5t66 37t52.5 56.5t34.5 72v330h20v-479q0 -20 16 -20v-20q-11 0 -14 2q-10 4 -16 14.5t-6 23.5v92q-34 -66 -95 -104t-131 -38zM180 656l93 74h16l93 -74l-16 -12l-85 63l-85 -63z" />
    <glyph glyph-name="udieresis" unicode="&#xfc;" horiz-adv-x="574" 
d="M244 -10q-167 0 -167 238v291h20v-291q0 -218 147 -218q37 0 73 13.5t66 37t52.5 56.5t34.5 72v330h20v-479q0 -20 16 -20v-20q-11 0 -14 2q-10 4 -16 14.5t-6 23.5v92q-34 -66 -95 -104t-131 -38zM213 653v77h20v-77h-20zM329 653v77h20v-77h-20z" />
    <glyph glyph-name="ugrave" unicode="&#xf9;" horiz-adv-x="574" 
d="M244 -10q-167 0 -167 238v291h20v-291q0 -218 147 -218q37 0 73 13.5t66 37t52.5 56.5t34.5 72v330h20v-479q0 -20 16 -20v-20q-11 0 -14 2q-10 4 -16 14.5t-6 23.5v92q-34 -66 -95 -104t-131 -38zM213 730h33l65 -73l-16 -12z" />
    <glyph glyph-name="uhungarumlaut" unicode="&#x171;" horiz-adv-x="574" 
d="M244 -10q-167 0 -167 238v291h20v-291q0 -218 147 -218q37 0 73 13.5t66 37t52.5 56.5t34.5 72v330h20v-479q0 -20 16 -20v-20q-11 0 -14 2q-10 4 -16 14.5t-6 23.5v92q-34 -66 -95 -104t-131 -38zM217 645l-16 12l64 73h34zM317 645l-16 12l64 73h34z" />
    <glyph glyph-name="umacron" unicode="&#x16b;" horiz-adv-x="574" 
d="M244 -10q-167 0 -167 238v291h20v-291q0 -218 147 -218q37 0 73 13.5t66 37t52.5 56.5t34.5 72v330h20v-479q0 -20 16 -20v-20q-11 0 -14 2q-10 4 -16 14.5t-6 23.5v92q-34 -66 -95 -104t-131 -38zM141 686v20h280v-20h-280z" />
    <glyph glyph-name="underscore" unicode="_" horiz-adv-x="439" 
d="M23 -20v20h393v-20h-393z" />
    <glyph glyph-name="uni00A0" unicode="&#xa0;" horiz-adv-x="269" 
 />
    <glyph glyph-name="uni00AD" unicode="&#xad;" horiz-adv-x="547" 
d="M72 261v20h403v-20h-403z" />
    <glyph glyph-name="uni015E" unicode="&#x15e;" horiz-adv-x="610" 
d="M252 -125q15 -7 38 -12.5t49 -5.5q58 0 58 38q0 21 -13.5 29.5t-34.5 8.5t-44 -5.5t-37 -10.5l45 78q-84 1 -149 27.5t-121 82.5l15 13q54 -56 117.5 -81t144.5 -25q106 0 167.5 39.5t61.5 119.5q0 40 -14 67.5t-43 47.5t-74 34t-106 26q-59 11 -104.5 23.5t-77 32
t-47.5 49t-16 73.5q0 46 17.5 81.5t50 60t78 37t102.5 12.5q68 0 118.5 -19.5t92.5 -65.5l-13 -14q-42 46 -87.5 63t-108.5 17q-61 0 -104.5 -12t-71.5 -34.5t-41 -53.5t-13 -70q0 -38 13 -63.5t40 -43t69.5 -30t101.5 -24.5t107 -26t81.5 -35t51.5 -52t18 -78
q0 -84 -61.5 -129.5t-170.5 -48.5l-30 -53q10 4 22 5t20 1q68 0 68 -54q0 -30 -21.5 -43.5t-59.5 -13.5q-26 0 -50.5 5.5t-43.5 13.5z" />
    <glyph glyph-name="uni015F" unicode="&#x15f;" horiz-adv-x="472" 
d="M159 -127q15 -7 38 -12.5t49 -5.5q58 0 58 38q0 21 -13.5 29.5t-34.5 8.5t-44 -5.5t-37 -10.5l43 76q-110 5 -181 83l15 13q40 -39 83.5 -58t99.5 -19q77 0 125 33t48 93q0 28 -12 46.5t-35 32t-57 23t-77 19.5q-42 10 -73 18.5t-51.5 21.5t-31 32.5t-10.5 50.5
q0 39 15 66.5t40 45.5t58 26.5t70 8.5q63 0 107.5 -21.5t61.5 -53.5l-18 -8q-19 31 -62 47t-93 16q-32 0 -61 -7t-51 -22t-34.5 -38.5t-12.5 -56.5q0 -26 8.5 -42.5t26.5 -27.5t46 -19t66 -17q46 -11 83.5 -21t63 -25t39.5 -36.5t14 -55.5q0 -33 -13.5 -60t-37.5 -46.5
t-58.5 -30.5t-76.5 -12l-28 -49q10 4 22 5t20 1q68 0 68 -54q0 -30 -21.5 -43.5t-59.5 -13.5q-26 0 -50.5 5.5t-43.5 13.5z" />
    <glyph glyph-name="uni0162" unicode="&#x162;" horiz-adv-x="610" 
d="M227 -125q15 -7 38 -12.5t49 -5.5q58 0 58 38q0 21 -13.5 29.5t-34.5 8.5t-44 -5.5t-37 -10.5l52 90v683h-272v20h564v-20h-272v-690l-33 -57q10 4 22 5t20 1q68 0 68 -54q0 -30 -21.5 -43.5t-59.5 -13.5q-26 0 -50.5 5.5t-43.5 13.5z" />
    <glyph glyph-name="uni0163" unicode="&#x163;" horiz-adv-x="295" 
d="M117 -125q15 -7 38 -12.5t49 -5.5q58 0 58 38q0 21 -13.5 29.5t-34.5 8.5t-44 -5.5t-37 -10.5l45 79q-31 5 -53 26t-22 53v424h-75v20h75v181h20v-181h125v-20h-125v-424q0 -29 22 -44.5t48 -15.5q17 0 32 3.5t26.5 8t18 8.5t7.5 5l11 -16l-6.5 -4.5t-18 -9.5t-27 -9.5
t-34.5 -5.5l-30 -52q10 4 22 5t20 1q68 0 68 -54q0 -30 -21.5 -43.5t-59.5 -13.5q-26 0 -50.5 5.5t-43.5 13.5z" />
    <glyph glyph-name="uni0218" unicode="&#x218;" horiz-adv-x="610" 
d="M513 616q-42 46 -87.5 63t-108.5 17q-61 0 -104.5 -12t-71.5 -34.5t-41 -53.5t-13 -70q0 -38 13 -63.5t40 -43t69.5 -30t101.5 -24.5t107 -26t81.5 -35t51.5 -52t18 -78q0 -87 -66.5 -133t-183.5 -46q-86 0 -152.5 26.5t-123.5 83.5l15 13q54 -56 117.5 -81t144.5 -25
q106 0 167.5 39.5t61.5 119.5q0 40 -14 67.5t-43 47.5t-74 34t-106 26q-59 11 -104.5 23.5t-77 32t-47.5 49t-16 73.5q0 46 17.5 81.5t50 60t78 37t102.5 12.5q68 0 118.5 -19.5t92.5 -65.5zM297 -127q13 0 13 13v64h20v-62q0 -35 -33 -35v20z" />
    <glyph glyph-name="uni0219" unicode="&#x219;" horiz-adv-x="471" 
d="M235 -10q-121 0 -198 84l15 13q40 -39 83.5 -58t99.5 -19q77 0 125 33t48 93q0 28 -12 46.5t-35 32t-57 23t-77 19.5q-42 10 -73 18.5t-51.5 21.5t-31 32.5t-10.5 50.5q0 39 15 66.5t40 45.5t58 26.5t70 8.5q63 0 107.5 -21.5t61.5 -53.5l-18 -8q-19 31 -62 47t-93 16
q-32 0 -61 -7t-51 -22t-34.5 -38.5t-12.5 -56.5q0 -26 8.5 -42.5t26.5 -27.5t46 -19t66 -17q46 -11 83.5 -21t63 -25t39.5 -36.5t14 -55.5t-14 -61.5t-39 -47t-61 -30t-79 -10.5zM212 -127q13 0 13 13v64h20v-62q0 -35 -33 -35v20z" />
    <glyph glyph-name="uni021A" unicode="&#x21a;" horiz-adv-x="610" 
d="M587 690h-272v-690h-20v690h-272v20h564v-20zM282 -127q13 0 13 13v64h20v-62q0 -35 -33 -35v20z" />
    <glyph glyph-name="uni021B" unicode="&#x21b;" horiz-adv-x="295" 
d="M288 24l-7.5 -5t-20 -10t-29.5 -9.5t-38 -4.5q-36 0 -63 22t-27 58v424h-75v20h75v181h20v-181h125v-20h-125v-424q0 -29 22 -44.5t48 -15.5q17 0 32 3.5t26.5 8t18 8.5t7.5 5zM170 -127q13 0 13 13v64h20v-62q0 -35 -33 -35v20z" />
    <glyph glyph-name="uni03BC" unicode="&#x3bc;" horiz-adv-x="580" 
d="M83 519h20v-291q0 -218 147 -218q37 0 73 13.5t66 37t52.5 56.5t34.5 72v330h20v-479q0 -20 16 -20v-20q-11 0 -14 2q-10 4 -16 14.5t-6 23.5v92q-34 -66 -95 -104t-131 -38q-109 0 -147 104v-306h-20v731z" />
    <glyph glyph-name="uni2215" unicode="&#x2215;" horiz-adv-x="555" 
d="M-9 11l558 700l16 -12l-558 -700z" />
    <glyph glyph-name="uni2219" unicode="&#x2219;" horiz-adv-x="164" 
d="M72 250v83h20v-83h-20z" />
    <glyph glyph-name="uogonek" unicode="&#x173;" horiz-adv-x="574" 
d="M457 -159q-25 6 -38.5 22t-13.5 39q0 25 18 49t61 55q-14 12 -14 34v92q-34 -66 -95 -104t-131 -38q-167 0 -167 238v291h20v-291q0 -218 147 -218q37 0 73 13.5t66 37t52.5 56.5t34.5 72v330h20v-479q0 -20 16 -20v-20q-45 -31 -63 -51.5t-18 -43.5q0 -38 44 -47
l-12 -17v0z" />
    <glyph glyph-name="uring" unicode="&#x16f;" horiz-adv-x="574" 
d="M244 -10q-167 0 -167 238v291h20v-291q0 -218 147 -218q37 0 73 13.5t66 37t52.5 56.5t34.5 72v330h20v-479q0 -20 16 -20v-20q-11 0 -14 2q-10 4 -16 14.5t-6 23.5v92q-34 -66 -95 -104t-131 -38zM224 673q0 24 16.5 40.5t40.5 16.5t40.5 -16.5t16.5 -40.5t-16.5 -40.5
t-40.5 -16.5t-40.5 16.5t-16.5 40.5zM281 714q-17 0 -29 -11t-12 -30q0 -17 12 -29t29 -12q15 0 28 11.5t13 29.5q0 19 -12 30t-29 11z" />
    <glyph glyph-name="utilde" unicode="&#x169;" horiz-adv-x="574" 
d="M244 -10q-167 0 -167 238v291h20v-291q0 -218 147 -218q37 0 73 13.5t66 37t52.5 56.5t34.5 72v330h20v-479q0 -20 16 -20v-20q-11 0 -14 2q-10 4 -16 14.5t-6 23.5v92q-34 -66 -95 -104t-131 -38zM342 663q-22 0 -38.5 6t-30.5 13t-27.5 13t-28.5 6q-16 0 -26 -6.5
t-15.5 -15t-7.5 -16.5t-2 -10h-20q0 2 2 13t9.5 23t22 21.5t39.5 9.5q19 0 34 -6t29 -13t28.5 -13t33.5 -6q21 0 32.5 7t17.5 15.5t7.5 16t1.5 9.5h20q0 -3 -2.5 -14t-10.5 -23t-24.5 -21t-43.5 -9z" />
    <glyph glyph-name="v" unicode="v" horiz-adv-x="520" 
d="M251 0l-226 519h22l213 -490l213 490h22l-226 -519h-18z" />
    <glyph glyph-name="w" unicode="w" horiz-adv-x="794" 
d="M747 519h22l-227 -519h-18l-127 291l-127 -291h-18l-227 519h22l214 -490l125 287l-87 202h21l77 -176l77 176h21l-87 -202l125 -287z" />
    <glyph glyph-name="w.alt" horiz-adv-x="800" 
d="M565 0l-165 493l-165 -493h-18l-186 519h22l173 -489l163 489h22l163 -489l173 489h22l-186 -519h-18z" />
    <glyph glyph-name="wacute" unicode="&#x1e83;" horiz-adv-x="794" 
d="M747 519h22l-227 -519h-18l-127 291l-127 -291h-18l-227 519h22l214 -490l125 287l-87 202h21l77 -176l77 176h21l-87 -202l125 -287zM383 645l-16 12l64 73h34z" />
    <glyph glyph-name="wcircumflex" unicode="&#x175;" horiz-adv-x="794" 
d="M747 519h22l-227 -519h-18l-127 291l-127 -291h-18l-227 519h22l214 -490l125 287l-87 202h21l77 -176l77 176h21l-87 -202l125 -287zM296 656l93 74h16l93 -74l-16 -12l-85 63l-85 -63z" />
    <glyph glyph-name="wdieresis" unicode="&#x1e85;" horiz-adv-x="794" 
d="M747 519h22l-227 -519h-18l-127 291l-127 -291h-18l-227 519h22l214 -490l125 287l-87 202h21l77 -176l77 176h21l-87 -202l125 -287zM329 653v77h20v-77h-20zM445 653v77h20v-77h-20z" />
    <glyph glyph-name="wgrave" unicode="&#x1e81;" horiz-adv-x="794" 
d="M747 519h22l-227 -519h-18l-127 291l-127 -291h-18l-227 519h22l214 -490l125 287l-87 202h21l77 -176l77 176h21l-87 -202l125 -287zM329 730h33l65 -73l-16 -12z" />
    <glyph glyph-name="x" unicode="x" horiz-adv-x="480" 
d="M45 519l187 -234l8 -12l8 12l187 234h26l-208 -261l206 -258h-26l-185 232l-8 12l-8 -12l-185 -232h-26l206 258l-208 261h26z" />
    <glyph glyph-name="y" unicode="y" horiz-adv-x="541" 
d="M129 -203q17 0 30 2.5t17 7.5q1 2 5.5 10t14 29l25.5 58l42 96l-241 519h22l229 -494l217 494h22l-309 -705q-12 -28 -33 -32q-20 -5 -41 -5v20z" />
    <glyph glyph-name="y.alt" horiz-adv-x="540" 
d="M515 519l-319 -732h-18l88 213l-241 519h22l229 -494l217 494h22z" />
    <glyph glyph-name="yacute" unicode="&#xfd;" horiz-adv-x="541" 
d="M129 -203q17 0 30 2.5t17 7.5q1 2 5.5 10t14 29l25.5 58l42 96l-241 519h22l229 -494l217 494h22l-309 -705q-12 -28 -33 -32q-20 -5 -41 -5v20zM259 645l-16 12l64 73h34z" />
    <glyph glyph-name="ycircumflex" unicode="&#x177;" horiz-adv-x="541" 
d="M129 -203q17 0 30 2.5t17 7.5q1 2 5.5 10t14 29l25.5 58l42 96l-241 519h22l229 -494l217 494h22l-309 -705q-12 -28 -33 -32q-20 -5 -41 -5v20zM172 656l93 74h16l93 -74l-16 -12l-85 63l-85 -63z" />
    <glyph glyph-name="ydieresis" unicode="&#xff;" horiz-adv-x="541" 
d="M129 -203q17 0 30 2.5t17 7.5q1 2 5.5 10t14 29l25.5 58l42 96l-241 519h22l229 -494l217 494h22l-309 -705q-12 -28 -33 -32q-20 -5 -41 -5v20zM205 653v77h20v-77h-20zM321 653v77h20v-77h-20z" />
    <glyph glyph-name="yen" unicode="&#xa5;" horiz-adv-x="653" 
d="M380 341h93v-20h-106l-31 -46v-24h137v-20h-137v-231h-20v231h-136v20h136v26l-29 44h-107v20h94l-245 369h23l274 -412l275 412h23z" />
    <glyph glyph-name="ygrave" unicode="&#x1ef3;" horiz-adv-x="541" 
d="M129 -203q17 0 30 2.5t17 7.5q1 2 5.5 10t14 29l25.5 58l42 96l-241 519h22l229 -494l217 494h22l-309 -705q-12 -28 -33 -32q-20 -5 -41 -5v20zM205 730h33l65 -73l-16 -12z" />
    <glyph glyph-name="ytilde" unicode="&#x1ef9;" horiz-adv-x="541" 
d="M129 -203q17 0 30 2.5t17 7.5q1 2 5.5 10t14 29l25.5 58l42 96l-241 519h22l229 -494l217 494h22l-309 -705q-12 -28 -33 -32q-20 -5 -41 -5v20zM334 663q-22 0 -38.5 6t-30.5 13t-27.5 13t-28.5 6q-16 0 -26 -6.5t-15.5 -15t-7.5 -16.5t-2 -10h-20q0 2 2 13t9.5 23
t22 21.5t39.5 9.5q19 0 34 -6t29 -13t28.5 -13t33.5 -6q21 0 32.5 7t17.5 15.5t7.5 16t1.5 9.5h20q0 -3 -2.5 -14t-10.5 -23t-24.5 -21t-43.5 -9z" />
    <glyph glyph-name="z" unicode="z" horiz-adv-x="483" 
d="M31 20l396 479h-391v20h416v-20l-395 -479h391v-20h-417v20z" />
    <glyph glyph-name="zacute" unicode="&#x17a;" horiz-adv-x="483" 
d="M31 20l396 479h-391v20h416v-20l-395 -479h391v-20h-417v20zM243 645l-16 12l64 73h34z" />
    <glyph glyph-name="zcaron" unicode="&#x17e;" horiz-adv-x="483" 
d="M31 20l396 479h-391v20h416v-20l-395 -479h391v-20h-417v20zM172 730l85 -63l85 63l16 -12l-93 -74h-16l-93 74z" />
    <glyph glyph-name="zdotaccent" unicode="&#x17c;" horiz-adv-x="483" 
d="M31 20l396 479h-391v20h416v-20l-395 -479h391v-20h-417v20zM247 653v77h20v-77h-20z" />
    <glyph glyph-name="zero" unicode="0" horiz-adv-x="616" 
d="M553 293q0 -66 -18.5 -121.5t-51 -96t-77.5 -63t-98 -22.5t-98 22.5t-77.5 63t-51 96t-18.5 121.5t18.5 121.5t51 96t77.5 63.5t98 23t98 -23t77.5 -63.5t51 -96t18.5 -121.5zM533 293q0 63 -16.5 115t-46 89.5t-71 58.5t-91.5 21t-91.5 -21t-71 -58.5t-46 -89.5
t-16.5 -115t16.5 -115t46 -89.5t71 -58t91.5 -20.5t91.5 20.5t71 58t46 89.5t16.5 115z" />
    <glyph glyph-name="zero.lnum" horiz-adv-x="678" 
d="M339 -10q-70 2 -122.5 36t-88 86t-53.5 115t-18 123q0 64 19.5 128.5t56 116t89 83.5t117.5 32q70 0 122.5 -34.5t88 -87.5t53.5 -116.5t18 -121.5q0 -65 -19.5 -129t-56 -115t-89 -83t-117.5 -33zM77 350q2 -60 20 -120.5t51 -109t80.5 -79.5t110.5 -31q65 0 114 33
t82 83t49.5 110t16.5 114q0 60 -18 120.5t-52 109t-82.5 79.5t-109.5 31q-65 0 -114 -33t-82 -83.5t-49.5 -110t-16.5 -113.5z" />
    <glyph glyph-name="zeroinferior" unicode="&#x2080;" horiz-adv-x="437" 
d="M219 -5q-44 0 -77 18.5t-55.5 46.5t-33.5 62.5t-11 66.5q0 34 12.5 69t35.5 62.5t55.5 45t73.5 17.5q43 0 76 -18.5t55.5 -47t33.5 -63t11 -65.5q0 -35 -12 -70t-35 -62.5t-55.5 -44.5t-73.5 -17zM62 189q0 -31 10.5 -62t30.5 -56t49 -41t67 -16q39 0 68 17t48.5 43
t29.5 56.5t10 58.5q0 31 -10.5 62t-31 56t-49.5 41t-65 16q-39 0 -68.5 -17t-49 -43t-29.5 -56.5t-10 -58.5z" />
    <glyph glyph-name="zerosuperior" unicode="&#x2070;" horiz-adv-x="437" 
d="M219 342q-44 0 -77 18.5t-55.5 46.5t-33.5 62.5t-11 66.5q0 34 12.5 69t35.5 62.5t55.5 45t73.5 17.5q43 0 76 -18.5t55.5 -47t33.5 -63t11 -65.5q0 -35 -12 -70t-35 -62.5t-55.5 -44.5t-73.5 -17zM62 536q0 -31 10.5 -62t30.5 -56t49 -41t67 -16q39 0 68 17t48.5 43
t29.5 56.5t10 58.5q0 31 -10.5 62t-31 56t-49.5 41t-65 16q-39 0 -68.5 -17t-49 -43t-29.5 -56.5t-10 -58.5z" />
    </font>
</defs>
</svg>
